<svg width="159" height="40" viewBox="0 0 159 40" fill="none" xmlns="http://www.w3.org/2000/svg">
<rect width="158.31" height="40" fill="#E7DEF2"/>
<rect width="158.31" height="40" stroke="#EFE9F6"/>
<path d="M21.7925 18.8518L21.5435 20.0983L18.4853 20.1487L17.8051 23.676L21.0976 23.6217L20.8018 24.8689L17.5795 24.9221L16.6251 29.5908L15.1488 29.6151L16.0797 24.9468L13.1505 24.9951L12.2429 29.663L10.7783 29.6872L11.6858 25.0192L8.61591 25.0699L8.82978 23.824L11.9348 23.7728L12.5916 20.2459L9.34596 20.2994L9.57155 19.0533L12.8172 18.9998L13.7238 14.2733L15.2001 14.2489L14.2936 18.9754L17.2463 18.9268L18.1763 14.1998L19.6175 14.1761L18.7109 18.9026L21.7925 18.8518ZM17.0324 20.1726L14.0797 20.2213L13.3643 23.7492L16.3405 23.7001L17.0324 20.1726ZM36.9227 30.604L36.9646 33.1466L35.746 33.1667L35.7057 30.7178C34.0418 30.7452 32.6849 30.4316 31.6349 29.777L31.6013 27.7382C32.0609 28.1291 32.6836 28.4548 33.4692 28.7153C34.2626 28.9679 34.999 29.0886 35.6786 29.0774L35.5797 23.0782C33.8475 22.2785 32.7219 21.5353 32.2027 20.8484C31.6833 20.1538 31.4158 19.3299 31.4001 18.3769C31.3814 17.2443 31.752 16.2615 32.5118 15.4285C33.2715 14.5878 34.2436 14.0756 35.4283 13.892L35.3935 11.7829L36.6121 11.7628L36.6461 13.825C38.1779 13.8466 39.2399 14.0479 39.8322 14.4288L39.8651 16.4207C39.058 15.8089 37.994 15.4905 36.6731 15.4654L36.7751 21.6521C38.4126 22.3986 39.5342 23.1302 40.1399 23.8469C40.7532 24.5556 41.0675 25.3709 41.0827 26.2926C41.101 27.4018 40.7414 28.3415 40.004 29.1116C39.2743 29.8737 38.2472 30.3712 36.9227 30.604ZM35.5457 21.016L35.4557 15.5558C34.8017 15.6994 34.2871 16.0009 33.9118 16.4603C33.5364 16.9118 33.3539 17.4579 33.3645 18.0984C33.3756 18.7702 33.5409 19.3183 33.8604 19.7428C34.18 20.1673 34.7417 20.5917 35.5457 21.016ZM36.8083 23.6674L36.8957 28.9636C38.3979 28.6106 39.1383 27.7858 39.1169 26.4891C39.0991 25.4111 38.3296 24.4706 36.8083 23.6674ZM54.4369 22.0289C53.2808 22.048 52.3528 21.6843 51.6529 20.938C50.9528 20.1838 50.5923 19.17 50.5713 17.8968C50.5484 16.5063 50.8936 15.4067 51.6069 14.598C52.3201 13.7815 53.2938 13.363 54.528 13.3426C55.7232 13.3229 56.655 13.6787 57.3234 14.41C57.9996 15.1411 58.3488 16.1785 58.3709 17.5221C58.3931 18.8656 58.0398 19.9497 57.3111 20.7743C56.5901 21.591 55.632 22.0092 54.4369 22.0289ZM54.479 14.6327C53.7369 14.6449 53.1556 14.9319 52.7351 15.4936C52.3145 16.0475 52.1121 16.8048 52.128 17.7656C52.1436 18.7108 52.3666 19.4455 52.7972 19.9697C53.2277 20.4862 53.8061 20.7384 54.5326 20.7264C55.2669 20.7143 55.8365 20.4314 56.2415 19.8778C56.6465 19.3242 56.841 18.563 56.825 17.5944C56.8094 16.6492 56.5903 15.9184 56.1677 15.4018C55.7527 14.8774 55.1898 14.621 54.479 14.6327ZM65.5464 13.4188L55.0456 30.5161L53.37 30.5438L63.8592 13.4467L65.5464 13.4188ZM64.5857 30.4995C63.4296 30.5186 62.5015 30.151 61.8015 29.3968C61.1015 28.6426 60.741 27.6328 60.7202 26.3673C60.6972 24.9769 61.0463 23.8733 61.7673 23.0567C62.4882 22.2322 63.4579 21.8099 64.6765 21.7898C65.8638 21.7702 66.7957 22.1299 67.472 22.8688C68.1483 23.6078 68.4976 24.653 68.5199 26.0043C68.542 27.3401 68.1886 28.4203 67.4599 29.2449C66.7389 30.0616 65.7808 30.4798 64.5857 30.4995ZM64.628 23.115C63.8781 23.1273 63.2929 23.4105 62.8722 23.9643C62.4594 24.5181 62.261 25.2793 62.277 26.2479C62.2923 27.1775 62.5153 27.9044 62.9459 28.4286C63.3763 28.945 63.9548 29.1972 64.6812 29.1852C65.4155 29.1731 65.9851 28.8903 66.3901 28.3366C66.795 27.7752 66.9895 27.0141 66.9736 26.0533C66.9579 25.1003 66.7388 24.3694 66.3163 23.8607C65.9016 23.3518 65.3389 23.1033 64.628 23.115ZM90.3136 22.504L88.556 22.5329L84.5464 15.3442L84.4761 15.3453L80.975 22.6579L79.2526 22.6863L84.0361 12.8327L84.7978 12.8201L90.3136 22.504ZM106.708 23.5229C106.741 25.5148 106.345 27.0723 105.52 28.1955C104.694 29.3108 103.575 29.8801 102.161 29.9034C101.504 29.9142 100.964 29.8294 100.539 29.6489L100.507 27.7038C100.934 28.0015 101.483 28.1448 102.155 28.1337C103.928 28.1045 104.79 26.5862 104.74 23.5788L104.562 12.7756L106.531 12.7431L106.708 23.5229ZM133.016 29.383C132.571 29.3903 132.176 29.3343 131.83 29.215C131.492 29.1034 131.177 28.9406 130.884 28.7266C130.591 28.5049 130.306 28.2361 130.027 27.9203C129.756 27.6044 129.469 27.2458 129.165 26.8445C128.859 27.1856 128.501 27.5158 128.092 27.835C127.691 28.1542 127.242 28.439 126.746 28.6894C126.25 28.9398 125.707 29.1402 125.115 29.2905C124.524 29.4488 123.881 29.5336 123.186 29.5451C122.342 29.559 121.567 29.4663 120.861 29.2669C120.154 29.0676 119.547 28.769 119.041 28.371C118.534 27.9653 118.135 27.464 117.844 26.8671C117.561 26.2701 117.413 25.5811 117.4 24.7999C117.38 23.6048 117.703 22.5798 118.369 21.725C119.034 20.8623 119.984 20.1513 121.217 19.5918C120.98 19.4238 120.742 19.2285 120.504 19.0058C120.266 18.7753 120.05 18.5171 119.858 18.2312C119.674 17.9373 119.52 17.6156 119.397 17.266C119.282 16.9085 119.22 16.5188 119.213 16.097C119.203 15.4799 119.304 14.9313 119.515 14.4512C119.733 13.9709 120.035 13.5636 120.42 13.229C120.805 12.8945 121.262 12.6409 121.791 12.4681C122.319 12.2875 122.892 12.1921 123.509 12.1819C124.118 12.1718 124.674 12.2486 125.177 12.4122C125.687 12.5679 126.125 12.799 126.489 13.1055C126.862 13.4119 127.153 13.7822 127.363 14.2163C127.574 14.6504 127.683 15.1369 127.692 15.6759C127.708 16.6133 127.451 17.3989 126.922 18.0327C126.401 18.6585 125.609 19.199 124.546 19.6541C125.089 19.8561 125.581 20.1058 126.024 20.4033C126.466 20.7007 126.874 21.0339 127.247 21.4028C127.628 21.7715 127.983 22.1681 128.31 22.5924C128.637 23.0168 128.961 23.4568 129.281 23.9126C129.899 23.0194 130.36 22.039 130.663 20.9714C130.965 19.9038 131.107 18.788 131.088 17.6241C131.083 17.3273 131.059 17.0503 131.016 16.7931C130.98 16.5281 130.929 16.2672 130.862 16.0104L132.725 15.9797C132.792 16.2364 132.831 16.4819 132.843 16.7161C132.862 16.9424 132.882 17.2156 132.903 17.5356C132.915 18.2464 132.852 18.9624 132.716 19.6835C132.579 20.4046 132.392 21.107 132.153 21.7907C131.914 22.4666 131.632 23.112 131.306 23.7268C130.988 24.3415 130.649 24.9058 130.291 25.4196C130.57 25.79 130.826 26.114 131.057 26.3914C131.288 26.6611 131.518 26.8878 131.748 27.0715C131.985 27.2551 132.226 27.3918 132.469 27.4816C132.721 27.5634 133.003 27.6017 133.315 27.5966C133.549 27.5927 133.787 27.5575 134.028 27.491C134.269 27.4245 134.518 27.3423 134.774 27.2443L134.804 29.0253C134.524 29.1393 134.229 29.2262 133.917 29.2861C133.614 29.3458 133.313 29.3781 133.016 29.383ZM123.158 27.8812C123.752 27.8714 124.298 27.7999 124.796 27.6667C125.293 27.5257 125.751 27.3462 126.17 27.1283C126.588 26.9027 126.967 26.6464 127.306 26.3595C127.645 26.0648 127.952 25.7589 128.228 25.4418C127.739 24.7076 127.288 24.0822 126.873 23.5655C126.466 23.0409 126.052 22.5906 125.632 22.2147C125.219 21.8386 124.776 21.5177 124.303 21.2521C123.838 20.9863 123.298 20.7412 122.685 20.5169C122.196 20.7203 121.747 20.9465 121.337 21.1955C120.927 21.4367 120.572 21.7238 120.273 22.0569C119.981 22.3821 119.753 22.7609 119.588 23.1933C119.424 23.6258 119.346 24.1311 119.355 24.7091C119.364 25.2403 119.47 25.7074 119.672 26.1103C119.874 26.5133 120.145 26.8487 120.485 27.1166C120.833 27.3765 121.235 27.573 121.69 27.7062C122.146 27.8315 122.635 27.8898 123.158 27.8812ZM125.89 15.8697C125.884 15.4791 125.804 15.1484 125.651 14.8774C125.506 14.6063 125.319 14.3828 125.089 14.2069C124.868 14.0308 124.62 13.906 124.345 13.8324C124.07 13.751 123.8 13.7125 123.534 13.7168C122.769 13.7295 122.159 13.9466 121.705 14.3682C121.259 14.7897 121.037 15.3559 121.041 16.0669C121.047 16.3871 121.098 16.6871 121.197 16.9668C121.303 17.2463 121.444 17.5057 121.62 17.745C121.804 17.9842 122.014 18.1956 122.252 18.3792C122.489 18.5629 122.742 18.7189 123.009 18.8473C123.988 18.4874 124.716 18.0769 125.192 17.6158C125.669 17.147 125.902 16.5649 125.89 15.8697ZM150.105 12.7513C149.726 12.5466 149.299 12.4482 148.822 12.456C147.479 12.4782 146.821 13.3368 146.849 15.0319L146.879 16.8832L149.692 16.8368L149.719 18.4772L146.906 18.5236L147.077 28.8816L145.167 28.9131L144.997 18.5551L142.946 18.5889L142.919 16.9485L144.97 16.9147L144.937 14.9696C144.917 13.712 145.264 12.714 145.978 11.9755C146.692 11.2293 147.593 10.8472 148.678 10.8293C149.264 10.8196 149.73 10.8823 150.076 11.0172L150.105 12.7513Z" fill="#220B3A"/>
<path d="M8.22731 24.9591L149.904 22.6232L149.924 23.8183L8.24702 26.1542L8.22731 24.9591Z" fill="#220B3A"/>
</svg>
