<svg width="16" height="16" viewBox="0 0 16 16" fill="none" xmlns="http://www.w3.org/2000/svg">
<path d="M6.9975 0.384316C7.56767 -0.128106 8.43233 -0.128105 9.0025 0.384317L14.5025 5.32728C14.8191 5.61186 15 6.0176 15 6.4434V13.4996C15 14.3282 14.3284 15 13.5 15H2.5C1.67157 15 1 14.3282 1 13.4996V6.4434C1 6.0176 1.18086 5.61186 1.4975 5.32728L6.9975 0.384316ZM11.3536 6.85114C11.5488 6.65582 11.5488 6.33915 11.3536 6.14383C11.1583 5.94851 10.8417 5.94851 10.6464 6.14383L7 9.79133L5.35355 8.14441C5.15829 7.94909 4.84171 7.94909 4.64645 8.14441C4.45118 8.33972 4.45118 8.6564 4.64645 8.85172L6.64645 10.8523C6.84171 11.0476 7.15829 11.0476 7.35355 10.8523L11.3536 6.85114Z" fill="white"/>
</svg>
