<svg width="136" height="77" viewBox="0 0 136 77" fill="none" xmlns="http://www.w3.org/2000/svg">
<path d="M97.496 1.86279V5.5886" stroke="#CEBAE4" stroke-width="1.55242" stroke-linecap="round" stroke-linejoin="round"/>
<path d="M97.496 10.5562V14.282" stroke="#CEBAE4" stroke-width="1.55242" stroke-linecap="round" stroke-linejoin="round"/>
<path d="M91.2864 8.07233H95.0122" stroke="#CEBAE4" stroke-width="1.55242" stroke-linecap="round" stroke-linejoin="round"/>
<path d="M99.98 8.07233H103.706" stroke="#CEBAE4" stroke-width="1.55242" stroke-linecap="round" stroke-linejoin="round"/>
<path d="M45.9553 65.8223V68.3061" stroke="#CEBAE4" stroke-width="1.55242" stroke-linecap="round" stroke-linejoin="round"/>
<path d="M45.9553 73.2739V75.7578" stroke="#CEBAE4" stroke-width="1.55242" stroke-linecap="round" stroke-linejoin="round"/>
<path d="M40.9875 70.7901H43.4714" stroke="#CEBAE4" stroke-width="1.55242" stroke-linecap="round" stroke-linejoin="round"/>
<path d="M48.4392 70.7901H50.9231" stroke="#CEBAE4" stroke-width="1.55242" stroke-linecap="round" stroke-linejoin="round"/>
<path fill-rule="evenodd" clip-rule="evenodd" d="M87.9968 53.5673C88.7755 52.6136 89.4755 51.6163 90.0966 50.584C91.4627 48.3138 92.4474 45.8747 93.0492 43.36C93.6579 40.8167 93.8749 38.1961 93.6987 35.5946C93.5451 33.3245 93.092 31.069 92.3386 28.892C91.5912 26.7323 90.5481 24.6499 89.2085 22.7075C88.4102 21.55 87.5066 20.4422 86.4974 19.3974C85.0158 17.8633 83.3907 16.5518 81.664 15.4637C79.8088 14.2946 77.8362 13.3834 75.7982 12.731C73.246 11.914 70.5913 11.503 67.9361 11.5C65.8703 11.4977 63.8042 11.7424 61.786 12.2349C59.5138 12.7895 57.3023 13.6582 55.22 14.8425C53.3895 15.8836 51.659 17.1684 50.0748 18.698C48.0841 20.6202 46.4715 22.7871 45.2386 25.1061C44.0316 27.3765 43.1885 29.7927 42.7106 32.2679C42.2183 34.8181 42.1137 37.431 42.3984 40.0116C42.7673 43.3564 43.7901 46.647 45.47 49.6768C46.5449 51.6155 47.8888 53.4474 49.5027 55.1184C52.0647 57.7711 55.0558 59.7583 58.2594 61.0758C62.1552 62.6779 66.3653 63.2897 70.5001 62.9037C73.9703 62.5797 77.3874 61.5527 80.5212 59.8185" fill="white"/>
<path d="M87.9968 53.5673C88.7755 52.6136 89.4755 51.6163 90.0966 50.584C91.4627 48.3138 92.4474 45.8747 93.0492 43.36C93.6579 40.8167 93.8749 38.1961 93.6987 35.5946C93.5451 33.3245 93.092 31.069 92.3386 28.892C91.5912 26.7323 90.5481 24.6499 89.2085 22.7075C88.4102 21.55 87.5066 20.4422 86.4974 19.3974C85.0158 17.8633 83.3907 16.5518 81.664 15.4637C79.8088 14.2946 77.8362 13.3834 75.7982 12.731C73.246 11.914 70.5913 11.503 67.9361 11.5C65.8703 11.4977 63.8042 11.7424 61.786 12.2349C59.5138 12.7895 57.3023 13.6582 55.22 14.8425C53.3895 15.8836 51.659 17.1684 50.0748 18.698C48.0841 20.6202 46.4715 22.7871 45.2386 25.1061C44.0316 27.3765 43.1885 29.7927 42.7106 32.2679C42.2183 34.8181 42.1137 37.431 42.3984 40.0116C42.7673 43.3564 43.7901 46.647 45.47 49.6768C46.5449 51.6155 47.8888 53.4474 49.5027 55.1184C52.0647 57.7711 55.0558 59.7583 58.2594 61.0758C62.1552 62.6779 66.3653 63.2897 70.5001 62.9037C73.9703 62.5797 77.3874 61.5527 80.5212 59.8185" stroke="#6020A7" stroke-width="1.39988" stroke-linecap="round" stroke-linejoin="round"/>
<path fill-rule="evenodd" clip-rule="evenodd" d="M82.3913 58.7485C84.0186 57.7013 85.4654 56.3948 86.4066 55.3401L82.3913 58.7485Z" fill="white"/>
<path d="M82.3913 58.7485C84.0186 57.7013 85.4654 56.3948 86.4066 55.3401" stroke="#6020A7" stroke-width="1.39988" stroke-linecap="round"/>
<path d="M91.5178 38.7232C91.3576 38.726 91.1971 38.7275 91.0363 38.7275C76.8954 38.7275 65.3168 27.7029 64.3466 13.7397C53.0911 15.5151 44.4817 25.3042 44.4817 37.1141C44.4817 50.1822 55.0231 60.7759 68.0265 60.7759C80.4919 60.7759 90.6947 51.0408 91.5178 38.7232Z" fill="#F6EFFF"/>
<path fill-rule="evenodd" clip-rule="evenodd" d="M59.0541 36.3467C58.3691 35.7142 57.3065 35.7627 56.6808 36.4552C56.0551 37.1476 56.1031 38.2217 56.7881 38.8543L64.6941 46.1549C65.6531 47.0405 67.1406 46.9725 68.0166 46.003C68.0533 45.9619 68.0533 45.9619 68.0886 45.9196L79.3711 32.2023C79.9642 31.4812 79.8667 30.4105 79.1534 29.8109C78.44 29.2113 77.3808 29.3098 76.7877 30.031L66.1804 42.9274L59.0541 36.3467Z" fill="white" stroke="#6020A7" stroke-width="1.39988" stroke-linecap="round"/>
<path fill-rule="evenodd" clip-rule="evenodd" d="M60.0612 16.2114C58.9692 16.6211 57.9025 17.1189 56.872 17.7051C55.2706 18.6159 53.7566 19.7401 52.3708 21.0784C51.8027 21.627 51.2698 22.1984 50.7722 22.7897M49.2323 24.8486C48.8366 25.4466 48.4725 26.0596 48.1399 26.6852C47.8943 27.1473 47.6659 27.6162 47.4547 28.0911" fill="white"/>
<path d="M60.307 16.8668C60.669 16.731 60.8523 16.3275 60.7165 15.9656C60.5807 15.6036 60.1772 15.4203 59.8153 15.5561L60.307 16.8668ZM56.872 17.7051L57.218 18.3135L56.872 17.7051ZM52.3708 21.0784L51.8846 20.5749L52.3708 21.0784ZM50.2366 22.339C49.9877 22.6348 50.0257 23.0764 50.3215 23.3253C50.6173 23.5742 51.0588 23.5362 51.3077 23.2404L50.2366 22.339ZM49.816 25.2349C50.0294 24.9125 49.941 24.4783 49.6186 24.2649C49.2962 24.0516 48.862 24.14 48.6486 24.4624L49.816 25.2349ZM48.1399 26.6852L48.758 27.0137L48.1399 26.6852ZM46.8152 27.8068C46.6581 28.16 46.8171 28.5737 47.1704 28.7307C47.5236 28.8878 47.9373 28.7287 48.0943 28.3755L46.8152 27.8068ZM59.8153 15.5561C58.689 15.9786 57.5888 16.4921 56.5259 17.0967L57.218 18.3135C58.2161 17.7458 59.2493 17.2636 60.307 16.8668L59.8153 15.5561ZM56.5259 17.0967C54.8741 18.0363 53.3129 19.1956 51.8846 20.5749L52.857 21.5819C54.2003 20.2847 55.6672 19.1956 57.218 18.3135L56.5259 17.0967ZM51.8846 20.5749C51.2991 21.1403 50.7498 21.7293 50.2366 22.339L51.3077 23.2404C51.7899 22.6675 52.3063 22.1138 52.857 21.5819L51.8846 20.5749ZM48.6486 24.4624C48.2405 25.0791 47.8649 25.7113 47.5219 26.3566L48.758 27.0137C49.0801 26.4078 49.4328 25.8141 49.816 25.2349L48.6486 24.4624ZM47.5219 26.3566C47.2685 26.8332 47.0329 27.3169 46.8152 27.8068L48.0943 28.3755C48.2988 27.9155 48.5201 27.4613 48.758 27.0137L47.5219 26.3566Z" fill="#CEBAE4"/>
</svg>
