<svg width="1200" height="80" viewBox="0 0 1200 80" fill="none" xmlns="http://www.w3.org/2000/svg">
<path d="M5 14C5 10.134 8.13401 7 12 7C13.32 7 14.5542 7.36484 15.608 8H15C14.4477 8 14 8.44772 14 9C14 9.55228 14.4477 10 15 10H18C18.5523 10 19 9.55228 19 9C19 8 19 7 19 6C19 5.44772 18.5523 5 18 5C17.4477 5 17 5.44772 17 6V6.51575C15.5702 5.5588 13.85 5 12 5C7.02944 5 3 9.02944 3 14C3 18.9706 7.02944 23 12 23C16.9706 23 21 18.9706 21 14C21 13.6199 20.9764 13.2448 20.9304 12.8763C20.8621 12.3282 20.3624 11.9393 19.8144 12.0077C19.2663 12.076 18.8775 12.5757 18.9458 13.1237C18.9815 13.4104 19 13.7028 19 14C19 17.866 15.866 21 12 21C8.13401 21 5 17.866 5 14Z" fill="#2B2B2B"/>
<path d="M49.9044 14.6247L49.9034 14.6282C49.8324 14.8948 49.5587 15.054 49.2919 14.9833C48.8609 14.8691 48.9368 14.3719 48.9368 14.3719L48.9545 14.3105C48.9545 14.3105 48.9806 14.2264 49.0016 14.1653C49.0436 14.0433 49.1079 13.8727 49.1992 13.6698C49.3815 13.2649 49.6744 12.7248 50.1187 12.1829C51.0162 11.0885 52.525 10 54.9201 10C57.3152 10 58.824 11.0885 59.7215 12.1829C60.1658 12.7248 60.4587 13.2649 60.6409 13.6698C60.7323 13.8727 60.7966 14.0433 60.8386 14.1653C60.8596 14.2264 60.8751 14.2754 60.8857 14.3105C60.891 14.328 60.8951 14.342 60.898 14.3524L60.9015 14.365L60.9027 14.3692L60.9031 14.3707L60.9034 14.3719C60.9742 14.6388 60.8152 14.9125 60.5482 14.9833C60.2817 15.054 60.0084 14.8956 59.9371 14.6294L59.9368 14.6282L59.9358 14.6247L59.9285 14.5997C59.9213 14.5762 59.9097 14.5393 59.8931 14.491C59.8598 14.3942 59.8065 14.2523 59.7291 14.0802C59.5737 13.7351 59.324 13.2752 58.9482 12.8171C58.2056 11.9115 56.9644 11 54.9201 11C52.8758 11 51.6346 11.9115 50.8919 12.8171C50.5162 13.2752 50.2665 13.7351 50.1111 14.0802C50.0337 14.2523 49.9804 14.3942 49.9471 14.491C49.9304 14.5393 49.9188 14.5762 49.9117 14.5997L49.9044 14.6247ZM52.4202 15.5C52.4202 14.1193 53.5395 13 54.9202 13C56.3009 13 57.4202 14.1193 57.4202 15.5C57.4202 16.8807 56.3009 18 54.9202 18C53.5395 18 52.4202 16.8807 52.4202 15.5Z" fill="#242424"/>
<path d="M95.9594 16.8267L99.9863 20.8536C100.182 21.0488 100.498 21.0488 100.693 20.8536C100.889 20.6583 100.889 20.3417 100.693 20.1464L87.6934 7.14645C87.4981 6.95118 87.1816 6.95118 86.9863 7.14645C86.791 7.34171 86.791 7.65829 86.9863 7.85355L90.2161 11.0833C89.741 11.4183 89.3524 11.8003 89.0386 12.1829C88.5943 12.7248 88.3014 13.2649 88.1192 13.6698C88.0278 13.8727 87.9635 14.0433 87.9215 14.1653C87.9005 14.2264 87.8744 14.3105 87.8744 14.3105L87.8567 14.3719C87.8567 14.3719 87.7808 14.8691 88.2119 14.9833C88.4786 15.054 88.7523 14.8948 88.8233 14.6282L88.8243 14.6247L88.8316 14.5997C88.8387 14.5762 88.8504 14.5393 88.867 14.491C88.9003 14.3942 88.9536 14.2523 89.031 14.0802C89.1864 13.7351 89.4361 13.2752 89.8119 12.8171C90.1035 12.4615 90.472 12.1049 90.9358 11.8031L92.5134 13.3807C91.8086 13.8228 91.3401 14.6067 91.3401 15.5C91.3401 16.8807 92.4594 18 93.8401 18C94.7334 18 95.5173 17.5314 95.9594 16.8267ZM92.1595 10.1985L93.0138 11.0529C93.2735 11.0185 93.5486 11 93.84 11C95.8843 11 97.1255 11.9115 97.8682 12.8171C98.2439 13.2752 98.4936 13.7351 98.649 14.0802C98.7264 14.2523 98.7797 14.3942 98.813 14.491C98.8297 14.5393 98.8413 14.5762 98.8484 14.5997L98.8557 14.6247L98.8567 14.6282L98.857 14.6294C98.9283 14.8956 99.2016 15.054 99.4682 14.9833C99.7351 14.9125 99.8941 14.6388 99.8233 14.3719L99.823 14.3707L99.8226 14.3692L99.8215 14.365L99.8179 14.3524C99.815 14.342 99.8109 14.328 99.8056 14.3105C99.7951 14.2754 99.7795 14.2264 99.7585 14.1653C99.7165 14.0433 99.6522 13.8727 99.5609 13.6698C99.3786 13.2649 99.0857 12.7248 98.6414 12.1829C97.7439 11.0885 96.2351 10 93.84 10C93.2225 10 92.6639 10.0724 92.1595 10.1985Z" fill="#242424"/>
<g clip-path="url(#clip0_1124_231)">
<path d="M132.656 9.32289C133.424 8.55513 134.669 8.55513 135.437 9.3229C136.204 10.0907 136.205 11.3355 135.437 12.1032L134.853 12.6873L132.072 9.90702L132.656 9.32289ZM131.542 10.4373L126.753 15.2266C126.472 15.5072 126.272 15.8581 126.173 16.2425L125.522 18.7816C125.489 18.91 125.526 19.0463 125.62 19.14C125.713 19.2338 125.85 19.271 125.978 19.2381L128.517 18.5864C128.902 18.4877 129.252 18.2876 129.533 18.0069L134.322 13.2177L131.542 10.4373Z" fill="#6020A7"/>
</g>
<path d="M177.387 18.59L172.807 14L177.387 9.41L175.977 8L169.977 14L175.977 20L177.387 18.59Z" fill="#424242"/>
<path d="M220.896 18.59L225.476 14L220.896 9.41L222.306 8L228.306 14L222.306 20L220.896 18.59Z" fill="#424242"/>
<path d="M270.319 17.8998L266.119 13.6998L264.719 15.0998L270.319 20.6998L282.319 8.6998L280.919 7.2998L270.319 17.8998Z" fill="#4CAF50"/>
<path d="M327.44 8.41L326.03 7L320.44 12.59L314.85 7L313.44 8.41L319.03 14L313.44 19.59L314.85 21L320.44 15.41L326.03 21L327.44 19.59L321.85 14L327.44 8.41Z" fill="#F44336"/>
<g clip-path="url(#clip1_1124_231)">
<path d="M365.348 3.99609C366.795 3.99609 368.148 4.40297 369.296 5.11058C368.954 5.47585 368.689 5.91431 368.529 6.39985C367.606 5.82617 366.516 5.49569 365.348 5.49569C362.023 5.49569 359.34 8.16922 359.34 11.4941V15.9025L357.994 18.9958H372.711L371.356 15.9035L371.356 11.5069L371.352 11.2818C371.349 11.1734 371.342 11.0659 371.333 10.9591C371.504 10.9847 371.679 10.998 371.857 10.998C372.195 10.998 372.522 10.9502 372.831 10.861C372.842 10.9875 372.85 11.1149 372.854 11.2432L372.858 11.4941V15.5899L374.24 18.7451C374.309 18.903 374.345 19.0734 374.345 19.2457C374.345 19.9359 373.784 20.4954 373.093 20.4954L368.352 20.4969C368.352 22.1533 367.007 23.4961 365.348 23.4961C363.748 23.4961 362.44 22.2475 362.349 20.6731L362.343 20.4946L357.612 20.4954C357.441 20.4954 357.271 20.4602 357.114 20.392C356.48 20.117 356.189 19.3809 356.464 18.7479L357.838 15.5909V11.494C357.838 7.34029 361.194 3.99609 365.348 3.99609ZM366.85 20.4946L363.846 20.4969C363.846 21.3251 364.518 21.9965 365.348 21.9965C366.129 21.9965 366.77 21.4018 366.843 20.6413L366.85 20.4946ZM369.393 7.05266C369.489 6.52552 369.749 6.05584 370.12 5.6992C370.57 5.26601 371.182 4.99961 371.857 4.99961C373.24 4.99961 374.36 6.11859 374.36 7.49893C374.36 8.59182 373.658 9.52087 372.679 9.86042C372.421 9.94973 372.145 9.99826 371.857 9.99826C371.609 9.99826 371.369 9.96214 371.142 9.89488C370.108 9.58775 369.354 8.63128 369.354 7.49893C369.354 7.34661 369.367 7.19746 369.393 7.05266Z" fill="#6020A7"/>
</g>
<g clip-path="url(#clip2_1124_231)">
<path d="M408.281 22.3334C412.883 22.3334 416.614 18.6025 416.614 14.0001C416.614 9.39771 412.883 5.66675 408.281 5.66675C403.678 5.66675 399.947 9.39771 399.947 14.0001C399.947 18.6025 403.678 22.3334 408.281 22.3334Z" stroke="#FF3B30" stroke-width="2" stroke-linecap="round" stroke-linejoin="round"/>
<path d="M408.28 17.3333V14" stroke="#FF3B30" stroke-width="2" stroke-linecap="round" stroke-linejoin="round"/>
<path d="M408.28 10.6667H408.289" stroke="#FF3B30" stroke-width="2" stroke-linecap="round" stroke-linejoin="round"/>
</g>
<g clip-path="url(#clip3_1124_231)">
<path d="M459.534 13.2333V14C459.533 15.797 458.951 17.5455 457.875 18.9848C456.799 20.4241 455.287 21.477 453.563 21.9866C451.84 22.4961 449.998 22.4349 448.313 21.8121C446.627 21.1894 445.188 20.0384 444.21 18.5309C443.232 17.0233 442.767 15.24 442.885 13.4469C443.003 11.6538 443.698 9.94691 444.866 8.58086C446.033 7.21482 447.611 6.26279 449.364 5.86676C451.117 5.47073 452.951 5.65192 454.592 6.3833" stroke="#439F6E" stroke-width="2" stroke-linecap="round" stroke-linejoin="round"/>
<path d="M459.534 7.33325L451.2 15.6749L448.7 13.1749" stroke="#439F6E" stroke-width="2" stroke-linecap="round" stroke-linejoin="round"/>
</g>
<g clip-path="url(#clip4_1124_231)">
<path d="M492.695 7.21659L485.636 18.9999C485.491 19.2519 485.414 19.5377 485.413 19.8287C485.412 20.1197 485.488 20.4059 485.632 20.6587C485.776 20.9115 485.984 21.1222 486.235 21.2698C486.485 21.4174 486.77 21.4967 487.061 21.4999H501.178C501.469 21.4967 501.754 21.4174 502.005 21.2698C502.256 21.1222 502.464 20.9115 502.608 20.6587C502.752 20.4059 502.827 20.1197 502.826 19.8287C502.826 19.5377 502.749 19.2519 502.603 18.9999L495.545 7.21659C495.396 6.97168 495.187 6.76919 494.937 6.62866C494.688 6.48813 494.406 6.41431 494.12 6.41431C493.833 6.41431 493.552 6.48813 493.302 6.62866C493.053 6.76919 492.843 6.97168 492.695 7.21659V7.21659Z" stroke="#FCB900" stroke-width="2" stroke-linecap="round" stroke-linejoin="round"/>
<path d="M494.12 11.5V14.8333" stroke="#FCB900" stroke-width="2" stroke-linecap="round" stroke-linejoin="round"/>
<path d="M494.12 18.1667H494.128" stroke="#FCB900" stroke-width="2" stroke-linecap="round" stroke-linejoin="round"/>
</g>
<path d="M535.04 6.49927C539.183 6.49927 542.541 9.85765 542.541 14.0004C542.541 18.1432 539.183 21.5016 535.04 21.5016C530.897 21.5016 527.539 18.1432 527.539 14.0004C527.539 9.85765 530.897 6.49927 535.04 6.49927ZM535.037 12.6872C534.653 12.6875 534.336 12.9772 534.293 13.3502L534.288 13.4377L534.291 17.5639L534.296 17.6514C534.339 18.0243 534.656 18.3137 535.041 18.3134C535.426 18.3131 535.742 18.0234 535.786 17.6504L535.791 17.5629L535.788 13.4367L535.783 13.3493C535.739 12.9763 535.422 12.687 535.037 12.6872ZM535.041 9.87504C534.522 9.87504 534.102 10.2953 534.102 10.8137C534.102 11.3321 534.522 11.7523 535.041 11.7523C535.559 11.7523 535.979 11.3321 535.979 10.8137C535.979 10.2953 535.559 9.87504 535.041 9.87504Z" fill="#969696"/>
<path d="M573.96 6.49927C578.103 6.49927 581.461 9.85765 581.461 14.0004C581.461 18.1432 578.103 21.5016 573.96 21.5016C569.817 21.5016 566.459 18.1432 566.459 14.0004C566.459 9.85765 569.817 6.49927 573.96 6.49927ZM573.957 12.6872C573.573 12.6875 573.256 12.9772 573.213 13.3502L573.208 13.4377L573.21 17.5639L573.216 17.6514C573.259 18.0243 573.576 18.3137 573.961 18.3134C574.346 18.3131 574.662 18.0234 574.705 17.6504L574.71 17.5629L574.708 13.4367L574.703 13.3493C574.659 12.9763 574.342 12.687 573.957 12.6872ZM573.96 9.87504C573.442 9.87504 573.022 10.2953 573.022 10.8137C573.022 11.3321 573.442 11.7523 573.96 11.7523C574.479 11.7523 574.899 11.3321 574.899 10.8137C574.899 10.2953 574.479 9.87504 573.96 9.87504Z" fill="#3A1364"/>
<path d="M612.88 6.49927C617.023 6.49927 620.381 9.85765 620.381 14.0004C620.381 18.1432 617.023 21.5016 612.88 21.5016C608.737 21.5016 605.379 18.1432 605.379 14.0004C605.379 9.85765 608.737 6.49927 612.88 6.49927ZM612.877 12.6872C612.493 12.6875 612.176 12.9772 612.133 13.3502L612.128 13.4377L612.13 17.5639L612.136 17.6514C612.179 18.0243 612.496 18.3137 612.881 18.3134C613.266 18.3131 613.582 18.0234 613.625 17.6504L613.63 17.5629L613.628 13.4367L613.623 13.3493C613.579 12.9763 613.262 12.687 612.877 12.6872ZM612.88 9.87504C612.362 9.87504 611.942 10.2953 611.942 10.8137C611.942 11.3321 612.362 11.7523 612.88 11.7523C613.399 11.7523 613.819 11.3321 613.819 10.8137C613.819 10.2953 613.399 9.87504 612.88 9.87504Z" fill="#48187D"/>
<path fill-rule="evenodd" clip-rule="evenodd" d="M655.507 9.70711C655.897 9.31658 655.897 8.68342 655.507 8.29289C655.116 7.90237 654.483 7.90237 654.093 8.29289L649.8 12.5858L645.507 8.29289C645.116 7.90237 644.483 7.90237 644.093 8.29289C643.702 8.68342 643.702 9.31658 644.093 9.70711L648.386 14L644.093 18.2929C643.702 18.6834 643.702 19.3166 644.093 19.7071C644.483 20.0976 645.116 20.0976 645.507 19.7071L649.8 15.4142L654.093 19.7071C654.483 20.0976 655.116 20.0976 655.507 19.7071C655.897 19.3166 655.897 18.6834 655.507 18.2929L651.214 14L655.507 9.70711Z" fill="#160829"/>
<path d="M689.136 15.8791H688.478L688.245 15.6541C689.061 14.7041 689.553 13.4707 689.553 12.1291C689.553 9.1374 687.128 6.7124 684.136 6.7124C681.145 6.7124 678.72 9.1374 678.72 12.1291C678.72 15.1207 681.145 17.5457 684.136 17.5457C685.478 17.5457 686.711 17.0541 687.661 16.2374L687.886 16.4707V17.1291L692.053 21.2874L693.295 20.0457L689.136 15.8791ZM684.136 15.8791C682.061 15.8791 680.386 14.2041 680.386 12.1291C680.386 10.0541 682.061 8.37907 684.136 8.37907C686.211 8.37907 687.886 10.0541 687.886 12.1291C687.886 14.2041 686.211 15.8791 684.136 15.8791Z" fill="#969696"/>
<path d="M722.215 20H719.548C719.195 20 718.855 19.8595 718.605 19.6095C718.355 19.3594 718.215 19.0203 718.215 18.6667V9.33333C718.215 8.97971 718.355 8.64057 718.605 8.39052C718.855 8.14048 719.195 8 719.548 8H722.215M726.882 17.3333L730.215 14M730.215 14L726.882 10.6667M730.215 14H722.215" stroke="#FF3B30" stroke-width="1.6" stroke-linecap="round" stroke-linejoin="round"/>
<path d="M763.135 7.72876C760.538 7.72876 758.432 9.83456 758.432 12.4322V14.9421L757.424 17.4643C757.36 17.6253 757.379 17.8077 757.477 17.9513C757.574 18.0948 757.736 18.1808 757.909 18.1808H768.361C768.535 18.1808 768.697 18.0948 768.794 17.9513C768.891 17.8077 768.911 17.6253 768.847 17.4643L767.839 14.9421V12.9548C766.396 12.9548 765.226 11.7849 765.226 10.3418C765.226 9.67852 765.473 9.07299 765.88 8.61221C765.108 8.05624 764.16 7.72876 763.135 7.72876ZM763.135 20.7938C762.161 20.7938 761.343 20.1276 761.111 19.226H765.16C764.928 20.1276 764.109 20.7938 763.135 20.7938ZM767.839 11.9096C768.705 11.9096 769.407 11.2077 769.407 10.3418C769.407 9.4759 768.705 8.77397 767.839 8.77397C766.973 8.77397 766.271 9.4759 766.271 10.3418C766.271 11.2077 766.973 11.9096 767.839 11.9096Z" fill="#6020A7"/>
<path d="M802.055 7.72876C799.458 7.72876 797.352 9.83456 797.352 12.4322V14.9421L796.344 17.4643C796.28 17.6253 796.299 17.8077 796.397 17.9513C796.494 18.0948 796.656 18.1808 796.829 18.1808H807.281C807.455 18.1808 807.617 18.0948 807.714 17.9513C807.811 17.8077 807.831 17.6253 807.767 17.4643L806.759 14.9421V12.9548C805.316 12.9548 804.146 11.7849 804.146 10.3418C804.146 9.67852 804.393 9.07299 804.8 8.61221C804.028 8.05624 803.08 7.72876 802.055 7.72876ZM802.055 20.7938C801.081 20.7938 800.263 20.1276 800.031 19.226H804.08C803.848 20.1276 803.029 20.7938 802.055 20.7938ZM806.759 11.9096C807.625 11.9096 808.327 11.2077 808.327 10.3418C808.327 9.4759 807.625 8.77397 806.759 8.77397C805.893 8.77397 805.191 9.4759 805.191 10.3418C805.191 11.2077 805.893 11.9096 806.759 11.9096Z" fill="white"/>
<path d="M846.308 20V18.6667C846.308 17.9594 846.027 17.2811 845.527 16.781C845.027 16.281 844.349 16 843.642 16H838.308C837.601 16 836.923 16.281 836.423 16.781C835.923 17.2811 835.642 17.9594 835.642 18.6667V20M843.642 10.6667C843.642 12.1394 842.448 13.3333 840.975 13.3333C839.502 13.3333 838.308 12.1394 838.308 10.6667C838.308 9.19391 839.502 8 840.975 8C842.448 8 843.642 9.19391 843.642 10.6667Z" stroke="#2B2B2B" stroke-width="1.6" stroke-linecap="round" stroke-linejoin="round"/>
<path d="M876.561 13.3333V10.6666C876.561 9.78253 876.912 8.93468 877.538 8.30956C878.163 7.68444 879.01 7.33325 879.895 7.33325C880.779 7.33325 881.626 7.68444 882.252 8.30956C882.877 8.93468 883.228 9.78253 883.228 10.6666V13.3333M875.228 13.3333H884.561C885.298 13.3333 885.895 13.9302 885.895 14.6666V19.3333C885.895 20.0696 885.298 20.6666 884.561 20.6666H875.228C874.491 20.6666 873.895 20.0696 873.895 19.3333V14.6666C873.895 13.9302 874.491 13.3333 875.228 13.3333Z" stroke="#2B2B2B" stroke-width="1.6" stroke-linecap="round" stroke-linejoin="round"/>
<path d="M912.814 12H924.814M916.814 20V12M914.148 8H923.481C924.217 8 924.814 8.59695 924.814 9.33333V18.6667C924.814 19.403 924.217 20 923.481 20H914.148C913.411 20 912.814 19.403 912.814 18.6667V9.33333C912.814 8.59695 913.411 8 914.148 8Z" stroke="#220B3A" stroke-width="1.6" stroke-linecap="round" stroke-linejoin="round"/>
<path d="M960.401 20V18.6667C960.401 17.9594 960.12 17.2811 959.62 16.781C959.12 16.281 958.442 16 957.734 16H952.401C951.694 16 951.016 16.281 950.515 16.781C950.015 17.2811 949.734 17.9594 949.734 18.6667V20M957.734 10.6667C957.734 12.1394 956.54 13.3333 955.068 13.3333C953.595 13.3333 952.401 12.1394 952.401 10.6667C952.401 9.19391 953.595 8 955.068 8C956.54 8 957.734 9.19391 957.734 10.6667Z" stroke="#6020A7" stroke-width="1.6" stroke-linecap="round" stroke-linejoin="round"/>
<path d="M987.988 13.3333V10.6666C987.988 9.78253 988.339 8.93468 988.964 8.30956C989.589 7.68444 990.437 7.33325 991.321 7.33325C992.205 7.33325 993.053 7.68444 993.678 8.30956C994.303 8.93468 994.655 9.78253 994.655 10.6666V13.3333M986.655 13.3333H995.988C996.724 13.3333 997.321 13.9302 997.321 14.6666V19.3333C997.321 20.0696 996.724 20.6666 995.988 20.6666H986.655C985.918 20.6666 985.321 20.0696 985.321 19.3333V14.6666C985.321 13.9302 985.918 13.3333 986.655 13.3333Z" stroke="#6020A7" stroke-width="1.6" stroke-linecap="round" stroke-linejoin="round"/>
<path d="M1031.41 9.83342H1029.74V13.1667H1026.41V14.8334H1029.74V18.1667H1031.41V14.8334H1034.74V13.1667H1031.41V9.83342ZM1030.57 5.66675C1025.97 5.66675 1022.24 9.40008 1022.24 14.0001C1022.24 18.6001 1025.97 22.3334 1030.57 22.3334C1035.17 22.3334 1038.91 18.6001 1038.91 14.0001C1038.91 9.40008 1035.17 5.66675 1030.57 5.66675ZM1030.57 20.6667C1026.9 20.6667 1023.91 17.6751 1023.91 14.0001C1023.91 10.3251 1026.9 7.33341 1030.57 7.33341C1034.25 7.33341 1037.24 10.3251 1037.24 14.0001C1037.24 17.6751 1034.25 20.6667 1030.57 20.6667Z" fill="white"/>
<path d="M1073.49 16.4999V18.9999H1063.49V16.4999H1061.83V18.9999C1061.83 19.9166 1062.58 20.6666 1063.49 20.6666H1073.49C1074.41 20.6666 1075.16 19.9166 1075.16 18.9999V16.4999H1073.49ZM1064.33 11.4999L1065.5 12.6749L1067.66 10.5249V17.3333H1069.33V10.5249L1071.49 12.6749L1072.66 11.4999L1068.49 7.33325L1064.33 11.4999Z" fill="#6020A7"/>
<path d="M1106.08 6C1110.5 6 1114.08 9.58172 1114.08 14C1114.08 18.4183 1110.5 22 1106.08 22C1101.66 22 1098.08 18.4183 1098.08 14C1098.08 9.58172 1101.66 6 1106.08 6ZM1109.44 11.6464C1109.27 11.4729 1109 11.4536 1108.8 11.5886L1108.73 11.6464L1105.08 15.298L1103.43 13.6513L1103.37 13.5935C1103.17 13.4585 1102.9 13.4777 1102.73 13.6513C1102.55 13.8249 1102.53 14.0943 1102.67 14.2892L1102.73 14.3584L1104.73 16.3584L1104.8 16.4163C1104.97 16.5344 1105.19 16.5344 1105.37 16.4163L1105.43 16.3584L1109.44 12.3536L1109.5 12.2843C1109.63 12.0894 1109.61 11.82 1109.44 11.6464Z" fill="#6020A7"/>
<path d="M1147.3 18.59L1151.88 14L1147.3 9.41L1148.71 8L1154.71 14L1148.71 20L1147.3 18.59Z" fill="#6020A7"/>
<path d="M13.3337 69.3333H5.22033L8.94699 65.6066L8.00033 64.6666L2.66699 70L8.00033 75.3333L8.94033 74.3933L5.22033 70.6666H13.3337V69.3333Z" fill="#6020A7"/>
<path d="M41.5863 70.6667L49.6996 70.6667L45.9729 74.3934L46.9196 75.3334L52.2529 70L46.9196 64.6667L45.9796 65.6067L49.6996 69.3334L41.5863 69.3334L41.5863 70.6667Z" fill="white"/>
<path d="M80.8398 63.5C80.8398 63.2239 81.0637 63 81.3398 63H81.8398C82.9444 63 83.8398 63.8954 83.8398 65V75C83.8398 76.1046 82.9444 77 81.8398 77H81.3398C81.0637 77 80.8398 76.7761 80.8398 76.5C80.8398 76.2239 81.0637 76 81.3398 76H81.8398C82.3921 76 82.8398 75.5523 82.8398 75V65C82.8398 64.4477 82.3921 64 81.8398 64H81.3398C81.0637 64 80.8398 63.7761 80.8398 63.5ZM86.8398 64C86.2876 64 85.8398 64.4477 85.8398 65V75C85.8398 75.5523 86.2876 76 86.8398 76H87.3145C87.2989 76.0513 87.2845 76.1031 87.2715 76.1554L87.0603 77H86.8398C85.7353 77 84.8398 76.1046 84.8398 75V65C84.8398 63.8954 85.7353 63 86.8398 63H88.8398C89.9444 63 90.8398 63.8954 90.8398 65V71.9427L89.8398 72.9427V65C89.8398 64.4477 89.3921 64 88.8398 64H86.8398ZM92.8398 65V69.9427L91.8398 70.9427V65C91.8398 63.8954 92.7353 63 93.8398 63H94.3398C94.616 63 94.8398 63.2239 94.8398 63.5C94.8398 63.7761 94.616 64 94.3398 64H93.8398C93.2876 64 92.8398 64.4477 92.8398 65ZM88.8196 75.3772L93.649 70.5478C94.3794 69.8174 95.5635 69.8174 96.2938 70.5478C97.0242 71.2781 97.0242 72.4622 96.2938 73.1926L91.4644 78.022C91.1828 78.3036 90.83 78.5033 90.4437 78.5999L88.9458 78.9744C88.2944 79.1372 87.7044 78.5472 87.8672 77.8958L88.2417 76.3979C88.3383 76.0116 88.538 75.6588 88.8196 75.3772Z" fill="#220B3A"/>
<path d="M130.01 73.5C130.424 73.5 130.76 73.8358 130.76 74.25C130.76 74.6642 130.424 75 130.01 75H125.51C125.096 75 124.76 74.6642 124.76 74.25C124.76 73.8358 125.096 73.5 125.51 73.5H130.01ZM132.01 69.25C132.424 69.25 132.76 69.5858 132.76 70C132.76 70.4142 132.424 70.75 132.01 70.75H123.51C123.096 70.75 122.76 70.4142 122.76 70C122.76 69.5858 123.096 69.25 123.51 69.25H132.01ZM134.01 65C134.424 65 134.76 65.3358 134.76 65.75C134.76 66.1642 134.424 66.5 134.01 66.5H121.51C121.096 66.5 120.76 66.1642 120.76 65.75C120.76 65.3358 121.096 65 121.51 65H134.01Z" fill="#220B3A"/>
<path d="M168.924 76.4991C169.339 76.4991 169.674 76.8348 169.674 77.2491C169.674 77.6287 169.392 77.9425 169.026 77.9922L168.924 77.9991H158.43C158.015 77.9991 157.68 77.6633 157.68 77.2491C157.68 76.8694 157.962 76.5556 158.328 76.5059L158.43 76.4991H168.924ZM163.683 62.0009C164.063 62.0009 164.377 62.283 164.426 62.6491L164.433 62.7509L164.433 72.9439L167.399 69.9733C167.665 69.7068 168.082 69.6822 168.375 69.8998L168.46 69.9723C168.726 70.2383 168.751 70.655 168.533 70.9488L168.461 71.033L164.218 75.2836L164.147 75.3461L164.056 75.4047L164.02 75.4259L163.928 75.4638L163.808 75.4939L163.739 75.5018L163.679 75.5037C163.629 75.5037 163.578 75.4982 163.528 75.4877L163.447 75.4646C163.351 75.4336 163.264 75.3833 163.19 75.3185L158.9 71.0338C158.607 70.7411 158.607 70.2663 158.899 69.9732C159.166 69.7067 159.582 69.6822 159.876 69.8998L159.96 69.9724L162.933 72.9399L162.933 62.7509C162.933 62.3366 163.269 62.0009 163.683 62.0009Z" fill="#220B3A"/>
<path d="M193.585 71.6031C194.268 68.3278 197.12 66.0005 200.325 66C203.531 65.9996 206.383 68.3261 207.067 71.6012C207.124 71.8715 207.388 72.0449 207.659 71.9885C207.929 71.932 208.102 71.6671 208.046 71.3968C207.268 67.6722 204.019 64.9995 200.325 65C196.632 65.0005 193.383 67.6741 192.606 71.399C192.55 71.6693 192.723 71.9341 192.994 71.9905C193.264 72.0469 193.529 71.8734 193.585 71.6031ZM200.315 68C202.248 67.9998 203.815 69.5665 203.816 71.4995C203.816 73.4325 202.249 74.9998 200.316 75C198.383 75.0003 196.816 73.4335 196.816 71.5005C196.815 69.5675 198.382 68.0003 200.315 68Z" fill="#444444"/>
<path d="M239.48 76.4995C236.995 76.5002 234.98 74.5606 234.979 72.1674C234.978 69.7742 236.992 67.8335 239.478 67.8328C241.963 67.8321 243.978 69.7716 243.979 72.1649C243.98 74.5581 241.965 76.4988 239.48 76.4995ZM236.676 74.1854L241.574 69.4662C240.99 69.0449 240.264 68.7955 239.478 68.7958C237.545 68.7963 235.978 70.3057 235.979 72.1671C235.979 72.9242 236.239 73.6228 236.676 74.1854ZM237.384 74.8661C237.968 75.2873 238.694 75.5367 239.48 75.5365C241.413 75.536 242.979 74.0266 242.979 72.1652C242.979 71.4081 242.719 70.7094 242.282 70.1469L237.384 74.8661ZM235.202 75.496C232.534 75.2043 230.979 73.4229 230.979 71.687L230.979 71.2055C230.978 70.4078 231.65 69.7609 232.478 69.7607L234.578 69.7601C234.416 70.0652 234.284 70.3874 234.186 70.7232L232.479 70.7236C232.202 70.7237 231.979 70.9393 231.979 71.2053L231.979 71.6867C231.979 72.7731 232.861 73.9331 234.482 74.3819C234.674 74.7829 234.916 75.1567 235.202 75.496ZM238.603 66.9366C238.684 66.6874 238.727 66.4225 238.727 66.1478C238.727 64.6853 237.495 63.5 235.977 63.5004C234.458 63.5009 233.227 64.6868 233.227 66.1494C233.228 67.3883 234.112 68.4283 235.305 68.7171C235.62 68.364 235.982 68.0514 236.383 67.7883C236.253 67.818 236.117 67.8337 235.978 67.8338C235.011 67.834 234.228 67.0798 234.227 66.1491C234.227 65.2184 235.01 64.4637 235.977 64.4634C236.943 64.4631 237.727 65.2174 237.727 66.1481C237.727 66.6117 237.533 67.0316 237.219 67.3364C237.653 67.1475 238.118 67.0114 238.603 66.9366Z" fill="#FF3B30"/>
<path d="M274.234 67.9996L274.235 74.6663L268.902 74.667L268.901 68.0003L274.234 67.9996ZM273.234 63.9997L269.9 64.0002L269.234 64.667L266.9 64.6673L266.901 66.0006L276.234 65.9993L276.234 64.666L273.9 64.6663L273.234 63.9997ZM275.567 66.6661L267.567 66.6672L267.569 74.6672C267.569 75.4005 268.169 76.0004 268.902 76.0003L274.235 75.9996C274.969 75.9995 275.569 75.3994 275.569 74.6661L275.567 66.6661Z" fill="#FF3B30"/>
<path d="M302.156 65.5015C302.156 63.2923 303.946 61.501 306.155 61.5004C308.364 61.4998 310.156 63.2901 310.156 65.4993C310.157 67.7084 308.367 69.4998 306.157 69.5004C303.948 69.501 302.157 67.7106 302.156 65.5015ZM306.156 62.5004C304.499 62.5008 303.156 63.8444 303.156 65.5012C303.157 67.1581 304.5 68.5008 306.157 68.5004C307.814 68.4999 309.157 67.1564 309.156 65.4995C309.156 63.8427 307.812 62.4999 306.156 62.5004ZM299.158 72.5023C299.158 71.3892 300.061 70.5021 301.167 70.5018L307.415 70.5C307.161 70.8072 306.941 71.1424 306.758 71.5002L301.167 71.5018C300.606 71.5019 300.158 71.9487 300.158 72.502C300.159 73.8108 300.781 74.7856 301.832 75.455C302.903 76.1373 304.424 76.5009 306.159 76.5004C306.36 76.5003 306.557 76.4954 306.752 76.4857C306.925 76.8267 307.133 77.1473 307.37 77.4427C306.975 77.4812 306.571 77.5003 306.16 77.5004C304.305 77.5009 302.577 77.1154 301.294 76.2983C299.992 75.4684 299.159 74.1935 299.158 72.5023ZM316.159 73.9976C316.159 76.4829 314.145 78.4982 311.66 78.4988C309.175 78.4995 307.159 76.4854 307.159 74.0001C307.158 71.5148 309.172 69.4995 311.657 69.4988C314.143 69.4982 316.158 71.5123 316.159 73.9976ZM314.012 72.1446C313.816 71.9494 313.5 71.9495 313.305 72.1448L310.659 74.792L310.012 74.1457C309.817 73.9505 309.5 73.9506 309.305 74.1459C309.11 74.3413 309.11 74.6578 309.305 74.8531L310.306 75.8528C310.501 76.048 310.818 76.0479 311.013 75.8526L314.012 72.8517C314.207 72.6564 314.207 72.3398 314.012 72.1446Z" fill="#220B3A"/>
<path d="M345.176 75.8548V73.8102C345.176 73.2921 345.598 72.8712 346.119 72.8679H348.035C348.56 72.8679 348.985 73.2898 348.985 73.8102V75.8489C348.985 76.2982 349.35 76.6634 349.802 76.6667H351.11C351.72 76.6683 352.306 76.4286 352.739 76.0005C353.171 75.5725 353.414 74.9912 353.414 74.3851V68.5773C353.414 68.0876 353.195 67.6232 352.817 67.309L348.376 63.7829C347.599 63.1661 346.491 63.186 345.737 63.8303L341.392 67.309C340.996 67.6139 340.759 68.0797 340.747 68.5773V74.3791C340.747 75.6425 341.779 76.6667 343.051 76.6667H344.329C344.547 76.6683 344.756 76.5834 344.911 76.431C345.065 76.2786 345.152 76.0711 345.152 75.8548H345.176Z" fill="#6020A7"/>
<path d="M384.735 76.7959C385.036 77.0806 385.51 77.0673 385.795 76.7664C386.08 76.4655 386.066 75.9908 385.765 75.7062L380.526 70.751H393.25C393.664 70.751 394 70.4153 394 70.001C394 69.5868 393.664 69.251 393.25 69.251H380.524L385.765 64.2938C386.066 64.0092 386.08 63.5345 385.795 63.2335C385.51 62.9326 385.036 62.9194 384.735 63.204L378.317 69.2735C378.151 69.4307 378.051 69.6309 378.017 69.8396C378.006 69.8916 378 69.9456 378 70.001C378 70.0586 378.006 70.1147 378.019 70.1686C378.054 70.3744 378.153 70.5713 378.317 70.7265L384.735 76.7959Z" fill="#2B2B2B"/>
<path d="M417.103 67.1953C417.347 66.9349 417.743 66.9349 417.987 67.1953L421.92 71.3905L425.853 67.1953C426.097 66.9349 426.493 66.9349 426.737 67.1953C426.981 67.4556 426.981 67.8777 426.737 68.1381L422.362 72.8047C422.118 73.0651 421.722 73.0651 421.478 72.8047L417.103 68.1381C416.859 67.8777 416.859 67.4556 417.103 67.1953Z" fill="#220B3A"/>
<path d="M459.657 72.8047C459.413 73.0651 459.017 73.0651 458.773 72.8047L454.84 68.6095L450.907 72.8047C450.663 73.0651 450.267 73.0651 450.023 72.8047C449.779 72.5444 449.779 72.1223 450.023 71.8619L454.398 67.1953C454.642 66.9349 455.038 66.9349 455.282 67.1953L459.657 71.8619C459.901 72.1223 459.901 72.5444 459.657 72.8047Z" fill="#220B3A"/>
<path d="M485.939 72.3117L483.568 69.824L482.761 70.6652L485.939 74L492.761 66.8412L491.959 66L485.939 72.3117Z" fill="white"/>
<path d="M516.614 74.6667L515.681 73.7334L519.414 70L515.681 66.2667L516.614 65.3334L520.347 69.0667L524.081 65.3334L525.014 66.2667L521.281 70L525.014 73.7334L524.081 74.6667L520.347 70.9334L516.614 74.6667Z" fill="#6020A7"/>
<path d="M559.728 66.7506C560.013 67.0735 560.002 67.5846 559.702 67.8922L554.451 73.2772C554.162 73.5743 553.706 73.5743 553.417 73.2772L548.166 67.8922C547.866 67.5846 547.855 67.0735 548.141 66.7506C548.426 66.4276 548.901 66.4152 549.201 66.7228L553.934 71.5772L558.667 66.7228C558.967 66.4152 559.442 66.4276 559.728 66.7506Z" fill="#6020A7"/>
<path d="M583.105 64.2065C583.428 63.9208 583.939 63.9323 584.247 64.2322L589.632 69.4827C589.929 69.7724 589.929 70.2276 589.632 70.5173L584.247 75.7677C583.939 76.0677 583.428 76.0792 583.105 75.7935C582.782 75.5078 582.77 75.0331 583.077 74.7332L587.932 70L583.077 65.2668C582.77 64.9669 582.782 64.4921 583.105 64.2065Z" fill="#2B2B2B"/>
<path d="M614.775 66.0013C614.775 64.6206 615.894 63.501 617.274 63.5006C618.655 63.5002 619.775 64.6192 619.775 65.9999C619.775 66.2574 619.736 66.5059 619.664 66.7397C618.626 67.0576 617.718 67.6745 617.042 68.4898C615.771 68.3723 614.775 67.3031 614.775 66.0013ZM617.275 64.5006C616.446 64.5008 615.775 65.1726 615.775 66.001C615.775 66.8294 616.447 67.5008 617.276 67.5006C618.104 67.5003 618.775 66.8286 618.775 66.0002C618.775 65.1717 618.103 64.5003 617.275 64.5006ZM621.278 76.4995C623.763 76.4988 625.777 74.4835 625.777 71.9982C625.776 69.5129 623.761 67.4988 621.276 67.4995C618.79 67.5002 616.776 69.5154 616.777 72.0007C616.777 74.486 618.793 76.5002 621.278 76.4995ZM623.63 70.1453C623.825 70.3405 623.825 70.657 623.63 70.8524L620.631 73.8532C620.436 74.0485 620.119 74.0486 619.924 73.8534L618.923 72.8537C618.728 72.6585 618.728 72.3419 618.923 72.1466C619.118 71.9513 619.435 71.9512 619.63 72.1464L620.277 72.7926L622.923 70.1455C623.118 69.9501 623.434 69.9501 623.63 70.1453ZM616.376 69.5008L614.276 69.5014C613.448 69.5016 612.776 70.4565 612.777 71.2518L612.777 71.5018C612.777 73.232 614.332 75.1414 616.998 75.4556C616.712 75.1017 616.469 74.7117 616.276 74.2933C614.593 73.7915 613.777 72.4797 613.777 71.5016L613.777 71.2516C613.777 71.1121 613.846 70.8902 613.996 70.7043C614.146 70.5168 614.26 70.5014 614.276 70.5014L615.983 70.5009C616.082 70.1523 616.214 69.8177 616.376 69.5008Z" fill="#444444"/>
<path d="M658.595 65.3229C659.363 64.5551 660.607 64.5551 661.375 65.3229C662.143 66.0907 662.143 67.3355 661.375 68.1032L660.791 68.6873L658.011 65.907L658.595 65.3229ZM657.48 66.4373L652.691 71.2266C652.411 71.5072 652.21 71.8581 652.112 72.2425L651.46 74.7816C651.427 74.91 651.464 75.0463 651.558 75.14C651.652 75.2338 651.788 75.271 651.916 75.2381L654.456 74.5864C654.84 74.4877 655.191 74.2876 655.471 74.0069L660.261 69.2177L657.48 66.4373Z" fill="white"/>
<path d="M698.285 68V74.6667H692.951V68H698.285ZM697.285 64H693.951L693.285 64.6667H690.951V66H700.285V64.6667H697.951L697.285 64ZM699.618 66.6667H691.618V74.6667C691.618 75.4 692.218 76 692.951 76H698.285C699.018 76 699.618 75.4 699.618 74.6667V66.6667Z" fill="white"/>
<path d="M737.067 63.7639C738.091 62.7402 739.75 62.7402 740.774 63.7639C741.798 64.7875 741.798 66.4473 740.774 67.471L739.995 68.2498L736.288 64.5427L737.067 63.7639ZM735.581 65.2498L729.195 71.6355C728.821 72.0097 728.554 72.4775 728.423 72.99L727.554 76.3755C727.51 76.5467 727.56 76.7284 727.685 76.8534C727.81 76.9783 727.991 77.028 728.162 76.9841L731.548 76.1151C732.06 75.9836 732.528 75.7168 732.902 75.3426L739.288 68.9569L735.581 65.2498Z" fill="#444444"/>
<path d="M771.458 70C771.458 69.2972 771.502 68.6247 771.583 68H775.333C775.414 68.6247 775.458 69.2972 775.458 70C775.458 70.7028 775.414 71.3753 775.333 72H771.583C771.502 71.3753 771.458 70.7028 771.458 70ZM770.575 72C770.499 71.3652 770.458 70.6934 770.458 70C770.458 69.3066 770.499 68.6348 770.575 68H767.799C767.578 68.6256 767.458 69.2987 767.458 70C767.458 70.7013 767.578 71.3744 767.799 72H770.575ZM768.261 73H770.73C770.856 73.6551 771.023 74.254 771.224 74.7757C771.358 75.125 771.51 75.4476 771.681 75.7326C770.227 75.2824 769.009 74.2939 768.261 73ZM771.75 73H775.166C775.056 73.5266 774.918 74.0035 774.759 74.4167C774.546 74.9712 774.304 75.3857 774.061 75.6528C773.818 75.9198 773.614 76 773.458 76C773.302 76 773.098 75.9198 772.855 75.6528C772.612 75.3857 772.37 74.9712 772.157 74.4167C771.998 74.0035 771.86 73.5266 771.75 73ZM776.186 73C776.06 73.6551 775.893 74.254 775.692 74.7757C775.558 75.125 775.406 75.4476 775.235 75.7326C776.689 75.2824 777.907 74.2939 778.655 73H776.186ZM779.117 72C779.338 71.3744 779.458 70.7013 779.458 70C779.458 69.2987 779.338 68.6256 779.117 68H776.341C776.417 68.6348 776.458 69.3066 776.458 70C776.458 70.6934 776.417 71.3652 776.341 72H779.117ZM774.759 65.5833C774.918 65.9965 775.056 66.4734 775.166 67H771.75C771.86 66.4734 771.998 65.9965 772.157 65.5833C772.37 65.0288 772.612 64.6143 772.855 64.3472C773.098 64.0802 773.302 64 773.458 64C773.614 64 773.818 64.0802 774.061 64.3472C774.304 64.6143 774.546 65.0288 774.759 65.5833ZM776.186 67H778.655C777.907 65.7061 776.689 64.7176 775.235 64.2674C775.406 64.5524 775.558 64.875 775.692 65.2243C775.893 65.746 776.06 66.3449 776.186 67ZM768.261 67H770.73C770.856 66.3449 771.023 65.746 771.224 65.2243C771.358 64.875 771.51 64.5524 771.681 64.2674C770.227 64.7176 769.009 65.7061 768.261 67Z" fill="#2B2B2B"/>
<path d="M814.795 71.8792H814.136L813.903 71.6542C814.72 70.7042 815.211 69.4709 815.211 68.1292C815.211 65.1375 812.786 62.7125 809.795 62.7125C806.803 62.7125 804.378 65.1375 804.378 68.1292C804.378 71.1209 806.803 73.5459 809.795 73.5459C811.136 73.5459 812.37 73.0542 813.32 72.2375L813.545 72.4709V73.1292L817.711 77.2875L818.953 76.0459L814.795 71.8792ZM809.795 71.8792C807.72 71.8792 806.045 70.2042 806.045 68.1292C806.045 66.0542 807.72 64.3792 809.795 64.3792C811.87 64.3792 813.545 66.0542 813.545 68.1292C813.545 70.2042 811.87 71.8792 809.795 71.8792Z" fill="#2B2B2B"/>
<path d="M845.623 64C845.209 64 844.873 64.3358 844.873 64.75C844.873 65.1642 845.209 65.5 845.623 65.5H854.123C854.537 65.5 854.873 65.1642 854.873 64.75C854.873 64.3358 854.537 64 854.123 64H845.623ZM850.403 66.7197C850.11 66.4268 849.636 66.4268 849.343 66.7197L846.093 69.9697C845.8 70.2626 845.8 70.7374 846.093 71.0303C846.386 71.3232 846.86 71.3232 847.153 71.0303L849.123 69.0607V75.25C849.123 75.6642 849.459 76 849.873 76C850.287 76 850.623 75.6642 850.623 75.25V69.0607L852.593 71.0303C852.886 71.3232 853.36 71.3232 853.653 71.0303C853.946 70.7374 853.946 70.2626 853.653 69.9697L850.403 66.7197Z" fill="#6020A7"/>
<path d="M886.542 70C886.542 68.7574 887.55 67.75 888.792 67.75C890.035 67.75 891.042 68.7574 891.042 70C891.042 71.2426 890.035 72.25 888.792 72.25C887.55 72.25 886.542 71.2426 886.542 70ZM886.38 64.6198C886.571 64.2398 886.96 64 887.385 64H890.208C890.635 64 891.024 64.2408 891.215 64.622L891.653 65.4995H892.921C893.956 65.4995 894.796 66.339 894.796 67.3745V73.375C894.796 74.4105 893.956 75.25 892.921 75.25H884.671C883.635 75.25 882.796 74.4105 882.796 73.375V67.3745C882.796 66.339 883.635 65.4995 884.671 65.4995H885.938L886.38 64.6198ZM888.792 67C887.136 67 885.792 68.3431 885.792 70C885.792 71.6569 887.136 73 888.792 73C890.449 73 891.792 71.6569 891.792 70C891.792 68.3431 890.449 67 888.792 67Z" fill="white"/>
<path d="M933.759 65.4856C934.043 65.787 934.029 66.2617 933.727 66.5458L925.797 74.0197C925.461 74.3366 924.933 74.3269 924.609 73.9977L921.929 71.2774C921.638 70.9823 921.641 70.5075 921.937 70.2167C922.232 69.926 922.706 69.9295 922.997 70.2246L925.231 72.4921L932.698 65.4542C933 65.1701 933.475 65.1842 933.759 65.4856Z" fill="#6020A7"/>
<path d="M963.133 62C962.719 62 962.383 62.3358 962.383 62.75C962.383 63.1642 962.719 63.5 963.133 63.5H973.633C974.047 63.5 974.383 63.1642 974.383 62.75C974.383 62.3358 974.047 62 973.633 62H963.133ZM969.129 77.3493C969.079 77.7154 968.766 77.9976 968.386 77.9976C967.972 77.9976 967.636 77.6618 967.636 77.2476L967.635 67.0586L964.663 70.026L964.579 70.0986C964.285 70.3162 963.868 70.2917 963.602 70.0253C963.309 69.7322 963.31 69.2573 963.603 68.9646L967.892 64.6799C967.967 64.6151 968.054 64.5648 968.15 64.5338L968.231 64.5107C968.28 64.5002 968.331 64.4947 968.381 64.4947L968.441 64.4966L968.511 64.5045L968.631 64.5346L968.722 64.5725L968.759 64.5937L968.85 64.6523L968.92 64.7148L973.163 68.9655L973.236 69.0496C973.453 69.3435 973.429 69.7601 973.162 70.0261L973.078 70.0987C972.784 70.3162 972.368 70.2917 972.102 70.0251L969.135 67.0546L969.136 77.2476L969.129 77.3493Z" fill="white"/>
<path d="M1011.55 62C1015.97 62 1019.55 65.5817 1019.55 70C1019.55 74.4183 1015.97 78 1011.55 78C1007.13 78 1003.55 74.4183 1003.55 70C1003.55 65.5817 1007.13 62 1011.55 62ZM1009.36 67.1137C1009.17 66.9787 1008.9 66.998 1008.72 67.1716L1008.67 67.2408C1008.53 67.4357 1008.55 67.7051 1008.72 67.8787L1010.85 70L1008.72 72.1213L1008.67 72.1906C1008.53 72.3854 1008.55 72.6549 1008.72 72.8284L1008.79 72.8863C1008.99 73.0213 1009.26 73.002 1009.43 72.8284L1011.55 70.7071L1013.67 72.8284L1013.74 72.8863C1013.94 73.0213 1014.21 73.002 1014.38 72.8284L1014.44 72.7592C1014.57 72.5643 1014.55 72.2949 1014.38 72.1213L1012.26 70L1014.38 67.8787L1014.44 67.8094C1014.57 67.6146 1014.55 67.3451 1014.38 67.1716L1014.31 67.1137C1014.12 66.9787 1013.85 66.998 1013.67 67.1716L1011.55 69.2929L1009.43 67.1716L1009.36 67.1137Z" fill="#FF3B30"/>
<path d="M1054.47 62C1058.89 62 1062.47 65.5817 1062.47 70C1062.47 74.4183 1058.89 78 1054.47 78C1050.05 78 1046.47 74.4183 1046.47 70C1046.47 65.5817 1050.05 62 1054.47 62ZM1052.28 67.1137C1052.09 66.9787 1051.82 66.998 1051.64 67.1716L1051.59 67.2408C1051.45 67.4357 1051.47 67.7051 1051.64 67.8787L1053.77 70L1051.64 72.1213L1051.59 72.1906C1051.45 72.3854 1051.47 72.6549 1051.64 72.8284L1051.71 72.8863C1051.91 73.0213 1052.18 73.002 1052.35 72.8284L1054.47 70.7071L1056.59 72.8284L1056.66 72.8863C1056.86 73.0213 1057.13 73.002 1057.3 72.8284L1057.36 72.7592C1057.49 72.5643 1057.47 72.2949 1057.3 72.1213L1055.18 70L1057.3 67.8787L1057.36 67.8094C1057.49 67.6146 1057.47 67.3451 1057.3 67.1716L1057.23 67.1137C1057.04 66.9787 1056.77 66.998 1056.59 67.1716L1054.47 69.2929L1052.35 67.1716L1052.28 67.1137Z" fill="white"/>
<path d="M1097.39 62C1101.81 62 1105.39 65.5817 1105.39 70C1105.39 74.4183 1101.81 78 1097.39 78C1092.98 78 1089.39 74.4183 1089.39 70C1089.39 65.5817 1092.98 62 1097.39 62ZM1100.75 67.6464C1100.58 67.4729 1100.31 67.4536 1100.11 67.5886L1100.04 67.6464L1096.39 71.298L1094.75 69.6513L1094.68 69.5935C1094.48 69.4585 1094.21 69.4777 1094.04 69.6513C1093.87 69.8249 1093.85 70.0943 1093.98 70.2892L1094.04 70.3584L1096.04 72.3584L1096.11 72.4163C1096.28 72.5344 1096.51 72.5344 1096.68 72.4163L1096.75 72.3584L1100.75 68.3536L1100.81 68.2843C1100.94 68.0894 1100.93 67.82 1100.75 67.6464Z" fill="#0A9C2F"/>
<path d="M1140.31 62C1144.73 62 1148.31 65.5817 1148.31 70C1148.31 74.4183 1144.73 78 1140.31 78C1135.9 78 1132.31 74.4183 1132.31 70C1132.31 65.5817 1135.9 62 1140.31 62ZM1143.67 67.6464C1143.5 67.4729 1143.23 67.4536 1143.03 67.5886L1142.96 67.6464L1139.31 71.298L1137.67 69.6513L1137.6 69.5935C1137.4 69.4585 1137.13 69.4777 1136.96 69.6513C1136.79 69.8249 1136.77 70.0943 1136.9 70.2892L1136.96 70.3584L1138.96 72.3584L1139.03 72.4163C1139.2 72.5344 1139.43 72.5344 1139.6 72.4163L1139.67 72.3584L1143.67 68.3536L1143.73 68.2843C1143.86 68.0894 1143.85 67.82 1143.67 67.6464Z" fill="white"/>
<defs>
<clipPath id="clip0_1124_231">
<rect width="12" height="12" fill="white" transform="translate(124.76 8)"/>
</clipPath>
<clipPath id="clip1_1124_231">
<rect width="20" height="20" fill="white" transform="translate(355.36 4)"/>
</clipPath>
<clipPath id="clip2_1124_231">
<rect width="20" height="20" fill="white" transform="translate(398.28 4)"/>
</clipPath>
<clipPath id="clip3_1124_231">
<rect width="20" height="20" fill="white" transform="translate(441.2 4)"/>
</clipPath>
<clipPath id="clip4_1124_231">
<rect width="20" height="20" fill="white" transform="translate(484.12 4)"/>
</clipPath>
</defs>
</svg>
