<svg width="1200" height="80" viewBox="0 0 1200 80" fill="none" xmlns="http://www.w3.org/2000/svg">
<path d="M5 14C5 10.134 8.13401 7 12 7C13.32 7 14.5542 7.36484 15.608 8H15C14.4477 8 14 8.44772 14 9C14 9.55228 14.4477 10 15 10H18C18.5523 10 19 9.55228 19 9C19 8 19 7 19 6C19 5.44772 18.5523 5 18 5C17.4477 5 17 5.44772 17 6V6.51575C15.5702 5.5588 13.85 5 12 5C7.02944 5 3 9.02944 3 14C3 18.9706 7.02944 23 12 23C16.9706 23 21 18.9706 21 14C21 13.6199 20.9764 13.2448 20.9304 12.8763C20.8621 12.3282 20.3624 11.9393 19.8144 12.0077C19.2663 12.076 18.8775 12.5757 18.9458 13.1237C18.9815 13.4104 19 13.7028 19 14C19 17.866 15.866 21 12 21C8.13401 21 5 17.866 5 14Z" fill="#2B2B2B"/>
<path d="M49.9044 14.6247L49.9034 14.6282C49.8324 14.8948 49.5587 15.054 49.2919 14.9833C48.8609 14.8691 48.9368 14.3719 48.9368 14.3719L48.9545 14.3105C48.9545 14.3105 48.9806 14.2264 49.0016 14.1653C49.0436 14.0433 49.1079 13.8727 49.1992 13.6698C49.3815 13.2649 49.6744 12.7248 50.1187 12.1829C51.0162 11.0885 52.525 10 54.9201 10C57.3152 10 58.824 11.0885 59.7215 12.1829C60.1658 12.7248 60.4587 13.2649 60.6409 13.6698C60.7323 13.8727 60.7966 14.0433 60.8386 14.1653C60.8596 14.2264 60.8751 14.2754 60.8857 14.3105C60.891 14.328 60.8951 14.342 60.898 14.3524L60.9015 14.365L60.9027 14.3692L60.9031 14.3707L60.9034 14.3719C60.9742 14.6388 60.8152 14.9125 60.5482 14.9833C60.2817 15.054 60.0084 14.8956 59.9371 14.6294L59.9368 14.6282L59.9358 14.6247L59.9285 14.5997C59.9213 14.5762 59.9097 14.5393 59.8931 14.491C59.8598 14.3942 59.8065 14.2523 59.7291 14.0802C59.5737 13.7351 59.324 13.2752 58.9482 12.8171C58.2056 11.9115 56.9644 11 54.9201 11C52.8758 11 51.6346 11.9115 50.8919 12.8171C50.5162 13.2752 50.2665 13.7351 50.1111 14.0802C50.0337 14.2523 49.9804 14.3942 49.9471 14.491C49.9304 14.5393 49.9188 14.5762 49.9117 14.5997L49.9044 14.6247ZM52.4202 15.5C52.4202 14.1193 53.5395 13 54.9202 13C56.3009 13 57.4202 14.1193 57.4202 15.5C57.4202 16.8807 56.3009 18 54.9202 18C53.5395 18 52.4202 16.8807 52.4202 15.5Z" fill="#242424"/>
<path d="M95.9594 16.8267L99.9863 20.8536C100.182 21.0488 100.498 21.0488 100.693 20.8536C100.889 20.6583 100.889 20.3417 100.693 20.1464L87.6934 7.14645C87.4981 6.95118 87.1816 6.95118 86.9863 7.14645C86.791 7.34171 86.791 7.65829 86.9863 7.85355L90.2161 11.0833C89.741 11.4183 89.3524 11.8003 89.0386 12.1829C88.5943 12.7248 88.3014 13.2649 88.1192 13.6698C88.0278 13.8727 87.9635 14.0433 87.9215 14.1653C87.9005 14.2264 87.8744 14.3105 87.8744 14.3105L87.8567 14.3719C87.8567 14.3719 87.7808 14.8691 88.2119 14.9833C88.4786 15.054 88.7523 14.8948 88.8233 14.6282L88.8243 14.6247L88.8316 14.5997C88.8387 14.5762 88.8504 14.5393 88.867 14.491C88.9003 14.3942 88.9536 14.2523 89.031 14.0802C89.1864 13.7351 89.4361 13.2752 89.8119 12.8171C90.1035 12.4615 90.472 12.1049 90.9358 11.8031L92.5134 13.3807C91.8086 13.8228 91.3401 14.6067 91.3401 15.5C91.3401 16.8807 92.4594 18 93.8401 18C94.7334 18 95.5173 17.5314 95.9594 16.8267ZM92.1595 10.1985L93.0138 11.0529C93.2735 11.0185 93.5486 11 93.84 11C95.8843 11 97.1255 11.9115 97.8682 12.8171C98.2439 13.2752 98.4936 13.7351 98.649 14.0802C98.7264 14.2523 98.7797 14.3942 98.813 14.491C98.8297 14.5393 98.8413 14.5762 98.8484 14.5997L98.8557 14.6247L98.8567 14.6282L98.857 14.6294C98.9283 14.8956 99.2016 15.054 99.4682 14.9833C99.7351 14.9125 99.8941 14.6388 99.8233 14.3719L99.823 14.3707L99.8226 14.3692L99.8215 14.365L99.8179 14.3524C99.815 14.342 99.8109 14.328 99.8056 14.3105C99.7951 14.2754 99.7795 14.2264 99.7585 14.1653C99.7165 14.0433 99.6522 13.8727 99.5609 13.6698C99.3786 13.2649 99.0857 12.7248 98.6414 12.1829C97.7439 11.0885 96.2351 10 93.84 10C93.2225 10 92.6639 10.0724 92.1595 10.1985Z" fill="#242424"/>
<g clip-path="url(#clip0_269_1141)">
<path d="M132.656 9.32289C133.424 8.55513 134.669 8.55513 135.437 9.3229C136.204 10.0907 136.205 11.3355 135.437 12.1032L134.853 12.6873L132.072 9.90702L132.656 9.32289ZM131.542 10.4373L126.753 15.2266C126.472 15.5072 126.272 15.8581 126.173 16.2425L125.522 18.7816C125.489 18.91 125.526 19.0463 125.62 19.14C125.713 19.2338 125.85 19.271 125.978 19.2381L128.517 18.5864C128.902 18.4877 129.252 18.2876 129.533 18.0069L134.322 13.2177L131.542 10.4373Z" fill="#6020A7"/>
</g>
<path d="M177.387 18.59L172.807 14L177.387 9.41L175.977 8L169.977 14L175.977 20L177.387 18.59Z" fill="#424242"/>
<path d="M220.896 18.59L225.476 14L220.896 9.41L222.306 8L228.306 14L222.306 20L220.896 18.59Z" fill="#424242"/>
<path d="M270.319 17.8998L266.119 13.6998L264.719 15.0998L270.319 20.6998L282.319 8.6998L280.919 7.2998L270.319 17.8998Z" fill="#4CAF50"/>
<path d="M327.44 8.41L326.03 7L320.44 12.59L314.85 7L313.44 8.41L319.03 14L313.44 19.59L314.85 21L320.44 15.41L326.03 21L327.44 19.59L321.85 14L327.44 8.41Z" fill="#F44336"/>
<g clip-path="url(#clip1_269_1141)">
<path d="M365.348 3.99622C366.795 3.99622 368.148 4.40309 369.296 5.1107C368.954 5.47597 368.689 5.91443 368.529 6.39997C367.606 5.82629 366.516 5.49581 365.348 5.49581C362.023 5.49581 359.34 8.16934 359.34 11.4942V15.9026L357.994 18.9959H372.711L371.356 15.9036L371.356 11.507L371.352 11.2819C371.349 11.1736 371.342 11.066 371.333 10.9592C371.504 10.9848 371.679 10.9981 371.857 10.9981C372.195 10.9981 372.522 10.9503 372.831 10.8611C372.842 10.9876 372.85 11.115 372.854 11.2433L372.858 11.4942V15.5901L374.24 18.7452C374.309 18.9031 374.345 19.0736 374.345 19.2459C374.345 19.936 373.784 20.4955 373.093 20.4955L368.352 20.497C368.352 22.1534 367.007 23.4962 365.348 23.4962C363.748 23.4962 362.44 22.2476 362.349 20.6733L362.343 20.4948L357.612 20.4955C357.441 20.4955 357.271 20.4603 357.114 20.3921C356.48 20.1171 356.189 19.381 356.464 18.748L357.838 15.591V11.4941C357.838 7.34041 361.194 3.99622 365.348 3.99622ZM366.85 20.4948L363.846 20.497C363.846 21.3252 364.518 21.9966 365.348 21.9966C366.129 21.9966 366.77 21.4019 366.843 20.6414L366.85 20.4948ZM369.393 7.05278C369.489 6.52565 369.749 6.05596 370.12 5.69932C370.57 5.26614 371.182 4.99973 371.857 4.99973C373.24 4.99973 374.36 6.11871 374.36 7.49905C374.36 8.59194 373.658 9.52099 372.679 9.86054C372.421 9.94985 372.145 9.99838 371.857 9.99838C371.609 9.99838 371.369 9.96226 371.142 9.895C370.108 9.58788 369.354 8.6314 369.354 7.49905C369.354 7.34673 369.367 7.19759 369.393 7.05278Z" fill="#6020A7"/>
</g>
<g clip-path="url(#clip2_269_1141)">
<path d="M408.281 22.3333C412.883 22.3333 416.614 18.6023 416.614 14C416.614 9.39759 412.883 5.66663 408.281 5.66663C403.678 5.66663 399.947 9.39759 399.947 14C399.947 18.6023 403.678 22.3333 408.281 22.3333Z" stroke="#FF3B30" stroke-width="2" stroke-linecap="round" stroke-linejoin="round"/>
<path d="M408.28 17.3333V14" stroke="#FF3B30" stroke-width="2" stroke-linecap="round" stroke-linejoin="round"/>
<path d="M408.28 10.6666H408.289" stroke="#FF3B30" stroke-width="2" stroke-linecap="round" stroke-linejoin="round"/>
</g>
<g clip-path="url(#clip3_269_1141)">
<path d="M459.534 13.2333V14C459.533 15.797 458.951 17.5455 457.875 18.9848C456.799 20.4241 455.287 21.477 453.563 21.9866C451.84 22.4961 449.998 22.4349 448.313 21.8121C446.627 21.1894 445.188 20.0384 444.21 18.5309C443.232 17.0233 442.767 15.24 442.885 13.4469C443.003 11.6538 443.698 9.94691 444.866 8.58086C446.033 7.21482 447.611 6.26279 449.364 5.86676C451.117 5.47073 452.951 5.65192 454.592 6.3833" stroke="#439F6E" stroke-width="2" stroke-linecap="round" stroke-linejoin="round"/>
<path d="M459.534 7.33337L451.2 15.675L448.7 13.175" stroke="#439F6E" stroke-width="2" stroke-linecap="round" stroke-linejoin="round"/>
</g>
<g clip-path="url(#clip4_269_1141)">
<path d="M492.695 7.21672L485.636 19C485.491 19.2521 485.414 19.5378 485.413 19.8288C485.412 20.1198 485.488 20.406 485.632 20.6588C485.776 20.9116 485.984 21.1223 486.235 21.2699C486.485 21.4175 486.77 21.4968 487.061 21.5H501.178C501.469 21.4968 501.754 21.4175 502.005 21.2699C502.256 21.1223 502.464 20.9116 502.608 20.6588C502.752 20.406 502.827 20.1198 502.826 19.8288C502.826 19.5378 502.749 19.2521 502.603 19L495.545 7.21672C495.396 6.9718 495.187 6.76931 494.937 6.62879C494.688 6.48826 494.406 6.41443 494.12 6.41443C493.833 6.41443 493.552 6.48826 493.302 6.62879C493.053 6.76931 492.843 6.9718 492.695 7.21672V7.21672Z" stroke="#FCB900" stroke-width="2" stroke-linecap="round" stroke-linejoin="round"/>
<path d="M494.12 11.5V14.8333" stroke="#FCB900" stroke-width="2" stroke-linecap="round" stroke-linejoin="round"/>
<path d="M494.12 18.1666H494.128" stroke="#FCB900" stroke-width="2" stroke-linecap="round" stroke-linejoin="round"/>
</g>
<path d="M535.04 6.49927C539.183 6.49927 542.541 9.85765 542.541 14.0004C542.541 18.1432 539.183 21.5016 535.04 21.5016C530.897 21.5016 527.539 18.1432 527.539 14.0004C527.539 9.85765 530.897 6.49927 535.04 6.49927ZM535.037 12.6872C534.653 12.6875 534.336 12.9772 534.293 13.3502L534.288 13.4377L534.291 17.5639L534.296 17.6514C534.339 18.0243 534.656 18.3137 535.041 18.3134C535.426 18.3131 535.742 18.0234 535.786 17.6504L535.791 17.5629L535.788 13.4367L535.783 13.3493C535.739 12.9763 535.422 12.687 535.037 12.6872ZM535.041 9.87504C534.522 9.87504 534.102 10.2953 534.102 10.8137C534.102 11.3321 534.522 11.7523 535.041 11.7523C535.559 11.7523 535.979 11.3321 535.979 10.8137C535.979 10.2953 535.559 9.87504 535.041 9.87504Z" fill="#969696"/>
<path d="M573.96 6.49927C578.103 6.49927 581.461 9.85765 581.461 14.0004C581.461 18.1432 578.103 21.5016 573.96 21.5016C569.817 21.5016 566.459 18.1432 566.459 14.0004C566.459 9.85765 569.817 6.49927 573.96 6.49927ZM573.957 12.6872C573.573 12.6875 573.256 12.9772 573.213 13.3502L573.208 13.4377L573.21 17.5639L573.216 17.6514C573.259 18.0243 573.576 18.3137 573.961 18.3134C574.346 18.3131 574.662 18.0234 574.705 17.6504L574.71 17.5629L574.708 13.4367L574.703 13.3493C574.659 12.9763 574.342 12.687 573.957 12.6872ZM573.96 9.87504C573.442 9.87504 573.022 10.2953 573.022 10.8137C573.022 11.3321 573.442 11.7523 573.96 11.7523C574.479 11.7523 574.899 11.3321 574.899 10.8137C574.899 10.2953 574.479 9.87504 573.96 9.87504Z" fill="#3A1364"/>
<path d="M612.88 6.49927C617.023 6.49927 620.381 9.85765 620.381 14.0004C620.381 18.1432 617.023 21.5016 612.88 21.5016C608.737 21.5016 605.379 18.1432 605.379 14.0004C605.379 9.85765 608.737 6.49927 612.88 6.49927ZM612.877 12.6872C612.493 12.6875 612.176 12.9772 612.133 13.3502L612.128 13.4377L612.13 17.5639L612.136 17.6514C612.179 18.0243 612.496 18.3137 612.881 18.3134C613.266 18.3131 613.582 18.0234 613.625 17.6504L613.63 17.5629L613.628 13.4367L613.623 13.3493C613.579 12.9763 613.262 12.687 612.877 12.6872ZM612.88 9.87504C612.362 9.87504 611.942 10.2953 611.942 10.8137C611.942 11.3321 612.362 11.7523 612.88 11.7523C613.399 11.7523 613.819 11.3321 613.819 10.8137C613.819 10.2953 613.399 9.87504 612.88 9.87504Z" fill="#48187D"/>
<path fill-rule="evenodd" clip-rule="evenodd" d="M655.507 9.70714C655.897 9.31661 655.897 8.68345 655.507 8.29292C655.116 7.9024 654.483 7.9024 654.093 8.29292L649.8 12.5858L645.507 8.29292C645.116 7.9024 644.483 7.9024 644.093 8.29292C643.702 8.68345 643.702 9.31661 644.093 9.70714L648.386 14L644.093 18.2929C643.702 18.6834 643.702 19.3166 644.093 19.7071C644.483 20.0977 645.116 20.0977 645.507 19.7071L649.8 15.4142L654.093 19.7071C654.483 20.0977 655.116 20.0977 655.507 19.7071C655.897 19.3166 655.897 18.6834 655.507 18.2929L651.214 14L655.507 9.70714Z" fill="#160829"/>
<path d="M689.136 15.8792H688.478L688.245 15.6542C689.061 14.7042 689.553 13.4709 689.553 12.1292C689.553 9.13752 687.128 6.71252 684.136 6.71252C681.145 6.71252 678.72 9.13752 678.72 12.1292C678.72 15.1209 681.145 17.5459 684.136 17.5459C685.478 17.5459 686.711 17.0542 687.661 16.2375L687.886 16.4709V17.1292L692.053 21.2875L693.295 20.0459L689.136 15.8792ZM684.136 15.8792C682.061 15.8792 680.386 14.2042 680.386 12.1292C680.386 10.0542 682.061 8.37919 684.136 8.37919C686.211 8.37919 687.886 10.0542 687.886 12.1292C687.886 14.2042 686.211 15.8792 684.136 15.8792Z" fill="#969696"/>
<path d="M722.215 20H719.548C719.195 20 718.855 19.8595 718.605 19.6095C718.355 19.3594 718.215 19.0203 718.215 18.6667V9.33333C718.215 8.97971 718.355 8.64057 718.605 8.39052C718.855 8.14048 719.195 8 719.548 8H722.215M726.882 17.3333L730.215 14M730.215 14L726.882 10.6667M730.215 14H722.215" stroke="#FF3B30" stroke-width="1.6" stroke-linecap="round" stroke-linejoin="round"/>
<path d="M763.135 7.72888C760.538 7.72888 758.432 9.83468 758.432 12.4323V14.9423L757.424 17.4644C757.36 17.6254 757.379 17.8078 757.477 17.9514C757.574 18.0949 757.736 18.1809 757.909 18.1809H768.361C768.535 18.1809 768.697 18.0949 768.794 17.9514C768.891 17.8078 768.911 17.6254 768.847 17.4644L767.839 14.9423V12.9549C766.396 12.9549 765.226 11.785 765.226 10.3419C765.226 9.67865 765.473 9.07311 765.88 8.61233C765.108 8.05636 764.16 7.72888 763.135 7.72888ZM763.135 20.794C762.161 20.794 761.343 20.1278 761.111 19.2261H765.16C764.928 20.1278 764.109 20.794 763.135 20.794ZM767.839 11.9097C768.705 11.9097 769.407 11.2078 769.407 10.3419C769.407 9.47602 768.705 8.77409 767.839 8.77409C766.973 8.77409 766.271 9.47602 766.271 10.3419C766.271 11.2078 766.973 11.9097 767.839 11.9097Z" fill="#6020A7"/>
<path d="M802.055 7.72888C799.458 7.72888 797.352 9.83468 797.352 12.4323V14.9423L796.344 17.4644C796.28 17.6254 796.299 17.8078 796.397 17.9514C796.494 18.0949 796.656 18.1809 796.829 18.1809H807.281C807.455 18.1809 807.617 18.0949 807.714 17.9514C807.811 17.8078 807.831 17.6254 807.767 17.4644L806.759 14.9423V12.9549C805.316 12.9549 804.146 11.785 804.146 10.3419C804.146 9.67865 804.393 9.07311 804.8 8.61233C804.028 8.05636 803.08 7.72888 802.055 7.72888ZM802.055 20.794C801.081 20.794 800.263 20.1278 800.031 19.2261H804.08C803.848 20.1278 803.029 20.794 802.055 20.794ZM806.759 11.9097C807.625 11.9097 808.327 11.2078 808.327 10.3419C808.327 9.47602 807.625 8.77409 806.759 8.77409C805.893 8.77409 805.191 9.47602 805.191 10.3419C805.191 11.2078 805.893 11.9097 806.759 11.9097Z" fill="white"/>
<path d="M846.308 20V18.6667C846.308 17.9594 846.027 17.2811 845.527 16.781C845.027 16.281 844.349 16 843.642 16H838.308C837.601 16 836.923 16.281 836.423 16.781C835.923 17.2811 835.642 17.9594 835.642 18.6667V20M843.642 10.6667C843.642 12.1394 842.448 13.3333 840.975 13.3333C839.502 13.3333 838.308 12.1394 838.308 10.6667C838.308 9.19391 839.502 8 840.975 8C842.448 8 843.642 9.19391 843.642 10.6667Z" stroke="#2B2B2B" stroke-width="1.6" stroke-linecap="round" stroke-linejoin="round"/>
<path d="M876.561 13.3334V10.6667C876.561 9.78265 876.912 8.93481 877.538 8.30968C878.163 7.68456 879.01 7.33337 879.895 7.33337C880.779 7.33337 881.626 7.68456 882.252 8.30968C882.877 8.93481 883.228 9.78265 883.228 10.6667V13.3334M875.228 13.3334H884.561C885.298 13.3334 885.895 13.9303 885.895 14.6667V19.3334C885.895 20.0698 885.298 20.6667 884.561 20.6667H875.228C874.491 20.6667 873.895 20.0698 873.895 19.3334V14.6667C873.895 13.9303 874.491 13.3334 875.228 13.3334Z" stroke="#2B2B2B" stroke-width="1.6" stroke-linecap="round" stroke-linejoin="round"/>
<path d="M912.814 12H924.814M916.814 20V12M914.148 8H923.481C924.217 8 924.814 8.59695 924.814 9.33333V18.6667C924.814 19.403 924.217 20 923.481 20H914.148C913.411 20 912.814 19.403 912.814 18.6667V9.33333C912.814 8.59695 913.411 8 914.148 8Z" stroke="#220B3A" stroke-width="1.6" stroke-linecap="round" stroke-linejoin="round"/>
<path d="M960.401 20V18.6667C960.401 17.9594 960.12 17.2811 959.62 16.781C959.12 16.281 958.442 16 957.734 16H952.401C951.694 16 951.016 16.281 950.515 16.781C950.015 17.2811 949.734 17.9594 949.734 18.6667V20M957.734 10.6667C957.734 12.1394 956.54 13.3333 955.068 13.3333C953.595 13.3333 952.401 12.1394 952.401 10.6667C952.401 9.19391 953.595 8 955.068 8C956.54 8 957.734 9.19391 957.734 10.6667Z" stroke="#6020A7" stroke-width="1.6" stroke-linecap="round" stroke-linejoin="round"/>
<path d="M987.988 13.3334V10.6667C987.988 9.78265 988.339 8.93481 988.964 8.30968C989.589 7.68456 990.437 7.33337 991.321 7.33337C992.205 7.33337 993.053 7.68456 993.678 8.30968C994.303 8.93481 994.655 9.78265 994.655 10.6667V13.3334M986.655 13.3334H995.988C996.724 13.3334 997.321 13.9303 997.321 14.6667V19.3334C997.321 20.0698 996.724 20.6667 995.988 20.6667H986.655C985.918 20.6667 985.321 20.0698 985.321 19.3334V14.6667C985.321 13.9303 985.918 13.3334 986.655 13.3334Z" stroke="#6020A7" stroke-width="1.6" stroke-linecap="round" stroke-linejoin="round"/>
<path d="M1031.41 9.83329H1029.74V13.1666H1026.41V14.8333H1029.74V18.1666H1031.41V14.8333H1034.74V13.1666H1031.41V9.83329ZM1030.57 5.66663C1025.97 5.66663 1022.24 9.39996 1022.24 14C1022.24 18.6 1025.97 22.3333 1030.57 22.3333C1035.17 22.3333 1038.91 18.6 1038.91 14C1038.91 9.39996 1035.17 5.66663 1030.57 5.66663ZM1030.57 20.6666C1026.9 20.6666 1023.91 17.675 1023.91 14C1023.91 10.325 1026.9 7.33329 1030.57 7.33329C1034.25 7.33329 1037.24 10.325 1037.24 14C1037.24 17.675 1034.25 20.6666 1030.57 20.6666Z" fill="white"/>
<path d="M1073.49 16.5V19H1063.49V16.5H1061.83V19C1061.83 19.9167 1062.58 20.6667 1063.49 20.6667H1073.49C1074.41 20.6667 1075.16 19.9167 1075.16 19V16.5H1073.49ZM1064.33 11.5L1065.5 12.675L1067.66 10.525V17.3334H1069.33V10.525L1071.49 12.675L1072.66 11.5L1068.49 7.33337L1064.33 11.5Z" fill="#6020A7"/>
<path d="M1106.08 6C1110.5 6 1114.08 9.58172 1114.08 14C1114.08 18.4183 1110.5 22 1106.08 22C1101.66 22 1098.08 18.4183 1098.08 14C1098.08 9.58172 1101.66 6 1106.08 6ZM1109.44 11.6464C1109.27 11.4729 1109 11.4536 1108.8 11.5886L1108.73 11.6464L1105.08 15.298L1103.43 13.6513L1103.37 13.5935C1103.17 13.4585 1102.9 13.4777 1102.73 13.6513C1102.55 13.8249 1102.53 14.0943 1102.67 14.2892L1102.73 14.3584L1104.73 16.3584L1104.8 16.4163C1104.97 16.5344 1105.19 16.5344 1105.37 16.4163L1105.43 16.3584L1109.44 12.3536L1109.5 12.2843C1109.63 12.0894 1109.61 11.82 1109.44 11.6464Z" fill="#6020A7"/>
<path d="M1147.3 18.59L1151.88 14L1147.3 9.41L1148.71 8L1154.71 14L1148.71 20L1147.3 18.59Z" fill="#6020A7"/>
<path d="M13.3337 69.3333H5.22033L8.94699 65.6066L8.00033 64.6666L2.66699 70L8.00033 75.3333L8.94033 74.3933L5.22033 70.6666H13.3337V69.3333Z" fill="#6020A7"/>
<path d="M41.5863 70.6667L49.6996 70.6667L45.9729 74.3934L46.9196 75.3334L52.2529 70L46.9196 64.6667L45.9796 65.6067L49.6996 69.3334L41.5863 69.3334L41.5863 70.6667Z" fill="white"/>
<path d="M80.8398 63.5C80.8398 63.2239 81.0637 63 81.3398 63H81.8398C82.9444 63 83.8398 63.8954 83.8398 65V75C83.8398 76.1046 82.9444 77 81.8398 77H81.3398C81.0637 77 80.8398 76.7761 80.8398 76.5C80.8398 76.2239 81.0637 76 81.3398 76H81.8398C82.3921 76 82.8398 75.5523 82.8398 75V65C82.8398 64.4477 82.3921 64 81.8398 64H81.3398C81.0637 64 80.8398 63.7761 80.8398 63.5ZM86.8398 64C86.2876 64 85.8398 64.4477 85.8398 65V75C85.8398 75.5523 86.2876 76 86.8398 76H87.3145C87.2989 76.0513 87.2845 76.1031 87.2715 76.1554L87.0603 77H86.8398C85.7353 77 84.8398 76.1046 84.8398 75V65C84.8398 63.8954 85.7353 63 86.8398 63H88.8398C89.9444 63 90.8398 63.8954 90.8398 65V71.9427L89.8398 72.9427V65C89.8398 64.4477 89.3921 64 88.8398 64H86.8398ZM92.8398 65V69.9427L91.8398 70.9427V65C91.8398 63.8954 92.7353 63 93.8398 63H94.3398C94.616 63 94.8398 63.2239 94.8398 63.5C94.8398 63.7761 94.616 64 94.3398 64H93.8398C93.2876 64 92.8398 64.4477 92.8398 65ZM88.8196 75.3772L93.649 70.5478C94.3794 69.8174 95.5635 69.8174 96.2938 70.5478C97.0242 71.2781 97.0242 72.4622 96.2938 73.1926L91.4644 78.022C91.1828 78.3036 90.83 78.5033 90.4437 78.5999L88.9458 78.9744C88.2944 79.1372 87.7044 78.5472 87.8672 77.8958L88.2417 76.3979C88.3383 76.0116 88.538 75.6588 88.8196 75.3772Z" fill="#220B3A"/>
<path d="M130.01 73.5C130.424 73.5 130.76 73.8358 130.76 74.25C130.76 74.6642 130.424 75 130.01 75H125.51C125.096 75 124.76 74.6642 124.76 74.25C124.76 73.8358 125.096 73.5 125.51 73.5H130.01ZM132.01 69.25C132.424 69.25 132.76 69.5858 132.76 70C132.76 70.4142 132.424 70.75 132.01 70.75H123.51C123.096 70.75 122.76 70.4142 122.76 70C122.76 69.5858 123.096 69.25 123.51 69.25H132.01ZM134.01 65C134.424 65 134.76 65.3358 134.76 65.75C134.76 66.1642 134.424 66.5 134.01 66.5H121.51C121.096 66.5 120.76 66.1642 120.76 65.75C120.76 65.3358 121.096 65 121.51 65H134.01Z" fill="#220B3A"/>
<path d="M168.924 76.4991C169.339 76.4991 169.674 76.8348 169.674 77.2491C169.674 77.6287 169.392 77.9425 169.026 77.9922L168.924 77.9991H158.43C158.015 77.9991 157.68 77.6633 157.68 77.2491C157.68 76.8694 157.962 76.5556 158.328 76.5059L158.43 76.4991H168.924ZM163.683 62.0009C164.063 62.0009 164.377 62.283 164.426 62.6491L164.433 62.7509L164.433 72.9439L167.399 69.9733C167.665 69.7068 168.082 69.6822 168.375 69.8998L168.46 69.9723C168.726 70.2383 168.751 70.655 168.533 70.9488L168.461 71.033L164.218 75.2836L164.147 75.3461L164.056 75.4047L164.02 75.4259L163.928 75.4638L163.808 75.4939L163.739 75.5018L163.679 75.5037C163.629 75.5037 163.578 75.4982 163.528 75.4877L163.447 75.4646C163.351 75.4336 163.264 75.3833 163.19 75.3185L158.9 71.0338C158.607 70.7411 158.607 70.2663 158.899 69.9732C159.166 69.7067 159.582 69.6822 159.876 69.8998L159.96 69.9724L162.933 72.9399L162.933 62.7509C162.933 62.3366 163.269 62.0009 163.683 62.0009Z" fill="#220B3A"/>
<path d="M193.585 71.6031C194.268 68.3278 197.12 66.0005 200.325 66C203.531 65.9996 206.383 68.3261 207.067 71.6012C207.124 71.8715 207.388 72.0449 207.659 71.9885C207.929 71.932 208.102 71.6671 208.046 71.3968C207.268 67.6722 204.019 64.9995 200.325 65C196.632 65.0005 193.383 67.6741 192.606 71.399C192.55 71.6693 192.723 71.9341 192.994 71.9905C193.264 72.0469 193.529 71.8734 193.585 71.6031ZM200.315 68C202.248 67.9998 203.815 69.5665 203.816 71.4995C203.816 73.4325 202.249 74.9998 200.316 75C198.383 75.0003 196.816 73.4335 196.816 71.5005C196.815 69.5675 198.382 68.0003 200.315 68Z" fill="#220B3A"/>
<path d="M239.48 76.4995C236.995 76.5002 234.98 74.5606 234.979 72.1674C234.978 69.7742 236.992 67.8335 239.478 67.8328C241.963 67.8321 243.978 69.7716 243.979 72.1649C243.98 74.5581 241.965 76.4988 239.48 76.4995ZM236.676 74.1854L241.574 69.4662C240.99 69.0449 240.264 68.7955 239.478 68.7958C237.545 68.7963 235.978 70.3057 235.979 72.1671C235.979 72.9242 236.239 73.6228 236.676 74.1854ZM237.384 74.8661C237.968 75.2873 238.694 75.5367 239.48 75.5365C241.413 75.536 242.979 74.0266 242.979 72.1652C242.979 71.4081 242.719 70.7094 242.282 70.1469L237.384 74.8661ZM235.202 75.496C232.534 75.2043 230.979 73.4229 230.979 71.687L230.979 71.2055C230.978 70.4078 231.65 69.7609 232.478 69.7607L234.578 69.7601C234.416 70.0652 234.284 70.3874 234.186 70.7232L232.479 70.7236C232.202 70.7237 231.979 70.9393 231.979 71.2053L231.979 71.6867C231.979 72.7731 232.861 73.9331 234.482 74.3819C234.674 74.7829 234.916 75.1567 235.202 75.496ZM238.603 66.9366C238.684 66.6874 238.727 66.4225 238.727 66.1478C238.727 64.6853 237.495 63.5 235.977 63.5004C234.458 63.5009 233.227 64.6868 233.227 66.1494C233.228 67.3883 234.112 68.4283 235.305 68.7171C235.62 68.364 235.982 68.0514 236.383 67.7883C236.253 67.818 236.117 67.8337 235.978 67.8338C235.011 67.834 234.228 67.0798 234.227 66.1491C234.227 65.2184 235.01 64.4637 235.977 64.4634C236.943 64.4631 237.727 65.2174 237.727 66.1481C237.727 66.6117 237.533 67.0316 237.219 67.3364C237.653 67.1475 238.118 67.0114 238.603 66.9366Z" fill="#FF3B30"/>
<path d="M274.234 67.9996L274.235 74.6663L268.902 74.667L268.901 68.0003L274.234 67.9996ZM273.234 63.9997L269.9 64.0002L269.234 64.667L266.9 64.6673L266.901 66.0006L276.234 65.9993L276.234 64.666L273.9 64.6663L273.234 63.9997ZM275.567 66.6661L267.567 66.6672L267.569 74.6672C267.569 75.4005 268.169 76.0004 268.902 76.0003L274.235 75.9996C274.969 75.9995 275.569 75.3994 275.569 74.6661L275.567 66.6661Z" fill="#FF3B30"/>
<path d="M302.157 65.5015C302.157 63.2923 303.947 61.501 306.156 61.5004C308.365 61.4998 310.157 63.2901 310.157 65.4993C310.158 67.7084 308.368 69.4998 306.158 69.5004C303.949 69.501 302.158 67.7106 302.157 65.5015ZM306.157 62.5004C304.5 62.5008 303.157 63.8444 303.157 65.5012C303.158 67.1581 304.501 68.5008 306.158 68.5004C307.815 68.4999 309.158 67.1564 309.157 65.4995C309.157 63.8427 307.813 62.4999 306.157 62.5004ZM299.159 72.5023C299.159 71.3892 300.062 70.5021 301.167 70.5018L307.416 70.5C307.162 70.8072 306.942 71.1424 306.759 71.5002L301.168 71.5018C300.607 71.5019 300.159 71.9487 300.159 72.502C300.16 73.8108 300.782 74.7856 301.833 75.455C302.904 76.1373 304.425 76.5009 306.16 76.5004C306.361 76.5003 306.558 76.4954 306.753 76.4857C306.926 76.8267 307.134 77.1473 307.371 77.4427C306.976 77.4812 306.572 77.5003 306.161 77.5004C304.306 77.5009 302.578 77.1154 301.295 76.2983C299.993 75.4684 299.16 74.1935 299.159 72.5023ZM316.16 73.9976C316.16 76.4829 314.146 78.4982 311.661 78.4988C309.176 78.4995 307.16 76.4854 307.16 74.0001C307.159 71.5148 309.173 69.4995 311.658 69.4988C314.144 69.4982 316.159 71.5123 316.16 73.9976ZM314.013 72.1446C313.817 71.9494 313.501 71.9495 313.306 72.1448L310.66 74.792L310.013 74.1457C309.818 73.9505 309.501 73.9506 309.306 74.1459C309.111 74.3413 309.111 74.6578 309.306 74.8531L310.307 75.8528C310.502 76.048 310.819 76.0479 311.014 75.8526L314.013 72.8517C314.208 72.6564 314.208 72.3398 314.013 72.1446Z" fill="#220B3A"/>
<path d="M345.176 75.8548V73.8102C345.176 73.2921 345.598 72.8712 346.119 72.8679H348.035C348.56 72.8679 348.985 73.2898 348.985 73.8102V75.8489C348.985 76.2982 349.35 76.6634 349.802 76.6667H351.11C351.72 76.6683 352.306 76.4286 352.739 76.0005C353.171 75.5725 353.414 74.9912 353.414 74.3851V68.5773C353.414 68.0876 353.195 67.6232 352.817 67.309L348.376 63.7829C347.599 63.1661 346.491 63.186 345.737 63.8303L341.392 67.309C340.996 67.6139 340.759 68.0797 340.747 68.5773V74.3791C340.747 75.6425 341.779 76.6667 343.051 76.6667H344.329C344.547 76.6683 344.756 76.5834 344.911 76.431C345.065 76.2786 345.152 76.0711 345.152 75.8548H345.176Z" fill="#6020A7"/>
<path d="M384.735 76.7959C385.036 77.0806 385.51 77.0673 385.795 76.7664C386.08 76.4655 386.066 75.9908 385.765 75.7062L380.526 70.751H393.25C393.664 70.751 394 70.4153 394 70.001C394 69.5868 393.664 69.251 393.25 69.251H380.524L385.765 64.2938C386.066 64.0092 386.08 63.5345 385.795 63.2335C385.51 62.9326 385.036 62.9194 384.735 63.204L378.317 69.2735C378.151 69.4307 378.051 69.6309 378.017 69.8396C378.006 69.8916 378 69.9456 378 70.001C378 70.0586 378.006 70.1147 378.019 70.1686C378.054 70.3744 378.153 70.5713 378.317 70.7265L384.735 76.7959Z" fill="#220B3A"/>
<path d="M417.104 67.1953C417.348 66.9349 417.744 66.9349 417.988 67.1953L421.921 71.3905L425.854 67.1953C426.098 66.9349 426.494 66.9349 426.738 67.1953C426.982 67.4556 426.982 67.8777 426.738 68.1381L422.363 72.8047C422.119 73.0651 421.723 73.0651 421.479 72.8047L417.104 68.1381C416.86 67.8777 416.86 67.4556 417.104 67.1953Z" fill="#220B3A"/>
<path d="M459.658 72.8047C459.414 73.0651 459.018 73.0651 458.774 72.8047L454.841 68.6095L450.908 72.8047C450.664 73.0651 450.268 73.0651 450.024 72.8047C449.78 72.5444 449.78 72.1223 450.024 71.8619L454.399 67.1953C454.643 66.9349 455.039 66.9349 455.283 67.1953L459.658 71.8619C459.902 72.1223 459.902 72.5444 459.658 72.8047Z" fill="#220B3A"/>
<path d="M485.939 72.3117L483.568 69.824L482.761 70.6652L485.939 74L492.761 66.8412L491.959 66L485.939 72.3117Z" fill="white"/>
<path d="M516.614 74.6667L515.681 73.7334L519.414 70L515.681 66.2667L516.614 65.3334L520.347 69.0667L524.081 65.3334L525.014 66.2667L521.281 70L525.014 73.7334L524.081 74.6667L520.347 70.9334L516.614 74.6667Z" fill="#6020A7"/>
<path d="M559.728 66.7506C560.013 67.0735 560.002 67.5846 559.702 67.8922L554.451 73.2772C554.162 73.5743 553.706 73.5743 553.417 73.2772L548.166 67.8922C547.866 67.5846 547.855 67.0735 548.141 66.7506C548.426 66.4276 548.901 66.4152 549.201 66.7228L553.934 71.5772L558.667 66.7228C558.967 66.4152 559.442 66.4276 559.728 66.7506Z" fill="#6020A7"/>
<path d="M583.105 64.2065C583.428 63.9208 583.939 63.9323 584.247 64.2322L589.632 69.4827C589.929 69.7724 589.929 70.2276 589.632 70.5173L584.247 75.7677C583.939 76.0677 583.428 76.0792 583.105 75.7935C582.782 75.5078 582.77 75.0331 583.077 74.7332L587.932 70L583.077 65.2668C582.77 64.9669 582.782 64.4921 583.105 64.2065Z" fill="#2B2B2B"/>
<path d="M614.775 66.0013C614.775 64.6206 615.894 63.501 617.274 63.5006C618.655 63.5002 619.775 64.6192 619.775 65.9999C619.775 66.2574 619.736 66.5059 619.664 66.7397C618.626 67.0576 617.718 67.6745 617.042 68.4898C615.771 68.3723 614.775 67.3031 614.775 66.0013ZM617.275 64.5006C616.446 64.5008 615.775 65.1726 615.775 66.001C615.775 66.8294 616.447 67.5008 617.276 67.5006C618.104 67.5003 618.775 66.8286 618.775 66.0002C618.775 65.1717 618.103 64.5003 617.275 64.5006ZM621.278 76.4995C623.763 76.4988 625.777 74.4835 625.777 71.9982C625.776 69.5129 623.761 67.4988 621.276 67.4995C618.79 67.5002 616.776 69.5154 616.777 72.0007C616.777 74.486 618.793 76.5002 621.278 76.4995ZM623.63 70.1453C623.825 70.3405 623.825 70.657 623.63 70.8524L620.631 73.8532C620.436 74.0485 620.119 74.0486 619.924 73.8534L618.923 72.8537C618.728 72.6585 618.728 72.3419 618.923 72.1466C619.118 71.9513 619.435 71.9512 619.63 72.1464L620.277 72.7926L622.923 70.1455C623.118 69.9501 623.434 69.9501 623.63 70.1453ZM616.376 69.5008L614.276 69.5014C613.448 69.5016 612.776 70.4565 612.777 71.2518L612.777 71.5018C612.777 73.232 614.332 75.1414 616.998 75.4556C616.712 75.1017 616.469 74.7117 616.276 74.2933C614.593 73.7915 613.777 72.4797 613.777 71.5016L613.777 71.2516C613.777 71.1121 613.846 70.8902 613.996 70.7043C614.146 70.5168 614.26 70.5014 614.276 70.5014L615.983 70.5009C616.082 70.1523 616.214 69.8177 616.376 69.5008Z" fill="#220B3A"/>
<path d="M658.595 65.3229C659.363 64.5551 660.607 64.5551 661.375 65.3229C662.143 66.0907 662.143 67.3355 661.375 68.1032L660.791 68.6873L658.011 65.907L658.595 65.3229ZM657.48 66.4373L652.691 71.2266C652.411 71.5072 652.21 71.8581 652.112 72.2425L651.46 74.7816C651.427 74.91 651.464 75.0463 651.558 75.14C651.652 75.2338 651.788 75.271 651.916 75.2381L654.456 74.5864C654.84 74.4877 655.191 74.2876 655.471 74.0069L660.261 69.2177L657.48 66.4373Z" fill="white"/>
<path d="M698.285 68V74.6667H692.951V68H698.285ZM697.285 64H693.951L693.285 64.6667H690.951V66H700.285V64.6667H697.951L697.285 64ZM699.618 66.6667H691.618V74.6667C691.618 75.4 692.218 76 692.951 76H698.285C699.018 76 699.618 75.4 699.618 74.6667V66.6667Z" fill="white"/>
<path d="M737.067 63.7639C738.091 62.7402 739.75 62.7402 740.774 63.7639C741.798 64.7875 741.798 66.4473 740.774 67.471L739.995 68.2498L736.288 64.5427L737.067 63.7639ZM735.581 65.2498L729.195 71.6355C728.821 72.0097 728.554 72.4775 728.423 72.99L727.554 76.3755C727.51 76.5467 727.56 76.7284 727.685 76.8534C727.81 76.9783 727.991 77.028 728.162 76.9841L731.548 76.1151C732.06 75.9836 732.528 75.7168 732.902 75.3426L739.288 68.9569L735.581 65.2498Z" fill="#2B2B2B"/>
<path d="M771.458 70C771.458 69.2972 771.502 68.6247 771.583 68H775.333C775.414 68.6247 775.458 69.2972 775.458 70C775.458 70.7028 775.414 71.3753 775.333 72H771.583C771.502 71.3753 771.458 70.7028 771.458 70ZM770.575 72C770.499 71.3652 770.458 70.6934 770.458 70C770.458 69.3066 770.499 68.6348 770.575 68H767.799C767.578 68.6256 767.458 69.2987 767.458 70C767.458 70.7013 767.578 71.3744 767.799 72H770.575ZM768.261 73H770.73C770.856 73.6551 771.023 74.254 771.224 74.7757C771.358 75.125 771.51 75.4476 771.681 75.7326C770.227 75.2824 769.009 74.2939 768.261 73ZM771.75 73H775.166C775.056 73.5266 774.918 74.0035 774.759 74.4167C774.546 74.9712 774.304 75.3857 774.061 75.6528C773.818 75.9198 773.614 76 773.458 76C773.302 76 773.098 75.9198 772.855 75.6528C772.612 75.3857 772.37 74.9712 772.157 74.4167C771.998 74.0035 771.86 73.5266 771.75 73ZM776.186 73C776.06 73.6551 775.893 74.254 775.692 74.7757C775.558 75.125 775.406 75.4476 775.235 75.7326C776.689 75.2824 777.907 74.2939 778.655 73H776.186ZM779.117 72C779.338 71.3744 779.458 70.7013 779.458 70C779.458 69.2987 779.338 68.6256 779.117 68H776.341C776.417 68.6348 776.458 69.3066 776.458 70C776.458 70.6934 776.417 71.3652 776.341 72H779.117ZM774.759 65.5833C774.918 65.9965 775.056 66.4734 775.166 67H771.75C771.86 66.4734 771.998 65.9965 772.157 65.5833C772.37 65.0288 772.612 64.6143 772.855 64.3472C773.098 64.0802 773.302 64 773.458 64C773.614 64 773.818 64.0802 774.061 64.3472C774.304 64.6143 774.546 65.0288 774.759 65.5833ZM776.186 67H778.655C777.907 65.7061 776.689 64.7176 775.235 64.2674C775.406 64.5524 775.558 64.875 775.692 65.2243C775.893 65.746 776.06 66.3449 776.186 67ZM768.261 67H770.73C770.856 66.3449 771.023 65.746 771.224 65.2243C771.358 64.875 771.51 64.5524 771.681 64.2674C770.227 64.7176 769.009 65.7061 768.261 67Z" fill="#2B2B2B"/>
<path d="M814.795 71.8792H814.136L813.903 71.6542C814.72 70.7042 815.211 69.4709 815.211 68.1292C815.211 65.1375 812.786 62.7125 809.795 62.7125C806.803 62.7125 804.378 65.1375 804.378 68.1292C804.378 71.1209 806.803 73.5459 809.795 73.5459C811.136 73.5459 812.37 73.0542 813.32 72.2375L813.545 72.4709V73.1292L817.711 77.2875L818.953 76.0459L814.795 71.8792ZM809.795 71.8792C807.72 71.8792 806.045 70.2042 806.045 68.1292C806.045 66.0542 807.72 64.3792 809.795 64.3792C811.87 64.3792 813.545 66.0542 813.545 68.1292C813.545 70.2042 811.87 71.8792 809.795 71.8792Z" fill="#2B2B2B"/>
<defs>
<clipPath id="clip0_269_1141">
<rect width="12" height="12" fill="white" transform="translate(124.76 8)"/>
</clipPath>
<clipPath id="clip1_269_1141">
<rect width="20" height="20" fill="white" transform="translate(355.36 4)"/>
</clipPath>
<clipPath id="clip2_269_1141">
<rect width="20" height="20" fill="white" transform="translate(398.28 4)"/>
</clipPath>
<clipPath id="clip3_269_1141">
<rect width="20" height="20" fill="white" transform="translate(441.2 4)"/>
</clipPath>
<clipPath id="clip4_269_1141">
<rect width="20" height="20" fill="white" transform="translate(484.12 4)"/>
</clipPath>
</defs>
</svg>
