<svg width="480" height="32" viewBox="0 0 480 32" fill="none" xmlns="http://www.w3.org/2000/svg">
<g clip-path="url(#clip0_248_75)">
<path d="M9.6002 16C9.6002 15.5581 9.95837 15.2 10.4002 15.2H15.2002V10.4C15.2002 9.95812 15.5584 9.59995 16.0002 9.59995C16.442 9.59995 16.8002 9.95812 16.8002 10.4V15.2H21.6002C22.042 15.2 22.4002 15.5581 22.4002 16C22.4002 16.4418 22.042 16.8 21.6002 16.8H16.8002V21.6C16.8002 22.0418 16.442 22.4 16.0002 22.4C15.5584 22.4 15.2002 22.0418 15.2002 21.6V16.8H10.4002C9.95837 16.8 9.6002 16.4418 9.6002 16ZM16.0002 28.8C23.0694 28.8 28.8002 23.0692 28.8002 16C28.8002 8.93071 23.0694 3.19995 16.0002 3.19995C8.93095 3.19995 3.2002 8.93071 3.2002 16C3.2002 23.0692 8.93095 28.8 16.0002 28.8ZM16.0002 27.2C9.81461 27.2 4.8002 22.1855 4.8002 16C4.8002 9.81436 9.81461 4.79995 16.0002 4.79995C22.1858 4.79995 27.2002 9.81436 27.2002 16C27.2002 22.1855 22.1858 27.2 16.0002 27.2Z" fill="white"/>
</g>
<g clip-path="url(#clip1_248_75)">
<path d="M68.8002 16C68.8002 23.0692 63.0694 28.8 56.0002 28.8C48.931 28.8 43.2002 23.0692 43.2002 16C43.2002 8.93071 48.931 3.19995 56.0002 3.19995C63.0694 3.19995 68.8002 8.93071 68.8002 16ZM49.6002 16C49.6002 16.4418 49.9584 16.8 50.4002 16.8H55.2002V21.6C55.2002 22.0418 55.5584 22.4 56.0002 22.4C56.442 22.4 56.8002 22.0418 56.8002 21.6V16.8H61.6002C62.042 16.8 62.4002 16.4418 62.4002 16C62.4002 15.5581 62.042 15.2 61.6002 15.2H56.8002V10.4C56.8002 9.95812 56.442 9.59995 56.0002 9.59995C55.5584 9.59995 55.2002 9.95812 55.2002 10.4V15.2H50.4002C49.9584 15.2 49.6002 15.5581 49.6002 16Z" fill="white"/>
</g>
<path d="M90 7.63831C87.691 7.63831 85.8192 9.51012 85.8192 11.8191C85.8192 14.1281 87.691 16 90 16C92.309 16 94.1809 14.1281 94.1809 11.8191C94.1809 9.51012 92.309 7.63831 90 7.63831ZM84.7831 17.0452C83.6276 17.0452 82.6836 17.9721 82.6836 19.1356C82.6836 20.9032 83.5541 22.236 84.9151 23.1038C86.255 23.9581 88.0614 24.3616 90 24.3616C91.9386 24.3616 93.745 23.9581 95.085 23.1038C96.446 22.236 97.3165 20.9032 97.3165 19.1356C97.3165 17.9812 96.3805 17.0452 95.2261 17.0452L84.7831 17.0452Z" fill="white"/>
<path d="M118 7.63831C115.691 7.63831 113.819 9.51012 113.819 11.8191C113.819 14.1281 115.691 16 118 16C120.309 16 122.181 14.1281 122.181 11.8191C122.181 9.51012 120.309 7.63831 118 7.63831ZM112.783 17.0452C111.628 17.0452 110.684 17.9721 110.684 19.1356C110.684 20.9032 111.554 22.236 112.915 23.1038C114.255 23.9581 116.061 24.3616 118 24.3616C119.939 24.3616 121.745 23.9581 123.085 23.1038C124.446 22.236 125.316 20.9032 125.316 19.1356C125.316 17.9812 124.38 17.0452 123.226 17.0452L112.783 17.0452Z" fill="#6020A7"/>
<path d="M144.952 8.04C145.548 7.50441 146.452 7.50441 147.048 8.04L152.796 13.2064C153.127 13.5038 153.316 13.9279 153.316 14.373V21.7481C153.316 22.6143 152.615 23.3164 151.749 23.3164H140.251C139.386 23.3164 138.684 22.6143 138.684 21.7481V14.373C138.684 13.9279 138.873 13.5038 139.204 13.2064L144.952 8.04ZM149.505 14.7992C149.709 14.595 149.709 14.264 149.505 14.0599C149.301 13.8557 148.97 13.8557 148.766 14.0599L144.955 17.8723L143.234 16.1509C143.03 15.9467 142.699 15.9467 142.495 16.1509C142.291 16.355 142.291 16.686 142.495 16.8902L144.585 18.9812C144.789 19.1853 145.12 19.1853 145.324 18.9812L149.505 14.7992Z" fill="white"/>
<path d="M172.952 8.04C173.548 7.50441 174.452 7.50441 175.048 8.04L180.796 13.2064C181.127 13.5038 181.316 13.9279 181.316 14.373V21.7481C181.316 22.6143 180.615 23.3164 179.749 23.3164H168.251C167.386 23.3164 166.684 22.6143 166.684 21.7481V14.373C166.684 13.9279 166.873 13.5038 167.204 13.2064L172.952 8.04ZM177.505 14.7992C177.709 14.595 177.709 14.264 177.505 14.0599C177.301 13.8557 176.97 13.8557 176.766 14.0599L172.955 17.8723L171.234 16.1509C171.03 15.9467 170.699 15.9467 170.495 16.1509C170.291 16.355 170.291 16.686 170.495 16.8902L172.585 18.9812C172.789 19.1853 173.12 19.1853 173.324 18.9812L177.505 14.7992Z" fill="#6020A7"/>
<path d="M195.729 9.20611C195.729 8.34024 196.43 7.63831 197.296 7.63831H206.703C207.569 7.63831 208.271 8.34024 208.271 9.20611V22.7938C208.271 23.6597 207.569 24.3616 206.703 24.3616H197.296C196.43 24.3616 195.729 23.6597 195.729 22.7938V9.20611ZM197.819 12.3417C197.819 12.6304 198.053 12.8643 198.342 12.8643H205.658C205.947 12.8643 206.181 12.6304 206.181 12.3417C206.181 12.0531 205.947 11.8191 205.658 11.8191H198.342C198.053 11.8191 197.819 12.0531 197.819 12.3417ZM198.342 13.9095C198.053 13.9095 197.819 14.1435 197.819 14.4321C197.819 14.7208 198.053 14.9547 198.342 14.9547H205.658C205.947 14.9547 206.181 14.7208 206.181 14.4321C206.181 14.1435 205.947 13.9095 205.658 13.9095H198.342ZM197.819 16.5226C197.819 16.8112 198.053 17.0452 198.342 17.0452H202.522C202.811 17.0452 203.045 16.8112 203.045 16.5226C203.045 16.2339 202.811 16 202.522 16H198.342C198.053 16 197.819 16.2339 197.819 16.5226Z" fill="white"/>
<path d="M223.729 9.20611C223.729 8.34024 224.43 7.63831 225.296 7.63831H234.703C235.569 7.63831 236.271 8.34024 236.271 9.20611V22.7938C236.271 23.6597 235.569 24.3616 234.703 24.3616H225.296C224.43 24.3616 223.729 23.6597 223.729 22.7938V9.20611ZM225.819 12.3417C225.819 12.6304 226.053 12.8643 226.342 12.8643H233.658C233.947 12.8643 234.181 12.6304 234.181 12.3417C234.181 12.0531 233.947 11.8191 233.658 11.8191H226.342C226.053 11.8191 225.819 12.0531 225.819 12.3417ZM226.342 13.9095C226.053 13.9095 225.819 14.1435 225.819 14.4321C225.819 14.7208 226.053 14.9547 226.342 14.9547H233.658C233.947 14.9547 234.181 14.7208 234.181 14.4321C234.181 14.1435 233.947 13.9095 233.658 13.9095H226.342ZM225.819 16.5226C225.819 16.8112 226.053 17.0452 226.342 17.0452H230.522C230.811 17.0452 231.045 16.8112 231.045 16.5226C231.045 16.2339 230.811 16 230.522 16H226.342C226.053 16 225.819 16.2339 225.819 16.5226Z" fill="#6020A7"/>
<path d="M256.001 9.72888C253.403 9.72888 251.297 11.8347 251.297 14.4323V16.9423L250.289 19.4644C250.225 19.6254 250.245 19.8078 250.342 19.9514C250.439 20.0949 250.601 20.1809 250.775 20.1809H261.227C261.4 20.1809 261.562 20.0949 261.659 19.9514C261.757 19.8078 261.776 19.6254 261.712 19.4644L260.704 16.9423V14.9549C259.261 14.9549 258.091 13.785 258.091 12.3419C258.091 11.6786 258.338 11.0731 258.745 10.6123C257.973 10.0564 257.025 9.72888 256.001 9.72888ZM256.001 22.794C255.027 22.794 254.208 22.1278 253.976 21.2261H258.025C257.793 22.1278 256.975 22.794 256.001 22.794ZM260.704 13.9097C261.57 13.9097 262.272 13.2078 262.272 12.3419C262.272 11.476 261.57 10.7741 260.704 10.7741C259.838 10.7741 259.136 11.476 259.136 12.3419C259.136 13.2078 259.838 13.9097 260.704 13.9097Z" fill="white"/>
<path d="M280.001 9.72888C277.403 9.72888 275.297 11.8347 275.297 14.4323V16.9423L274.289 19.4644C274.225 19.6254 274.245 19.8078 274.342 19.9514C274.439 20.0949 274.601 20.1809 274.775 20.1809H285.227C285.4 20.1809 285.562 20.0949 285.659 19.9514C285.757 19.8078 285.776 19.6254 285.712 19.4644L284.704 16.9423V14.9549C283.261 14.9549 282.091 13.785 282.091 12.3419C282.091 11.6786 282.338 11.0731 282.745 10.6123C281.973 10.0564 281.025 9.72888 280.001 9.72888ZM280.001 22.794C279.027 22.794 278.208 22.1278 277.976 21.2261H282.025C281.793 22.1278 280.975 22.794 280.001 22.794ZM284.704 13.9097C285.57 13.9097 286.272 13.2078 286.272 12.3419C286.272 11.476 285.57 10.7741 284.704 10.7741C283.838 10.7741 283.136 11.476 283.136 12.3419C283.136 13.2078 283.838 13.9097 284.704 13.9097Z" fill="#6020A7"/>
<path d="M297.809 13.9967C298.091 13.1225 298.557 12.3201 299.171 11.64C299.275 11.525 299.438 11.4841 299.584 11.5362L301.052 12.0612C301.45 12.2035 301.888 11.9961 302.031 11.598C302.045 11.5589 302.055 11.5187 302.063 11.4779L302.343 9.94245C302.37 9.78979 302.488 9.66904 302.639 9.63673C303.084 9.54221 303.539 9.49414 304 9.49414C304.461 9.49414 304.916 9.54215 305.36 9.63656C305.512 9.66884 305.629 9.78952 305.657 9.94212L305.937 11.4778C306.013 11.8936 306.412 12.1693 306.828 12.0934C306.869 12.086 306.909 12.0752 306.948 12.0613L308.416 11.5362C308.562 11.4841 308.725 11.525 308.829 11.64C309.443 12.3201 309.909 13.1225 310.192 13.9967C310.239 14.1442 310.193 14.3059 310.075 14.4062L308.885 15.4166C308.563 15.6902 308.523 16.1732 308.797 16.4955C308.824 16.5271 308.853 16.5566 308.885 16.5835L310.075 17.5939C310.193 17.6942 310.239 17.8559 310.192 18.0034C309.909 18.8775 309.443 19.68 308.829 20.36C308.725 20.475 308.562 20.516 308.416 20.4638L306.948 19.9388C306.55 19.7966 306.112 20.004 305.97 20.402C305.956 20.4412 305.945 20.4814 305.937 20.5224L305.657 22.058C305.629 22.2106 305.512 22.3312 305.36 22.3635C304.916 22.4579 304.461 22.5059 304 22.5059C303.539 22.5059 303.084 22.4579 302.639 22.3633C302.488 22.331 302.37 22.2103 302.343 22.0576L302.063 20.5223C301.987 20.1064 301.588 19.8308 301.173 19.9066C301.132 19.9141 301.092 19.9249 301.052 19.9388L299.584 20.4638C299.438 20.516 299.275 20.475 299.171 20.36C298.557 19.68 298.091 18.8775 297.809 18.0034C297.761 17.8559 297.807 17.6942 297.925 17.5939L299.115 16.5835C299.437 16.3099 299.477 15.8269 299.203 15.5046C299.176 15.4729 299.147 15.4435 299.115 15.4166L297.925 14.4062C297.807 14.3059 297.761 14.1442 297.809 13.9967ZM302.469 16C302.469 16.8455 303.155 17.5308 304 17.5308C304.846 17.5308 305.531 16.8455 305.531 16C305.531 15.1546 304.846 14.4692 304 14.4692C303.155 14.4692 302.469 15.1546 302.469 16Z" fill="white"/>
<path d="M321.809 13.9967C322.091 13.1225 322.557 12.3201 323.171 11.64C323.275 11.525 323.438 11.4841 323.584 11.5362L325.052 12.0612C325.45 12.2035 325.888 11.9961 326.031 11.598C326.045 11.5589 326.055 11.5187 326.063 11.4779L326.343 9.94245C326.37 9.78979 326.488 9.66904 326.639 9.63673C327.084 9.54221 327.539 9.49414 328 9.49414C328.461 9.49414 328.916 9.54215 329.36 9.63656C329.512 9.66884 329.629 9.78952 329.657 9.94212L329.937 11.4778C330.013 11.8936 330.412 12.1693 330.828 12.0934C330.869 12.086 330.909 12.0752 330.948 12.0613L332.416 11.5362C332.562 11.4841 332.725 11.525 332.829 11.64C333.443 12.3201 333.909 13.1225 334.192 13.9967C334.239 14.1442 334.193 14.3059 334.075 14.4062L332.885 15.4166C332.563 15.6902 332.523 16.1732 332.797 16.4955C332.824 16.5271 332.853 16.5566 332.885 16.5835L334.075 17.5939C334.193 17.6942 334.239 17.8559 334.192 18.0034C333.909 18.8775 333.443 19.68 332.829 20.36C332.725 20.475 332.562 20.516 332.416 20.4638L330.948 19.9388C330.55 19.7966 330.112 20.004 329.97 20.402C329.956 20.4412 329.945 20.4814 329.937 20.5224L329.657 22.058C329.629 22.2106 329.512 22.3312 329.36 22.3635C328.916 22.4579 328.461 22.5059 328 22.5059C327.539 22.5059 327.084 22.4579 326.639 22.3633C326.488 22.331 326.37 22.2103 326.343 22.0576L326.063 20.5223C325.987 20.1064 325.588 19.8308 325.173 19.9066C325.132 19.9141 325.092 19.9249 325.052 19.9388L323.584 20.4638C323.438 20.516 323.275 20.475 323.171 20.36C322.557 19.68 322.091 18.8775 321.809 18.0034C321.761 17.8559 321.807 17.6942 321.925 17.5939L323.115 16.5835C323.437 16.3099 323.477 15.8269 323.203 15.5046C323.176 15.4729 323.147 15.4435 323.115 15.4166L321.925 14.4062C321.807 14.3059 321.761 14.1442 321.809 13.9967ZM326.469 16C326.469 16.8455 327.155 17.5308 328 17.5308C328.846 17.5308 329.531 16.8455 329.531 16C329.531 15.1546 328.846 14.4692 328 14.4692C327.155 14.4692 326.469 15.1546 326.469 16Z" fill="#6020A7"/>
<g clip-path="url(#clip2_248_75)">
<path d="M352 8.66663V9.99996M352 22V23.3333M346.814 10.8133L347.76 11.76M356.24 20.24L357.187 21.1866M344.667 16H346M358 16H359.334M346.814 21.1866L347.76 20.24M356.24 11.76L357.187 10.8133M355.334 16C355.334 17.8409 353.841 19.3333 352 19.3333C350.159 19.3333 348.667 17.8409 348.667 16C348.667 14.159 350.159 12.6666 352 12.6666C353.841 12.6666 355.334 14.159 355.334 16Z" stroke="white" stroke-width="1.5" stroke-linecap="round" stroke-linejoin="round"/>
</g>
<g clip-path="url(#clip3_248_75)">
<path d="M376 8.66663V9.99996M376 22V23.3333M370.814 10.8133L371.76 11.76M380.24 20.24L381.187 21.1866M368.667 16H370M382 16H383.334M370.814 21.1866L371.76 20.24M380.24 11.76L381.187 10.8133M379.334 16C379.334 17.8409 377.841 19.3333 376 19.3333C374.159 19.3333 372.667 17.8409 372.667 16C372.667 14.159 374.159 12.6666 376 12.6666C377.841 12.6666 379.334 14.159 379.334 16Z" stroke="#6020A7" stroke-width="1.5" stroke-linecap="round" stroke-linejoin="round"/>
</g>
<path d="M404.181 23.3165H400.523V16.5226H407.316V20.1809C407.316 21.9126 405.913 23.3165 404.181 23.3165ZM407.316 15.4774H400.523V8.68359H404.181C405.913 8.68359 407.316 10.0875 407.316 11.8192V15.4774ZM395.819 8.68359H399.477V23.3165H395.819C394.087 23.3165 392.684 21.9126 392.684 20.1809V11.8192C392.684 10.0875 394.087 8.68359 395.819 8.68359Z" fill="white"/>
<path d="M428.181 23.3165H424.523V16.5226H431.316V20.1809C431.316 21.9126 429.913 23.3165 428.181 23.3165ZM431.316 15.4774H424.523V8.68359H428.181C429.913 8.68359 431.316 10.0875 431.316 11.8192V15.4774ZM419.819 8.68359H423.477V23.3165H419.819C418.087 23.3165 416.684 21.9126 416.684 20.1809V11.8192C416.684 10.0875 418.087 8.68359 419.819 8.68359Z" fill="#6020A7"/>
<g clip-path="url(#clip4_248_75)">
<path d="M439.639 12.8645C439.639 11.1327 441.043 9.72888 442.774 9.72888H453.226C454.958 9.72888 456.362 11.1327 456.362 12.8645V19.1357C456.362 20.8675 454.958 22.2714 453.226 22.2714H442.774C441.043 22.2714 439.639 20.8675 439.639 19.1357V12.8645ZM441.729 12.8645V14.9549C441.729 15.5322 442.197 16.0001 442.774 16.0001H453.226C453.804 16.0001 454.272 15.5322 454.272 14.9549V12.8645C454.272 12.2872 453.804 11.8193 453.226 11.8193H442.774C442.197 11.8193 441.729 12.2872 441.729 12.8645ZM453.226 12.8645H442.774V14.9549H453.226V12.8645ZM450.091 17.0453C449.513 17.0453 449.046 17.5133 449.046 18.0905V19.1357C449.046 19.713 449.513 20.1809 450.091 20.1809H453.226C453.804 20.1809 454.272 19.713 454.272 19.1357V18.0905C454.272 17.5133 453.804 17.0453 453.226 17.0453H450.091ZM450.091 18.0905H453.226V19.1357H450.091V18.0905ZM441.729 17.5679C441.729 17.8566 441.963 18.0905 442.252 18.0905H447.478C447.766 18.0905 448 17.8566 448 17.5679C448 17.2793 447.766 17.0453 447.478 17.0453H442.252C441.963 17.0453 441.729 17.2793 441.729 17.5679ZM442.252 19.1357C441.963 19.1357 441.729 19.3697 441.729 19.6583C441.729 19.947 441.963 20.1809 442.252 20.1809H447.478C447.766 20.1809 448 19.947 448 19.6583C448 19.3697 447.766 19.1357 447.478 19.1357H442.252Z" fill="white"/>
</g>
<g clip-path="url(#clip5_248_75)">
<path d="M463.639 12.8645C463.639 11.1327 465.043 9.72888 466.774 9.72888H477.226C478.958 9.72888 480.362 11.1327 480.362 12.8645V19.1357C480.362 20.8675 478.958 22.2714 477.226 22.2714H466.774C465.043 22.2714 463.639 20.8675 463.639 19.1357V12.8645ZM465.729 12.8645V14.9549C465.729 15.5322 466.197 16.0001 466.774 16.0001H477.226C477.804 16.0001 478.272 15.5322 478.272 14.9549V12.8645C478.272 12.2872 477.804 11.8193 477.226 11.8193H466.774C466.197 11.8193 465.729 12.2872 465.729 12.8645ZM477.226 12.8645H466.774V14.9549H477.226V12.8645ZM474.091 17.0453C473.513 17.0453 473.046 17.5133 473.046 18.0905V19.1357C473.046 19.713 473.513 20.1809 474.091 20.1809H477.226C477.804 20.1809 478.272 19.713 478.272 19.1357V18.0905C478.272 17.5133 477.804 17.0453 477.226 17.0453H474.091ZM474.091 18.0905H477.226V19.1357H474.091V18.0905ZM465.729 17.5679C465.729 17.8566 465.963 18.0905 466.252 18.0905H471.478C471.766 18.0905 472 17.8566 472 17.5679C472 17.2793 471.766 17.0453 471.478 17.0453H466.252C465.963 17.0453 465.729 17.2793 465.729 17.5679ZM466.252 19.1357C465.963 19.1357 465.729 19.3697 465.729 19.6583C465.729 19.947 465.963 20.1809 466.252 20.1809H471.478C471.766 20.1809 472 19.947 472 19.6583C472 19.3697 471.766 19.1357 471.478 19.1357H466.252Z" fill="#6020A7"/>
</g>
<defs>
<clipPath id="clip0_248_75">
<rect width="32" height="32" rx="3.2" fill="white"/>
</clipPath>
<clipPath id="clip1_248_75">
<rect x="40" width="32" height="32" rx="3.2" fill="white"/>
</clipPath>
<clipPath id="clip2_248_75">
<rect width="16" height="16" fill="white" transform="translate(344 8)"/>
</clipPath>
<clipPath id="clip3_248_75">
<rect width="16" height="16" fill="white" transform="translate(368 8)"/>
</clipPath>
<clipPath id="clip4_248_75">
<rect width="16" height="16" fill="white" transform="translate(440 8)"/>
</clipPath>
<clipPath id="clip5_248_75">
<rect width="16" height="16" fill="white" transform="translate(464 8)"/>
</clipPath>
</defs>
</svg>
