<svg width="24" height="24" viewBox="0 0 24 24" fill="none" xmlns="http://www.w3.org/2000/svg">
<g clip-path="url(#clip0_2738_3292)">
<path fill-rule="evenodd" clip-rule="evenodd" d="M6 2.09524V21.9048C6 23.0619 6.92341 24 8.0625 24H21.9375C23.0766 24 24 23.0619 24 21.9048V5.51345C24 4.95376 23.7796 4.41734 23.3879 4.02377L19.9859 0.60556C19.5997 0.217598 19.0786 0 18.5355 0H8.0625C6.92341 0 6 0.93807 6 2.09524ZM7.3125 21.9048V2.09524C7.3125 1.67445 7.64829 1.33333 8.0625 1.33333H18.2812V5.90476C18.2812 6.69374 18.9108 7.33333 19.6875 7.33333H22.6875V21.9048C22.6875 22.3256 22.3517 22.6667 21.9375 22.6667H8.0625C7.64829 22.6667 7.3125 22.3256 7.3125 21.9048ZM22.6875 6V5.51345C22.6875 5.30993 22.6073 5.11487 22.4649 4.97175L19.5938 2.08691V5.90476C19.5938 5.95736 19.6357 6 19.6875 6H22.6875Z" fill="#9D9C9B"/>
<path fill-rule="evenodd" clip-rule="evenodd" d="M15.375 9.84375C15.375 9.48131 15.6688 9.1875 16.0312 9.1875H20.3438C20.7062 9.1875 21 9.48131 21 9.84375C21 10.2062 20.7062 10.5 20.3438 10.5H16.0312C15.6688 10.5 15.375 10.2062 15.375 9.84375Z" fill="#69C997"/>
<path fill-rule="evenodd" clip-rule="evenodd" d="M15.375 12.8438C15.375 12.4813 15.6688 12.1875 16.0312 12.1875H20.3438C20.7062 12.1875 21 12.4813 21 12.8438C21 13.2062 20.7062 13.5 20.3438 13.5H16.0312C15.6688 13.5 15.375 13.2062 15.375 12.8438Z" fill="#54AD7D"/>
<path fill-rule="evenodd" clip-rule="evenodd" d="M15.375 15.8438C15.375 15.4813 15.6688 15.1875 16.0312 15.1875H20.3438C20.7062 15.1875 21 15.4813 21 15.8438C21 16.2062 20.7062 16.5 20.3438 16.5H16.0312C15.6688 16.5 15.375 16.2062 15.375 15.8438Z" fill="#2B593D"/>
<path d="M0 6.9375C0 6.31618 0.50368 5.8125 1.125 5.8125H12.375C12.9963 5.8125 13.5 6.31618 13.5 6.9375V18.1875C13.5 18.8088 12.9963 19.3125 12.375 19.3125H1.125C0.503679 19.3125 0 18.8088 0 18.1875V6.9375Z" fill="#3D8A58"/>
<path d="M6.64746 15.0791C6.85254 15.0791 7.0332 15.0376 7.18945 14.9546C7.3457 14.8667 7.46777 14.73 7.55566 14.5444C7.64355 14.3589 7.68994 14.1172 7.69482 13.8193H9.46729C9.4624 14.3955 9.33301 14.896 9.0791 15.3208C8.83008 15.7456 8.49561 16.0728 8.07568 16.3022C7.66064 16.5317 7.19434 16.6465 6.67676 16.6465C6.14941 16.6465 5.68799 16.5635 5.29248 16.3975C4.90186 16.2266 4.57959 15.98 4.32568 15.6577C4.07178 15.3306 3.88135 14.9326 3.75439 14.4639C3.62744 13.9951 3.56396 13.4604 3.56396 12.8599V12.2153C3.56396 11.6147 3.62744 11.0801 3.75439 10.6113C3.88135 10.1426 4.07178 9.74707 4.32568 9.4248C4.57959 9.09766 4.90186 8.85107 5.29248 8.68506C5.68311 8.51416 6.14209 8.42871 6.66943 8.42871C7.23096 8.42871 7.71924 8.5459 8.13428 8.78027C8.54932 9.01465 8.87402 9.35889 9.1084 9.81299C9.34277 10.2622 9.4624 10.8164 9.46729 11.4756H7.69482C7.68994 11.1533 7.64844 10.8848 7.57031 10.6699C7.49219 10.4502 7.375 10.2842 7.21875 10.1719C7.06738 10.0547 6.87451 9.99609 6.64014 9.99609C6.38623 9.99609 6.17871 10.0474 6.01758 10.1499C5.86133 10.2476 5.7417 10.3916 5.65869 10.582C5.57568 10.7725 5.51709 11.0044 5.48291 11.2778C5.45361 11.5513 5.43896 11.8638 5.43896 12.2153V12.8599C5.43896 13.2212 5.45361 13.541 5.48291 13.8193C5.51221 14.0928 5.56836 14.3247 5.65137 14.5151C5.73438 14.7007 5.854 14.8423 6.01025 14.9399C6.17139 15.0327 6.38379 15.0791 6.64746 15.0791Z" fill="white"/>
</g>
<defs>
<clipPath id="clip0_2738_3292">
<rect width="24" height="24" fill="white"/>
</clipPath>
</defs>
</svg>
