<svg width="112" height="28" viewBox="0 0 112 28" fill="none" xmlns="http://www.w3.org/2000/svg">
<g clip-path="url(#clip0_3_2)">
<path d="M33.0718 2.21029C33.5501 2.49134 34.2005 3.0629 34.4743 3.55441C34.5118 3.62165 34.5303 3.65915 34.5507 3.70403L39.8325 15.3322C39.7375 15.942 39.4546 16.2371 38.7879 16.5043C38.4879 16.6244 38.0498 16.6537 37.9545 16.6651C37.161 16.7439 36.4602 16.5564 35.8653 16.0447C35.7733 15.9655 35.6435 15.8381 35.5953 15.7689C35.5615 15.7203 35.521 15.6693 35.4897 15.608L30.2079 4.0947C30.1716 4.06022 30.139 4.04443 30.1254 4.03738C30.0154 3.97691 29.7556 3.95833 29.7328 3.95682C29.4262 3.93642 28.9884 4.18825 28.9767 4.23132C28.9751 4.23744 28.9403 4.25557 28.9403 4.25557L24.2924 11.1957C24.1062 11.4122 24.1452 11.9983 24.2102 12.2528C24.2493 12.406 24.3237 12.5516 24.4332 12.6895C24.5428 12.8274 24.6797 12.9537 24.844 13.0687C25.0084 13.1836 25.1922 13.2946 25.3957 13.4019C25.5835 13.5091 25.783 13.601 25.9943 13.6776C26.2056 13.7542 26.4286 13.8232 26.6633 13.8845C26.8824 13.9457 27.1132 13.9917 27.3558 14.0223C27.9831 14.1016 28.6921 14.0848 29.3042 13.9649C29.3433 13.9572 29.3864 13.9457 29.4333 13.9304C30.8039 13.3937 31.2009 13.1459 32.438 12.3448C32.6561 12.3894 32.8806 12.4585 33.0601 12.5631C33.4743 12.8044 33.5736 13.0575 33.5648 13.4249C30.6039 16.3238 25.601 17.6353 21.5928 15.1829C21.405 15.068 21.2486 14.943 21.0999 14.8267C20.0106 13.9747 20.0123 13.4117 20.2783 12.5975L26.2643 3.19846C26.3425 3.0759 26.4403 2.961 26.5577 2.85375C26.6751 2.74651 26.8042 2.63927 26.945 2.53202C27.0858 2.4401 27.2384 2.34818 27.4027 2.25626C27.5671 2.16434 27.751 2.08006 27.9544 2.00347C28.2485 1.85952 29.4418 1.64013 29.7971 1.60131C31.0898 1.46006 32.0334 1.60013 33.0718 2.21029Z" fill="#295097"/>
<path d="M57.4266 2.03791C57.4657 2.06089 57.5009 2.0877 57.5322 2.11835V15.4241C57.5322 15.4395 57.5322 15.4586 57.5322 15.4816C57.5322 15.5046 57.5322 15.5237 57.5322 15.539C57.5314 15.625 57.4385 15.7674 57.369 15.84C57.057 16.1661 56.7293 16.4123 56.1942 16.4123C55.7931 16.4123 55.0705 16.4592 54.7153 16.3549C54.2302 16.2124 53.6589 15.8233 53.6589 15.3782L53.5181 10.3684C53.4555 10.2765 53.389 10.1846 53.3186 10.0926C52.4224 8.92265 51.4489 8.36701 50.1026 7.56476C49.7985 7.38355 49.4455 7.20017 49.1166 7.0477C48.8326 6.916 48.5242 6.76483 48.2481 6.62256C48.0994 6.54595 47.9546 6.47701 47.8138 6.41573C47.7043 6.36978 47.5986 6.32381 47.4969 6.27784C47.3952 6.23189 47.2895 6.18592 47.18 6.13997C47.0705 6.094 46.9648 6.04804 46.8631 6.00207C46.7614 5.95612 46.661 5.90089 46.5462 5.86419C46.2093 5.75649 45.8389 5.58291 45.5004 5.43905C45.4519 5.41841 45.3738 5.39385 45.3255 5.38161C44.9366 5.28304 44.2589 5.71217 44.2926 5.88718C44.2937 5.89268 44.2926 12.4156 44.2926 15.6769C44.0901 16.0573 43.2157 16.4057 42.8842 16.4123C42.6229 16.4176 42.348 16.4163 42.086 16.4123C41.3713 16.4017 40.9678 15.8373 40.9827 15.6769V2.92267C41.014 2.87671 41.0453 2.82691 41.0766 2.7733C41.7897 1.55176 43.2977 1.51085 44.7034 1.96897C44.7269 1.97663 44.7543 1.98046 44.7856 1.98046C44.8012 1.99579 44.8247 2.00728 44.856 2.01494C44.8873 2.0226 44.9108 2.02643 44.9264 2.02643C45.1142 2.10304 45.3099 2.17963 45.5133 2.25624C45.9142 2.40718 46.3102 2.56514 46.7105 2.71584C47.4276 2.9859 48.1064 3.28571 48.7997 3.58911C49.0489 3.69813 49.3084 3.81513 49.5509 3.93382C49.6761 3.9951 49.7974 4.05255 49.9148 4.10617C50.0321 4.15979 50.1534 4.21725 50.2786 4.27853C50.529 4.40108 50.7755 4.52366 51.0181 4.64622C51.2606 4.76879 51.4993 4.89135 51.734 5.01391C51.9062 5.10583 52.0783 5.20159 52.2505 5.30117C52.4226 5.40074 52.5948 5.4965 52.7669 5.58843C52.9391 5.69567 53.1112 5.79908 53.2833 5.89867C53.4555 5.99825 53.6276 6.094 53.7998 6.18592C53.965 6.22723 54.2001 6.1462 54.2693 6.02015V2.66989C54.2693 2.63924 54.2693 2.60861 54.2693 2.57797C54.2693 2.41911 54.3708 2.21724 54.5158 2.10686C54.8723 1.83545 55.1923 1.70367 55.6777 1.63575C56.3568 1.54082 56.9125 1.73586 57.4266 2.03791Z" fill="#295097"/>
<path d="M60.2779 1.81595H73.0245C74.0057 2.29603 74.2549 3.20329 73.2464 3.70821C73.166 3.74849 72.7422 3.7444 72.6255 3.74632C72.4822 3.74867 72.1091 3.75651 71.9587 3.75651C71.8446 3.75651 71.7752 3.76186 71.6856 3.76186C71.676 3.76186 69.7177 3.76617 69.3581 3.76617C69.1263 3.79054 69.0224 3.80192 68.8443 3.87898C68.7395 3.92437 68.5487 4.08014 68.494 4.17146C68.4514 4.24251 68.4235 4.32128 68.4235 4.42425C68.4235 4.4434 68.4235 4.46256 68.4235 4.4817V15.3745C68.4235 15.7206 68.1872 15.9911 67.8909 16.1715C67.5665 16.3692 67.3295 16.4212 66.9094 16.4546C66.3428 16.4997 66.0302 16.4829 65.4775 16.3627C65.0832 16.2769 64.5713 16.0852 64.4798 15.7422C64.4798 15.7422 64.4798 15.7384 64.4798 15.7307C64.4798 15.7231 64.4798 15.7116 64.4798 15.6963L64.4947 4.29205L63.7905 3.74051L60.2779 3.74632C60.1684 3.74649 60.0815 3.72692 60.008 3.71186C59.5703 3.62219 59.1283 3.31763 59.1277 2.83858C59.1276 2.81562 59.1278 2.7926 59.1277 2.76964C59.1251 2.39004 59.6302 1.82265 60.2779 1.81595Z" fill="#295097"/>
<path d="M87.9543 3.65441C88.3495 3.91109 88.9148 4.47679 89.081 4.86089C89.1825 5.09525 89.2688 5.55097 89.2688 5.81458C89.2688 5.82991 89.2689 5.84525 89.2688 5.86055C89.2619 7.4614 85.904 8.92537 84.2761 9.45648L84.3465 9.87014C84.4717 9.97739 84.5935 10.0699 84.7265 10.1694C84.8595 10.269 84.9965 10.3648 85.1373 10.4567C86.6936 11.7898 88.0813 12.7045 89.5388 14.237C89.7501 14.4591 89.9496 14.6851 90.1374 14.9149C90.4342 15.3544 90.1955 15.7679 89.7501 16.0295C89.4867 16.1841 89.0655 16.3337 88.7407 16.3972C88.0672 16.5291 86.8163 16.5526 86.1937 16.2478C86.1467 16.2172 86.1037 16.1865 86.0646 16.1559C86.0255 16.1252 85.9902 16.0946 85.959 16.064C85.8651 15.9414 85.7712 15.8188 85.6773 15.6963C85.3943 15.3269 85.1276 14.9317 84.8322 14.5702C84.6287 14.3251 84.4214 14.0838 84.2101 13.8463C83.9988 13.6089 83.7836 13.3676 83.5646 13.1224C83.3298 12.8926 83.0912 12.6628 82.8486 12.433C82.606 12.2032 82.3595 11.9734 82.1091 11.7436C81.9839 11.6363 81.8548 11.5291 81.7218 11.4219C81.5888 11.3146 81.4597 11.1997 81.3345 11.0772C81.1936 10.9699 81.0567 10.8627 80.9237 10.7554C80.7926 10.6497 80.6634 10.5425 80.5363 10.4337C80.4463 10.345 80.3348 10.2053 80.3251 10.089C80.3251 9.77782 80.4629 9.632 80.7124 9.38808C80.7282 9.37257 80.7439 9.35723 80.7594 9.34212C80.796 9.3062 80.8292 9.27372 80.865 9.23871C80.8728 9.23105 80.8807 9.22338 80.8885 9.21572C81.5009 8.61649 83.1749 8.0175 84.0575 7.60708C84.1358 7.57644 84.214 7.53813 84.2923 7.49218C84.4846 7.37923 84.7387 7.1467 84.8322 6.96362C85.2226 6.39047 84.9214 5.49863 84.5035 4.98729C84.3627 4.84941 84.2062 4.71152 84.034 4.57363C83.8619 4.43576 83.6663 4.29787 83.4472 4.15998C83.3376 4.0987 83.2242 4.03742 83.1068 3.97614C82.9894 3.91485 82.876 3.86124 82.7664 3.81527C82.6569 3.76931 82.5434 3.72335 82.426 3.67739C82.3087 3.63143 82.1952 3.59313 82.0857 3.56248C81.8353 3.48588 81.5849 3.43226 81.3345 3.40162C81.0841 3.37098 80.8259 3.35566 80.5598 3.35566C80.419 3.37098 80.2899 3.39013 80.1725 3.41311C80.0551 3.4361 79.9417 3.47056 79.8321 3.51653C79.7226 3.56248 79.6326 3.60845 79.5622 3.65441C79.4917 3.70037 79.4252 3.75399 79.3626 3.81527C79.3 3.87656 79.2453 3.94167 79.1983 4.0106C79.1514 4.07955 79.1122 4.15233 79.0809 4.22893C79.0496 4.29021 79.0183 4.36297 78.987 4.44725C78.9557 4.53151 78.9401 4.61193 78.9401 4.68855V15.5584C78.8876 15.6869 78.8125 15.8441 78.7053 15.9491C78.4944 16.1556 78.0902 16.3247 77.7781 16.3972C77.3901 16.4873 76.9208 16.4584 76.5464 16.4534C76.1747 16.4484 74.8555 15.9483 74.8555 15.7192V4.55065C74.8555 4.35149 74.8868 4.16382 74.9494 3.98763C75.012 3.81144 75.0981 3.64674 75.2076 3.49354C75.6774 2.77091 76.8348 2.39249 77.7429 2.11471C82.0091 0.88626 84.3564 1.6417 87.9543 3.65441Z" fill="#295097"/>
<path d="M104.073 2.24048C104.551 2.52152 105.201 3.09309 105.475 3.58459C105.513 3.65184 105.531 3.68934 105.552 3.73421L110.833 15.3624C110.738 15.9722 110.455 16.2673 109.789 16.5344C109.489 16.6546 109.051 16.6838 108.955 16.6953C108.162 16.7741 107.461 16.5866 106.866 16.0748C106.774 15.9957 106.644 15.8683 106.596 15.7991C106.562 15.7504 106.522 15.6995 106.491 15.6382L101.209 4.12489C101.172 4.0904 101.14 4.07461 101.126 4.06757C101.016 4.00708 100.756 3.98852 100.734 3.987C100.427 3.96661 99.9893 4.21844 99.9776 4.26151C99.976 4.26762 99.9412 4.28575 99.9412 4.28575L95.2933 11.2259C95.107 11.4424 95.1461 12.0285 95.2111 12.283C95.2502 12.4362 95.3246 12.5818 95.4341 12.7197C95.5437 12.8575 95.6806 12.9839 95.8449 13.0988C96.0092 13.2137 96.1931 13.3248 96.3966 13.4321C96.5844 13.5393 96.7839 13.6312 96.9952 13.7078C97.2064 13.7844 97.4294 13.8534 97.6642 13.9146C97.8833 13.9759 98.1141 14.0219 98.3567 14.0525C98.984 14.1318 99.693 14.1149 100.305 13.9951C100.344 13.9874 100.387 13.9759 100.434 13.9606C101.805 13.4239 102.202 13.1761 103.439 12.3749C103.657 12.4195 103.881 12.4887 104.061 12.5933C104.475 12.8346 104.574 13.0876 104.566 13.455C101.605 16.3539 96.6019 17.6655 92.5937 15.213C92.4059 15.0982 92.2495 14.9732 92.1007 14.8569C91.0115 14.0049 91.0131 13.4419 91.2791 12.6277L97.2651 3.22864C97.3434 3.10608 97.4412 2.99118 97.5586 2.88393C97.6759 2.77668 97.805 2.66945 97.9459 2.5622C98.0867 2.47028 98.2393 2.37836 98.4036 2.28644C98.568 2.19452 98.7518 2.11025 98.9553 2.03365C99.2494 1.8897 100.443 1.67032 100.798 1.63149C102.091 1.49024 103.034 1.63032 104.073 2.24048Z" fill="#295097"/>
<path d="M4.66273 1.85767C4.70642 1.86534 4.83777 1.90485 4.87281 1.91824C4.91754 1.93533 5.1443 2.03032 5.18048 2.05112C5.22513 2.07681 5.20299 2.06216 5.25091 2.08558C5.30039 2.10976 5.38669 2.16179 5.43876 2.18893C5.9378 2.44069 9.52688 6.71625 9.97199 7.22014C9.98626 7.23629 9.9994 7.24693 10.0072 7.25459C10.0249 7.27189 10.0357 7.28247 10.0542 7.30054C10.0543 7.30062 10.1457 7.34569 10.1481 7.34647C10.1568 7.3493 10.2867 7.3809 10.289 7.3809C10.3125 7.38089 10.3398 7.38088 10.3711 7.38087C10.3868 7.38086 10.4064 7.38086 10.4298 7.38085C11.3251 7.38054 15.8039 2.77461 16.6595 1.97827C17.2752 1.68071 17.9632 1.74673 18.5492 2.04656C19.1001 2.32846 19.1716 2.75103 19.1717 2.96558L19.1783 15.3292C19.147 15.4211 19.1118 15.5015 19.0728 15.5705C19.0075 15.6857 18.8588 15.851 18.7443 15.9383C18.6147 16.037 18.3998 16.1489 18.2398 16.2142C18.1459 16.2526 18.0442 16.2871 17.9346 16.3178C17.2246 16.4917 15.3917 16.5146 15.1878 15.6178C15.1721 15.5488 15.1642 15.4684 15.1642 15.3765L15.1599 7.31029C15.1204 7.16777 14.8541 7.18338 14.8263 7.18376C14.7778 7.18441 14.5968 7.1994 14.5495 7.24156L10.622 10.7795C10.3162 11.0549 9.50852 11.1215 9.05844 11.0515C9.02205 11.0458 8.61902 10.9659 8.55993 10.9133C8.5517 10.906 8.54143 10.8977 8.54143 10.8977L4.87741 7.13012C4.7009 7.10628 4.48483 7.21798 4.45556 7.33692L4.46009 15.9087C4.44445 15.9547 4.41708 15.9968 4.378 16.0351C4.04271 16.3635 3.45672 16.5295 2.93456 16.5297C2.3992 16.5299 1.86579 16.4814 1.4203 16.22C1.36677 16.1885 1.18828 16.0609 1.17371 16.0247L1.16669 2.71893C1.16664 2.62794 1.27427 2.52619 1.30941 2.49176C1.38761 2.41515 1.47482 2.34679 1.55378 2.27069C1.69793 2.13171 2.16119 1.8139 2.43258 1.74841C2.558 1.719 2.77783 1.70057 2.93848 1.70719C2.95801 1.70798 2.9776 1.70717 2.99716 1.70716C3.01281 1.70716 3.02455 1.70715 3.03237 1.70715C3.04803 1.70715 3.06367 1.70714 3.07933 1.70713C3.74593 1.70691 4.03863 1.74833 4.66273 1.85767Z" fill="#295097"/>
<path fill-rule="evenodd" clip-rule="evenodd" d="M4.14162 19.8685C3.64145 20.8689 3.1913 21.8692 2.79117 22.8695L2.39104 23.8699L1.9909 24.9202L1.64078 25.9706C1.64078 25.9706 1.59077 26.0206 1.49073 26.0206C1.49073 26.0706 1.44072 26.0206 1.3907 25.9706C1.24065 25.8205 1.14062 25.6205 1.14062 25.3704C1.14062 25.1203 1.19063 24.8702 1.24065 24.6701L1.64078 23.3197C1.79084 22.8695 1.89087 22.4694 2.04092 22.0693L2.54109 20.6688C2.64112 20.4687 2.74116 20.2186 2.84119 20.0186C2.94122 19.7685 3.04126 19.5684 3.14129 19.3183C3.19131 19.2183 3.29134 19.1183 3.34136 19.0182C3.44139 18.9182 3.54142 18.8682 3.69147 18.8182C3.74148 18.8182 3.84152 18.8682 3.89154 18.8682C3.89154 18.9182 3.99157 18.9682 4.04159 19.0182C4.0916 19.1183 4.14162 19.2183 4.19164 19.3684L4.24165 19.4684V19.5684C4.24165 19.6685 4.19164 19.7685 4.14162 19.8685Z" fill="#F58634"/>
<path fill-rule="evenodd" clip-rule="evenodd" d="M6.79252 23.2697C6.99258 23.2697 7.24267 23.1696 7.54277 22.9696C7.69282 22.8695 7.89289 22.8195 8.14297 22.8195C8.29302 22.8195 8.44307 22.8195 8.64314 22.8695C8.79319 22.9196 8.94324 23.0196 9.14331 23.1696C9.24335 23.2697 9.34338 23.4197 9.3934 23.6198L9.44341 24.0199L9.54345 24.6201V24.9202V25.2203V25.3704C9.54345 25.4704 9.44341 25.5204 9.29336 25.5204C9.19333 25.5705 9.04328 25.5204 8.99326 25.4204C8.89323 25.3204 8.84321 25.2203 8.84321 25.0703L8.74318 24.37C8.74318 24.32 8.74318 24.22 8.69316 24.0699L8.59313 23.7698C8.54311 23.5698 8.39306 23.4697 8.19299 23.4697C8.09296 23.4697 8.04294 23.4697 7.94291 23.5198C7.6428 23.6198 7.39272 23.7198 7.14263 23.8199C6.84253 24.0699 6.54243 24.27 6.34236 24.5201L5.69214 25.3704C5.59211 25.4704 5.49208 25.5204 5.39204 25.5204H5.19198C5.04192 25.4704 4.99191 25.3704 4.99191 25.2704C4.99191 25.2203 4.99191 25.1703 5.04192 25.0703C5.24199 24.5701 5.44206 24.0699 5.59211 23.6198L5.84219 22.9696L6.04226 22.2193C6.13423 21.9434 6.61883 21.8481 6.7425 22.2193C6.7425 22.2693 6.7425 22.3694 6.69248 22.5194L6.64247 22.7695C6.58694 22.9918 6.42231 23.2697 6.79252 23.2697Z" fill="#F58634"/>
<path fill-rule="evenodd" clip-rule="evenodd" d="M12.1443 23.2697C12.3444 23.2697 12.5945 23.1696 12.8946 22.9696C13.0446 22.8695 13.2447 22.8195 13.4948 22.8195C13.6448 22.8195 13.7949 22.8195 13.9949 22.8695C14.145 22.9196 14.295 23.0196 14.4951 23.1696C14.6452 23.2697 14.6952 23.4197 14.7452 23.6198L14.8452 24.0199L14.8953 24.6201V24.9202V25.2203V25.3704C14.8953 25.4704 14.7952 25.5204 14.6952 25.5204C14.5451 25.5705 14.4451 25.5204 14.3451 25.4204C14.245 25.3204 14.195 25.2203 14.195 25.0703L14.095 24.37C14.095 24.32 14.095 24.22 14.045 24.0699L13.9449 23.7698C13.8949 23.5698 13.7449 23.4697 13.5448 23.4697C13.4448 23.4697 13.3947 23.4697 13.2947 23.5198C12.9946 23.6198 12.7445 23.7198 12.5445 23.8199C12.1943 24.0699 11.8942 24.27 11.7442 24.5201L11.094 25.3704C10.9939 25.4704 10.8939 25.5204 10.7438 25.5204H10.5438C10.4437 25.4704 10.3437 25.3704 10.3437 25.2704C10.3437 25.2203 10.3437 25.1703 10.3937 25.0703C10.5938 24.5701 10.7939 24.0699 10.9439 23.6198L11.194 22.9696L11.4441 22.2193C11.4441 22.0693 11.5441 22.0193 11.7442 21.9692L11.9443 22.0193C11.9943 22.0193 12.0443 22.0693 12.0943 22.2193C12.0943 22.2693 12.0943 22.3694 12.0443 22.5194L11.9943 22.7695C11.9387 22.9918 11.7741 23.2697 12.1443 23.2697Z" fill="#F58634"/>
<path fill-rule="evenodd" clip-rule="evenodd" d="M19.5968 23.4197C19.5968 22.9843 19.2471 22.7695 18.8466 22.7695C18.6965 22.7695 18.5465 22.8195 18.3964 22.8695C18.0963 22.9696 17.8462 23.1196 17.5962 23.3197C16.059 24.3444 16.648 25.5411 18.3964 24.5701C18.781 24.3779 19.5968 23.9666 19.5968 23.4197ZM19.5468 22.2193C19.7928 22.2193 20.1661 22.4265 20.2471 22.6695C20.8211 23.5298 19.3554 24.7552 18.6465 25.0703C17.8466 25.5273 15.7955 25.8018 15.7955 24.6201C15.7955 24.5201 15.8456 24.37 15.8956 24.22C16.0956 23.7698 16.2957 23.4197 16.5458 23.1196C16.7959 22.8695 17.146 22.5694 17.5962 22.3194C17.9963 22.0693 18.3964 21.9192 18.8466 21.8192L19.0466 21.7692C19.0967 21.7692 19.1967 21.7692 19.2467 21.8192C19.3467 21.8692 19.4468 21.9692 19.4968 22.0693L19.5468 22.2193Z" fill="#F58634"/>
<path fill-rule="evenodd" clip-rule="evenodd" d="M26.2491 22.4194L25.899 22.8695L25.5989 23.2196L25.2487 23.6198L24.8986 23.9699C24.7486 24.12 24.5985 24.27 24.4485 24.4201C24.2984 24.5701 24.1484 24.7202 23.9483 24.8702C23.6482 25.1203 23.2981 25.4204 22.8979 25.6205C22.7979 25.7205 22.6979 25.7705 22.5478 25.7705H22.4478C22.3478 25.7705 22.2477 25.7705 22.1477 25.6705C21.683 25.2058 21.6778 22.0592 22.3978 21.8192C22.4478 21.8192 22.5478 21.7692 22.6479 21.7692L22.8479 21.8192C22.8979 21.8192 22.948 21.9192 22.948 22.0693C22.8932 22.3981 22.4828 24.7702 22.8479 24.7702C23.048 24.7202 23.2981 24.5201 23.6982 24.17L24.4985 23.3197L24.9486 22.7695L25.3988 22.2193L25.6989 21.9192C25.7989 21.7692 25.899 21.7191 26.049 21.7191C26.1991 21.7692 26.2991 21.8192 26.3991 21.8692V22.0192C26.3991 22.0693 26.3991 22.1193 26.3991 22.1693L26.2491 22.4194Z" fill="#F58634"/>
<path fill-rule="evenodd" clip-rule="evenodd" d="M30.8506 23.4697C30.8006 23.5198 30.7506 23.5698 30.6506 23.5698L30.4505 23.6198C30.3505 23.6198 30.2504 23.5698 30.2004 23.4697C30.1504 23.4197 30.0504 23.3697 29.9503 23.3197L29.8003 23.2697C29.6002 23.2697 29.4502 23.3697 29.3001 23.4697L29 23.6698L28.7499 23.9199C28.6142 24.0749 27.7007 24.9533 28.5498 24.6701C28.7499 24.5701 28.95 24.4701 29.1501 24.32L29.4502 24.12L29.7503 23.9699L29.9503 23.9199C30.0504 23.9199 30.1504 23.9699 30.2504 24.0699L30.6506 24.4201C31.0978 24.8673 31.4109 25.0228 32.001 25.1703C32.051 25.2203 32.101 25.2704 32.1511 25.4204C32.2308 25.6595 32.2123 25.8205 31.901 25.8205H31.851C31.6509 25.8205 31.4508 25.7705 31.3008 25.6705C31.1007 25.5705 30.9006 25.4704 30.6506 25.3204C30.6005 25.2704 30.4505 25.1703 30.3004 25.0203C30.1004 24.8702 30.0003 24.8202 29.8503 24.8202H29.7503C29.5002 24.8202 29.2001 24.9202 28.9 25.2203C28.501 25.5053 28.1068 25.7705 27.5995 25.7705C27.1407 25.7705 27.0994 25.6152 27.0994 25.2203C27.2494 24.6201 27.5495 24.0699 28.0497 23.5698C28.4498 23.1196 28.95 22.7695 29.5502 22.4194C29.6502 22.3194 29.9003 22.2693 30.2004 22.2193H30.3505C30.5505 22.2193 30.7506 22.2693 30.8506 22.4194C30.9507 22.5694 31.0007 22.7695 31.0007 22.9196C31.0007 23.1196 30.9507 23.2697 30.8506 23.4697Z" fill="#F58634"/>
<path fill-rule="evenodd" clip-rule="evenodd" d="M36.6026 19.8185L36.2524 20.2687L35.9523 20.7188C35.6544 21.3147 35.8767 21.114 36.6026 20.9689C36.8103 20.9307 37.0027 21.0093 37.0027 21.219C37.0027 21.319 36.9027 21.4191 36.8026 21.4691L36.5525 21.5191L36.0024 21.6691L35.4522 21.7692C35.2992 21.8458 34.8596 22.7041 34.802 22.8195C34.7019 23.0696 34.6019 23.3197 34.5519 23.5698C34.4475 23.7785 34.4518 23.9957 34.4518 24.22V24.3701C34.4518 25.0079 35.0891 25.0455 35.5022 24.7702C35.6507 24.6711 36.192 24.17 36.3025 24.17C36.3025 24.17 36.3525 24.22 36.4025 24.27C36.4525 24.32 36.4525 24.3701 36.4525 24.4201C36.4025 24.6201 36.3025 24.7202 36.1524 24.8702C35.6353 25.2839 35.273 25.5705 34.5519 25.5705C33.2774 25.5705 33.5021 24.2178 33.7016 23.4197C33.8516 22.9696 34.0017 22.5694 34.2017 22.1693C34.1517 22.1193 34.0017 22.1693 33.6516 22.2693L33.0013 22.4194C32.7654 22.4194 32.6241 22.4649 32.5012 22.2193C32.472 22.0773 32.4833 21.9714 32.5924 21.8669C32.7424 21.7168 33.0748 21.5888 33.625 21.4888L34.2352 21.3576L34.6125 21.2802L34.7019 21.169L35.3521 20.2187C35.49 19.9888 35.8679 19.4028 36.0524 19.2183C36.2335 19.0372 36.5874 18.6874 36.8526 18.8682C36.9027 18.9182 36.9527 18.9682 36.9527 19.0182C37.0486 19.4016 36.8247 19.5426 36.6026 19.8185Z" fill="#F58634"/>
<path fill-rule="evenodd" clip-rule="evenodd" d="M39.9037 22.6195L39.6536 22.9696C39.5035 23.1196 39.4035 23.3697 39.2534 23.6198C39.1534 23.8699 39.0034 24.17 38.9533 24.5201L38.8533 24.9703C38.7747 25.206 38.7157 25.6144 38.5032 25.7205C38.4032 25.7205 38.3531 25.7205 38.2531 25.6705C38.1531 25.5705 38.1031 25.4204 38.1031 25.2704V24.7702C38.2031 24.3201 38.2866 23.8565 38.4532 23.4197C38.6032 23.0196 38.8033 22.6195 38.9533 22.2694C39.0353 22.1055 39.1361 21.9175 39.2534 21.7692C39.3535 21.6692 39.4535 21.5691 39.6036 21.5691C39.9588 21.5691 40.1538 21.8342 40.1538 22.1693C40.1538 22.3085 39.975 22.5127 39.9037 22.6195ZM41.2541 20.3687C41.2041 20.4687 41.1041 20.5188 40.904 20.5188C40.804 20.5188 40.6539 20.4687 40.6039 20.4187C40.5039 20.3187 40.4539 20.1686 40.4539 20.0186L40.4038 19.8185C40.4038 19.7185 40.4539 19.6185 40.5039 19.5184C40.6039 19.4184 40.7039 19.3684 40.804 19.3684C40.954 19.3684 41.0541 19.4184 41.1541 19.4684C41.2541 19.5684 41.3041 19.6685 41.3041 19.8185L41.3542 19.9686C41.3542 20.1186 41.3041 20.2687 41.2541 20.3687Z" fill="#F58634"/>
<path fill-rule="evenodd" clip-rule="evenodd" d="M48.6566 23.2697H48.7567C49.0067 23.2697 49.2068 23.1697 49.5069 22.9696C49.7611 22.8 50.3198 22.7736 50.6073 22.8696C50.9489 22.9834 51.3166 23.2557 51.4075 23.6198L51.4576 24.0199L51.5076 24.6201C51.5076 24.9447 51.5673 26.0303 50.9574 25.4204C50.9074 25.3204 50.8574 25.2203 50.8074 25.0703C50.7428 24.6184 50.788 23.4698 50.1571 23.4698C50.1071 23.4698 50.0071 23.4698 49.907 23.5198C49.6069 23.6198 49.3569 23.7198 49.1568 23.8199C48.8067 24.07 48.5566 24.27 48.3565 24.5201L47.7063 25.3704C47.6063 25.4704 47.5062 25.5204 47.3562 25.5204C47.2008 25.5204 46.9561 25.4732 46.9561 25.2704C46.9561 25.2203 46.9661 25.1599 47.0061 25.0703C47.2061 24.5701 47.4062 24.07 47.5563 23.6198L48.0564 22.2193C48.123 22.0199 48.7066 21.6229 48.7066 22.5194L48.6066 22.7695L48.5066 23.0696C48.5066 23.1697 48.5566 23.2197 48.6566 23.2697Z" fill="#F58634"/>
<path fill-rule="evenodd" clip-rule="evenodd" d="M63.4616 20.0186C62.6613 21.269 62.0611 22.6195 61.611 24.07V24.17C61.611 24.17 61.611 24.22 61.661 24.22C61.711 24.22 61.8111 24.17 61.9111 24.12C62.2096 23.9211 62.7919 23.5393 63.0115 23.3197C63.2115 23.1697 63.4616 23.0696 63.7617 23.0696C63.9618 23.0696 64.1619 23.1697 64.3119 23.2697C64.6449 23.6027 64.7199 23.7933 64.8621 24.22C64.9056 24.3072 65.0121 25.6386 65.0121 25.7705C65.0121 26.188 64.4633 26.2274 64.3119 25.4704C64.2432 25.2298 64.2191 24.985 64.1118 24.7702C64.0618 24.5701 64.0118 24.3701 63.8617 24.17C63.8117 24.0199 63.6617 23.9199 63.5116 23.8699C63.3616 23.8699 63.2115 23.9699 63.0615 24.07L62.3112 24.7202L62.0111 24.9703L61.711 25.2204L61.3609 25.4204C60.8414 25.7668 60.6106 25.5701 60.6106 25.0203C60.6106 24.3431 60.9452 23.5164 61.1608 22.8696C61.432 22.2587 61.6315 21.5957 61.9611 21.0189L62.2112 20.4687C62.3612 20.0686 62.6113 19.7185 62.8614 19.3684C63.1176 19.0269 64.0118 18.5045 64.0118 19.1683C64.0118 19.2683 64.0118 19.3184 63.9118 19.4184L63.6617 19.7685L63.4616 20.0186Z" fill="#F58634"/>
<path fill-rule="evenodd" clip-rule="evenodd" d="M84.1186 22.8195C83.5684 22.8695 83.0682 23.0696 82.6181 23.3697C82.3036 23.5662 80.1064 25.2703 81.5677 25.2703H81.6677L82.2179 25.1703L82.568 25.0703L82.9182 24.9202C83.1182 24.8202 83.3183 24.7202 83.5684 24.5201C83.8273 24.3758 84.0207 24.5187 83.9185 24.7702C83.5184 25.1703 82.9682 25.4204 82.318 25.6705C81.7678 25.8205 81.3176 25.8705 80.9175 25.8705C78.4208 25.8705 81.409 23.3851 82.1179 22.8695C82.568 22.5194 83.1182 22.2693 83.7184 22.1693C83.9841 22.0894 84.3186 22.1988 84.3186 22.3694C84.3318 22.6592 84.2139 22.8075 84.1186 22.8195Z" fill="#F58634"/>
<path fill-rule="evenodd" clip-rule="evenodd" d="M95.2723 23.9199V24.4201C95.2723 25.0738 95.5362 25.7205 94.9222 25.7205C94.8722 25.7205 94.7722 25.6705 94.7221 25.6205C94.4957 25.394 94.5181 24.9427 94.4721 24.6201V24.32V23.9199V23.7198C94.4721 23.657 94.5571 23.2846 94.372 23.4697C93.9719 23.7698 93.6218 24.12 93.3217 24.4201C92.9215 24.8202 92.5714 25.1203 92.2713 25.3704C91.9218 25.6325 91.5695 25.6701 91.1709 25.5705C90.7966 25.4769 90.5207 25.1061 90.5207 24.7202C90.5207 23.835 90.7135 23.2803 91.221 22.5194C91.4809 21.9996 92.3396 22.1827 91.9712 22.9196L91.8212 23.1696L91.6211 23.5698C91.5211 23.7698 91.421 24.0199 91.371 24.32C91.371 24.5538 91.5549 24.6701 91.7711 24.6701C92.1786 24.6701 93.8512 22.7 94.5721 22.2193C94.6221 22.2193 94.7221 22.1693 94.8222 22.1693C94.9722 22.1693 95.1223 22.2193 95.2223 22.3194C95.3223 22.4194 95.3723 22.5694 95.3723 22.7195V22.8195L95.3223 23.1196L95.2723 23.9199Z" fill="#F58634"/>
<path fill-rule="evenodd" clip-rule="evenodd" d="M110.477 22.1193C110.465 22.1256 109.183 22.293 108.877 22.3694C108.623 22.3694 108.377 22.686 108.377 22.9196C108.377 23.1578 108.607 23.2567 108.777 23.3697L109.127 23.5698C109.488 23.7244 109.727 23.7939 109.727 24.22C109.727 24.4201 109.677 24.5201 109.477 24.6702L108.927 25.0703C108.627 25.2203 108.277 25.3204 107.977 25.4204C107.626 25.5204 107.326 25.5705 106.976 25.5705C106.602 25.59 106.274 25.3466 106.726 25.1203C107.076 25.0703 107.426 25.0203 107.727 24.9202C107.966 24.8405 108.577 24.5701 108.577 24.27C108.577 24.0213 108.067 23.815 107.877 23.7198C107.677 23.6198 107.526 23.4698 107.426 23.2697C107.376 23.1196 107.376 23.0196 107.376 22.9196C107.376 22.8195 107.426 22.6695 107.476 22.5694C107.576 22.3194 107.777 22.0693 108.027 21.9192C108.67 21.5333 109.349 21.4252 110.077 21.369C110.177 21.369 110.327 21.369 110.477 21.4191C110.947 21.5756 110.886 22.0358 110.477 22.1193Z" fill="#F58634"/>
<path fill-rule="evenodd" clip-rule="evenodd" d="M69.4636 23.4697C69.4136 23.5198 69.3636 23.5698 69.2636 23.5698L69.0635 23.6198C68.9635 23.6198 68.8634 23.5698 68.8134 23.4697C68.7634 23.4197 68.6634 23.3697 68.5633 23.3197L68.4133 23.2697C68.2132 23.2697 68.0632 23.3697 67.9131 23.4697L67.613 23.6698L67.3629 23.9199C67.2273 24.0749 66.3138 24.9533 67.1629 24.6701C67.3629 24.5701 67.563 24.4701 67.7631 24.32L68.0632 24.12L68.3633 23.9699L68.5633 23.9199C68.6634 23.9199 68.7634 23.9699 68.8634 24.0699L69.2636 24.4201C69.7108 24.8673 70.0239 25.0228 70.614 25.1703C70.6641 25.2203 70.7141 25.2704 70.7641 25.4204C70.8438 25.6595 70.8253 25.8205 70.514 25.8205H70.464C70.2639 25.8205 70.0639 25.7705 69.9138 25.6705C69.7137 25.5705 69.5137 25.4704 69.2636 25.3204C69.2136 25.2704 69.0635 25.1703 68.9135 25.0203C68.7134 24.8702 68.6134 24.8202 68.4633 24.8202H68.3633C68.1132 24.8202 67.8131 24.9202 67.513 25.2203C67.114 25.5053 66.7198 25.7705 66.2125 25.7705C65.7537 25.7705 65.7124 25.6152 65.7124 25.2203C65.8624 24.6201 66.1625 24.0699 66.6627 23.5698C67.0628 23.1196 67.563 22.7695 68.1632 22.4194C68.2632 22.3194 68.5133 22.2693 68.8134 22.2193H68.9635C69.1635 22.2193 69.3636 22.2693 69.4636 22.4194C69.5637 22.5694 69.6137 22.7695 69.6137 22.9196C69.6137 23.1196 69.5637 23.2697 69.4636 23.4697Z" fill="#F58634"/>
<path fill-rule="evenodd" clip-rule="evenodd" d="M97.9232 23.2697H98.0232C98.2733 23.2697 98.4734 23.1697 98.7735 22.9696C99.0277 22.8 99.5864 22.7736 99.8739 22.8696C100.216 22.9834 100.583 23.2557 100.674 23.6198L100.724 24.0199L100.774 24.6201C100.774 24.9447 100.834 26.0303 100.224 25.4204C100.174 25.3204 100.124 25.2203 100.074 25.0703C100.009 24.6184 100.055 23.4698 99.4237 23.4698C99.3737 23.4698 99.2737 23.4698 99.1736 23.5198C98.8735 23.6198 98.6234 23.7198 98.4234 23.8199C98.0733 24.07 97.8232 24.27 97.6231 24.5201L96.9729 25.3704C96.8728 25.4704 96.7728 25.5204 96.6228 25.5204C96.4674 25.5204 96.2226 25.4732 96.2226 25.2704C96.2226 25.2203 96.2327 25.1599 96.2726 25.0703C96.4727 24.5701 96.6728 24.07 96.8228 23.6198L97.323 22.2193C97.3896 22.0199 97.9732 21.6229 97.9732 22.5194L97.8732 22.7695L97.7731 23.0696C97.7731 23.1697 97.8232 23.2197 97.9232 23.2697Z" fill="#F58634"/>
<path fill-rule="evenodd" clip-rule="evenodd" d="M45.3555 23.4197C45.3555 22.9843 45.0058 22.7695 44.6053 22.7695C44.4552 22.7695 44.3052 22.8195 44.1551 22.8695C43.855 22.9696 43.6049 23.1196 43.3548 23.3197C41.8177 24.3444 42.4067 25.5411 44.1551 24.5701C44.5397 24.3779 45.3555 23.9666 45.3555 23.4197ZM45.3055 22.2193C45.5514 22.2193 45.9248 22.4265 46.0057 22.6695C46.5797 23.5298 45.1141 24.7552 44.4052 25.0703C43.6053 25.5273 41.5542 25.8018 41.5542 24.6201C41.5542 24.5201 41.6043 24.37 41.6543 24.22C41.8543 23.7698 42.0544 23.4197 42.3045 23.1196C42.5546 22.8695 42.9047 22.5694 43.3548 22.3194C43.755 22.0693 44.1551 21.9192 44.6053 21.8192L44.8053 21.7692C44.8553 21.7692 44.9554 21.7692 45.0054 21.8192C45.1054 21.8692 45.2055 21.9692 45.2555 22.0693L45.3055 22.2193Z" fill="#F58634"/>
<path fill-rule="evenodd" clip-rule="evenodd" d="M88.9702 23.4197C88.9702 22.9843 88.6205 22.7695 88.22 22.7695C88.0699 22.7695 87.9199 22.8195 87.7698 22.8695C87.4697 22.9696 87.2196 23.1196 86.9695 23.3197C85.4324 24.3444 86.0214 25.5411 87.7698 24.5701C88.1544 24.3779 88.9702 23.9666 88.9702 23.4197ZM88.9202 22.2193C89.1662 22.2193 89.5395 22.4265 89.6204 22.6695C90.1945 23.5298 88.7288 24.7552 88.0199 25.0703C87.22 25.5273 85.1689 25.8018 85.1689 24.6201C85.1689 24.5201 85.219 24.37 85.269 24.22C85.469 23.7698 85.6691 23.4197 85.9192 23.1196C86.1693 22.8695 86.5194 22.5694 86.9695 22.3194C87.3697 22.0693 87.7698 21.9192 88.22 21.8192L88.42 21.7692C88.4701 21.7692 88.5701 21.7692 88.6201 21.8192C88.7201 21.8692 88.8202 21.9692 88.8702 22.0693L88.9202 22.2193Z" fill="#F58634"/>
<path fill-rule="evenodd" clip-rule="evenodd" d="M59.6242 19.8185L59.274 20.2687L58.9739 20.7188C58.676 21.3147 58.8983 21.114 59.6242 20.9689C59.8319 20.9307 60.0243 21.0093 60.0243 21.219C60.0243 21.319 59.9243 21.4191 59.8242 21.4691L59.5741 21.5191L59.024 21.6691L58.4738 21.7692C58.3208 21.8458 57.8812 22.7041 57.8236 22.8195C57.7235 23.0696 57.6235 23.3197 57.5735 23.5698C57.4691 23.7785 57.4734 23.9957 57.4734 24.22V24.3701C57.4734 25.0079 58.1107 25.0455 58.5238 24.7702C58.6723 24.6711 59.2136 24.17 59.3241 24.17C59.3241 24.17 59.3741 24.22 59.4241 24.27C59.4741 24.32 59.4741 24.3701 59.4741 24.4201C59.4241 24.6201 59.3241 24.7202 59.174 24.8702C58.6569 25.2839 58.2946 25.5705 57.5735 25.5705C56.299 25.5705 56.5237 24.2178 56.7232 23.4197C56.8732 22.9696 57.0233 22.5694 57.2233 22.1693C57.1733 22.1193 57.0233 22.1693 56.6732 22.2693L56.023 22.4194C55.787 22.4194 55.6457 22.4649 55.5228 22.2193C55.4936 22.0773 55.5049 21.9714 55.614 21.8669C55.764 21.7168 56.0964 21.5888 56.6466 21.4888L57.2568 21.3576L57.6341 21.2802L57.7235 21.169L58.3737 20.2187C58.5116 19.9888 58.8895 19.4028 59.074 19.2183C59.2551 19.0372 59.609 18.6874 59.8742 18.8682C59.9243 18.9182 59.9743 18.9682 59.9743 19.0182C60.0702 19.4016 59.8463 19.5426 59.6242 19.8185Z" fill="#F58634"/>
<path fill-rule="evenodd" clip-rule="evenodd" d="M75.2294 19.8185L74.8793 20.2687L74.5792 20.7188C74.2813 21.3147 74.5036 21.114 75.2294 20.9689C75.4372 20.9307 75.6296 21.0093 75.6296 21.219C75.6296 21.319 75.5295 21.4191 75.4295 21.4691L75.1794 21.5191L74.6292 21.6691L74.079 21.7692C73.926 21.8458 73.4865 22.7041 73.4288 22.8195C73.3288 23.0696 73.2287 23.3197 73.1787 23.5698C73.0744 23.7785 73.0787 23.9957 73.0787 24.22V24.3701C73.0787 25.0079 73.7159 25.0455 74.129 24.7702C74.2775 24.6711 74.8189 24.17 74.9293 24.17C74.9293 24.17 74.9793 24.22 75.0293 24.27C75.0794 24.32 75.0794 24.3701 75.0794 24.4201C75.0294 24.6201 74.9293 24.7202 74.7793 24.8702C74.2622 25.2839 73.8998 25.5705 73.1787 25.5705C71.9043 25.5705 72.129 24.2178 72.3284 23.4197C72.4785 22.9696 72.6285 22.5694 72.8286 22.1693C72.7786 22.1193 72.6285 22.1693 72.2784 22.2693L71.6282 22.4194C71.3923 22.4194 71.2509 22.4649 71.128 22.2193C71.0989 22.0773 71.1101 21.9714 71.2192 21.8669C71.3693 21.7168 71.7017 21.5888 72.2518 21.4888L72.8621 21.3576L73.2394 21.2802L73.3288 21.169L73.979 20.2187C74.1168 19.9888 74.4947 19.4028 74.6792 19.2183C74.8604 19.0372 75.2143 18.6874 75.4795 18.8682C75.5295 18.9182 75.5795 18.9682 75.5795 19.0182C75.6754 19.4016 75.4515 19.5426 75.2294 19.8185Z" fill="#F58634"/>
<path fill-rule="evenodd" clip-rule="evenodd" d="M105.189 19.8185L104.839 20.2687L104.539 20.7188C104.241 21.3147 104.464 21.114 105.189 20.9689C105.397 20.9307 105.59 21.0093 105.59 21.219C105.59 21.319 105.49 21.4191 105.39 21.4691L105.139 21.5191L104.589 21.6691L104.039 21.7692C103.886 21.8458 103.447 22.7041 103.389 22.8195C103.289 23.0696 103.189 23.3197 103.139 23.5698C103.034 23.7785 103.039 23.9957 103.039 24.22V24.3701C103.039 25.0079 103.676 25.0455 104.089 24.7702C104.238 24.6711 104.779 24.17 104.889 24.17C104.889 24.17 104.939 24.22 104.989 24.27C105.039 24.32 105.039 24.3701 105.039 24.4201C104.989 24.6201 104.889 24.7202 104.739 24.8702C104.222 25.2839 103.86 25.5705 103.139 25.5705C101.864 25.5705 102.089 24.2178 102.288 23.4197C102.439 22.9696 102.589 22.5694 102.789 22.1693C102.739 22.1193 102.589 22.1693 102.238 22.2693L101.588 22.4194C101.352 22.4194 101.211 22.4649 101.088 22.2193C101.059 22.0773 101.07 21.9714 101.179 21.8669C101.329 21.7168 101.662 21.5888 102.212 21.4888L102.822 21.3576L103.199 21.2802L103.289 21.169L103.939 20.2187C104.077 19.9888 104.455 19.4028 104.639 19.2183C104.82 19.0372 105.174 18.6874 105.44 18.8682C105.49 18.9182 105.54 18.9682 105.54 19.0182C105.635 19.4016 105.412 19.5426 105.189 19.8185Z" fill="#F58634"/>
</g>
<defs>
<clipPath id="clip0_3_2">
<rect width="112" height="28" fill="white"/>
</clipPath>
</defs>
</svg>
