<svg width="24" height="25" viewBox="0 0 24 25" fill="none" xmlns="http://www.w3.org/2000/svg">
<g clip-path="url(#clip0_2348_41994)">
<path d="M16 16.5059L12 12.5059L8 16.5059" stroke="#969696" stroke-width="2" stroke-linecap="round" stroke-linejoin="round"/>
<path d="M12 12.5059V21.5059" stroke="#969696" stroke-width="2" stroke-linecap="round" stroke-linejoin="round"/>
<path d="M20.39 18.8954C21.3653 18.3636 22.1358 17.5222 22.5799 16.504C23.0239 15.4857 23.1162 14.3486 22.8422 13.272C22.5682 12.1955 21.9435 11.2409 21.0667 10.5588C20.1898 9.87674 19.1109 9.50609 18 9.50536H16.74C16.4373 8.3346 15.8732 7.24769 15.0899 6.32635C14.3067 5.40501 13.3248 4.67321 12.2181 4.18596C11.1113 3.69872 9.90854 3.46871 8.70011 3.51324C7.49167 3.55776 6.30906 3.87566 5.24117 4.44302C4.17328 5.01039 3.2479 5.81246 2.53461 6.78894C1.82132 7.76542 1.33868 8.89089 1.12297 10.0808C0.90726 11.2706 0.964096 12.4939 1.2892 13.6586C1.61431 14.8233 2.19923 15.8992 2.99999 16.8054" stroke="#969696" stroke-width="2" stroke-linecap="round" stroke-linejoin="round"/>
<path d="M16 16.5059L12 12.5059L8 16.5059" stroke="#969696" stroke-width="2" stroke-linecap="round" stroke-linejoin="round"/>
</g>
<defs>
<clipPath id="clip0_2348_41994">
<rect width="24" height="24" fill="white" transform="translate(0 0.505859)"/>
</clipPath>
</defs>
</svg>
