<svg width="136" height="77" viewBox="0 0 136 77" fill="none" xmlns="http://www.w3.org/2000/svg">
<path d="M97.496 1.86292V5.58872" stroke="#FF9393" stroke-width="1.55242" stroke-linecap="round" stroke-linejoin="round"/>
<path d="M97.496 10.5565V14.2823" stroke="#FF9393" stroke-width="1.55242" stroke-linecap="round" stroke-linejoin="round"/>
<path d="M91.2861 8.07257H95.0119" stroke="#FF9393" stroke-width="1.55242" stroke-linecap="round" stroke-linejoin="round"/>
<path d="M99.9795 8.07257H103.705" stroke="#FF9393" stroke-width="1.55242" stroke-linecap="round" stroke-linejoin="round"/>
<path d="M45.9555 65.8224V68.3063" stroke="#FF9393" stroke-width="1.55242" stroke-linecap="round" stroke-linejoin="round"/>
<path d="M45.9555 73.274V75.7579" stroke="#FF9393" stroke-width="1.55242" stroke-linecap="round" stroke-linejoin="round"/>
<path d="M40.9875 70.7901H43.4714" stroke="#FF9393" stroke-width="1.55242" stroke-linecap="round" stroke-linejoin="round"/>
<path d="M48.439 70.7901H50.9228" stroke="#FF9393" stroke-width="1.55242" stroke-linecap="round" stroke-linejoin="round"/>
<path d="M77.3142 39.8379C77.2698 39.8387 77.2253 39.8391 77.1807 39.8391C73.2603 39.8391 70.0503 36.7826 69.7813 32.9115C66.6608 33.4037 64.2739 36.1176 64.2739 39.3918C64.2739 43.0148 67.1964 45.9518 70.8015 45.9518C74.2574 45.9518 77.0861 43.2529 77.3142 39.8379Z" fill="#FFF4F3"/>
<g clip-path="url(#clip0_8210_46835)">
<path d="M65.8839 14.5593C62.8004 14.8415 59.7483 15.7195 57.0202 17.1097C55.3791 17.9563 55.0551 18.3326 55.1387 19.3152C55.2223 20.2873 55.8599 20.8726 56.8425 20.8726C57.271 20.8726 57.5428 20.7785 58.3581 20.3395C62.79 17.9459 68.2357 17.2978 73.0961 18.5835C76.88 19.5974 80.0053 21.437 82.7647 24.2906C86.1513 27.8026 88.0537 32.0359 88.4823 37.0427C88.8795 41.7358 87.3743 46.8471 84.4058 50.8191C83.6636 51.8121 81.9599 53.5785 80.9669 54.4043C76.9322 57.7073 71.5178 59.4319 66.5215 59.0034C61.5148 58.5748 57.2815 56.6725 53.7694 53.2859C51.9193 51.4985 50.6128 49.7216 49.5466 47.5579C46.6095 41.5895 46.7349 34.7222 49.8811 28.7329C50.4769 27.5936 50.5292 27.2591 50.1842 26.5797C49.8707 25.9839 49.5048 25.7226 48.8568 25.6599C47.8429 25.5658 47.383 25.963 46.5363 27.6458C45.3134 30.0917 44.5608 32.5376 44.1322 35.4643C43.9336 36.8336 43.965 40.3875 44.1845 41.8926C45.7419 52.2824 53.644 60.404 63.8979 62.1601C69.6468 63.1426 75.7615 61.9719 80.6115 58.9511C84.3013 56.662 87.4788 53.1918 89.4021 49.3662C90.5728 47.0353 91.3672 44.5057 91.7643 41.8926C92.0257 40.1575 92.0257 36.8336 91.7643 35.0985C90.1547 24.4369 81.9808 16.263 71.3819 14.7161C70.0022 14.5175 67.2427 14.4338 65.8839 14.5593Z" fill="#FF3B30"/>
<path d="M67.1594 25.8167C66.9608 25.9108 66.6994 26.1512 66.5531 26.3602L66.3022 26.7365V34.0115V41.2864L66.5427 41.6313C66.9398 42.2271 67.2848 42.4153 67.9746 42.4153C68.6645 42.4153 69.0094 42.2271 69.4171 41.6313L69.6471 41.2864V34.0115V26.7365L69.3962 26.3602C68.9363 25.6808 67.9224 25.4404 67.1594 25.8167Z" fill="#FF3B30"/>
<path d="M66.9083 45.3942C65.4031 46.1886 65.2986 48.3209 66.6993 49.3139C67.1174 49.5961 67.2323 49.6274 67.9745 49.6274C68.7166 49.6274 68.8316 49.5961 69.2497 49.3139C70.6608 48.3104 70.5353 46.1677 69.0093 45.3942C68.4762 45.112 67.4414 45.1224 66.9083 45.3942Z" fill="#FF3B30"/>
</g>
<defs>
<clipPath id="clip0_8210_46835">
<rect width="48" height="48" fill="white" transform="translate(44 14.5)"/>
</clipPath>
</defs>
</svg>
