<svg width="380" height="271" viewBox="0 0 380 271" fill="none" xmlns="http://www.w3.org/2000/svg">
<path d="M22.516 272.318L22.0482 271.453C28.3206 268.06 36.127 263.839 40.2044 256.911C44.2238 250.081 44.314 240.807 40.4398 232.707C37.1427 225.814 31.0863 219.639 22.9253 214.848C21.3156 213.903 19.6258 213.007 17.9915 212.141C14.0415 210.048 9.95688 207.883 6.58891 204.812C1.95018 200.581 -1.55961 193.482 1.05635 187.159C1.91668 185.141 3.32566 183.405 5.1233 182.147C6.92095 180.889 9.03522 180.161 11.2261 180.044L11.2816 181.026C9.27447 181.133 7.33742 181.8 5.69021 182.951C4.043 184.103 2.75159 185.693 1.96256 187.542C-0.468357 193.418 2.86684 200.086 7.25173 204.085C10.5276 207.072 14.5562 209.207 18.4522 211.272C20.0956 212.143 21.7952 213.044 23.4234 214C31.7542 218.89 37.9452 225.212 41.3271 232.283C45.3406 240.674 45.2353 250.302 41.0522 257.41C36.8358 264.574 28.8959 268.868 22.516 272.318Z" fill="#E8AA38"/>
<path d="M17.4595 185.228C22.213 185.228 26.0664 183.356 26.0664 181.047C26.0664 178.738 22.213 176.867 17.4595 176.867C12.706 176.867 8.85254 178.738 8.85254 181.047C8.85254 183.356 12.706 185.228 17.4595 185.228Z" fill="#E8AA38"/>
<path d="M24.3457 212.771C29.0992 212.771 32.9527 210.899 32.9527 208.59C32.9527 206.281 29.0992 204.41 24.3457 204.41C19.5922 204.41 15.7388 206.281 15.7388 208.59C15.7388 210.899 19.5922 212.771 24.3457 212.771Z" fill="#E8AA38"/>
<path d="M8.60695 217.196C13.3604 217.196 17.2139 215.325 17.2139 213.016C17.2139 210.707 13.3604 208.835 8.60695 208.835C3.85346 208.835 0 210.707 0 213.016C0 215.325 3.85346 217.196 8.60695 217.196Z" fill="#E8AA38"/>
<path d="M33.1987 240.313C37.9522 240.313 41.8057 238.441 41.8057 236.132C41.8057 233.823 37.9522 231.952 33.1987 231.952C28.4453 231.952 24.5918 233.823 24.5918 236.132C24.5918 238.441 28.4453 240.313 33.1987 240.313Z" fill="#E8AA38"/>
<path d="M50.4126 240.313C55.1661 240.313 59.0196 238.441 59.0196 236.132C59.0196 233.823 55.1661 231.952 50.4126 231.952C45.6591 231.952 41.8057 233.823 41.8057 236.132C41.8057 238.441 45.6591 240.313 50.4126 240.313Z" fill="#E8AA38"/>
<path d="M367.476 229.196H227.388C224.068 229.193 220.884 227.872 218.537 225.524C216.189 223.176 214.868 219.993 214.864 216.673V13.513C214.868 10.1927 216.189 7.00938 218.537 4.66153C220.884 2.31368 224.068 0.993006 227.388 0.989258H367.476C370.797 0.993007 373.98 2.31368 376.328 4.66153C378.676 7.00938 379.996 10.1927 380 13.513V216.673C379.996 219.993 378.676 223.176 376.328 225.524C373.98 227.872 370.797 229.193 367.476 229.196Z" fill="#C0C0C0"/>
<path d="M367.722 221.206H227.141C226.117 221.205 225.136 220.798 224.412 220.074C223.689 219.35 223.281 218.369 223.28 217.345V12.8401C223.281 11.8166 223.689 10.8353 224.412 10.1115C225.136 9.38778 226.117 8.98066 227.141 8.97949H367.722C368.746 8.98066 369.727 9.38778 370.451 10.1115C371.175 10.8353 371.582 11.8166 371.583 12.8401V217.345C371.582 218.369 371.175 219.35 370.451 220.074C369.727 220.798 368.746 221.205 367.722 221.206Z" fill="white"/>
<path d="M354.096 143.643H240.768C240.674 143.643 240.584 143.606 240.517 143.539C240.451 143.473 240.414 143.383 240.414 143.289V88.9709C240.414 88.8768 240.451 88.7866 240.517 88.7201C240.584 88.6536 240.674 88.6162 240.768 88.6162C240.862 88.6162 240.953 88.6536 241.019 88.7201C241.086 88.7866 241.123 88.8768 241.123 88.9709V142.934H354.096C354.189 142.934 354.279 142.972 354.346 143.038C354.412 143.105 354.449 143.195 354.449 143.289C354.449 143.383 354.412 143.473 354.346 143.539C354.279 143.605 354.189 143.643 354.096 143.643Z" fill="#3F3D56"/>
<path d="M264.981 139.742H254.674C254.395 139.742 254.127 139.631 253.93 139.434C253.732 139.236 253.621 138.969 253.621 138.689V124.48C253.621 124.201 253.732 123.934 253.93 123.736C254.127 123.539 254.395 123.428 254.674 123.428H264.981C265.261 123.428 265.528 123.539 265.726 123.736C265.923 123.934 266.034 124.201 266.034 124.48V138.689C266.034 138.969 265.923 139.236 265.726 139.434C265.528 139.631 265.261 139.742 264.981 139.742Z" fill="#43165B"/>
<path d="M283.779 139.742H273.471C273.192 139.742 272.925 139.631 272.727 139.433C272.53 139.236 272.419 138.968 272.418 138.689V111.003C272.419 110.724 272.53 110.456 272.727 110.259C272.925 110.062 273.192 109.951 273.471 109.95H283.779C284.058 109.951 284.326 110.062 284.523 110.259C284.72 110.456 284.831 110.724 284.832 111.003V138.689C284.831 138.968 284.72 139.236 284.523 139.433C284.326 139.631 284.058 139.742 283.779 139.742Z" fill="#43165B"/>
<path d="M302.576 139.742H292.269C291.99 139.742 291.722 139.631 291.525 139.434C291.327 139.236 291.216 138.969 291.216 138.689V124.48C291.216 124.201 291.327 123.934 291.525 123.736C291.722 123.539 291.99 123.428 292.269 123.428H302.576C302.855 123.428 303.123 123.539 303.32 123.736C303.518 123.934 303.629 124.201 303.629 124.48V138.689C303.629 138.969 303.518 139.236 303.32 139.434C303.123 139.631 302.855 139.742 302.576 139.742Z" fill="#43165B"/>
<path d="M321.373 139.742H311.065C310.792 139.748 310.528 139.645 310.331 139.457C310.134 139.268 310.019 139.009 310.012 138.737V105.635C310.019 105.362 310.134 105.104 310.331 104.915C310.528 104.727 310.792 104.624 311.065 104.63H321.373C321.645 104.624 321.909 104.727 322.107 104.915C322.304 105.104 322.419 105.362 322.425 105.635V138.737C322.419 139.009 322.304 139.268 322.107 139.457C321.909 139.645 321.645 139.748 321.373 139.742Z" fill="#43165B"/>
<path d="M340.169 139.742H329.862C329.583 139.742 329.315 139.631 329.118 139.434C328.92 139.236 328.809 138.969 328.809 138.689V96.1074C328.809 95.8283 328.92 95.5607 329.118 95.3634C329.315 95.166 329.583 95.055 329.862 95.0547H340.169C340.449 95.055 340.716 95.166 340.914 95.3634C341.111 95.5607 341.222 95.8283 341.222 96.1074V138.689C341.222 138.969 341.111 139.236 340.914 139.434C340.716 139.631 340.449 139.742 340.169 139.742Z" fill="#43165B"/>
<path d="M259.828 119.171C261.003 119.171 261.956 118.219 261.956 117.044C261.956 115.868 261.003 114.916 259.828 114.916C258.652 114.916 257.7 115.868 257.7 117.044C257.7 118.219 258.652 119.171 259.828 119.171Z" fill="#E8AA38"/>
<path d="M278.625 105.339C279.8 105.339 280.753 104.387 280.753 103.211C280.753 102.036 279.8 101.083 278.625 101.083C277.449 101.083 276.497 102.036 276.497 103.211C276.497 104.387 277.449 105.339 278.625 105.339Z" fill="#E8AA38"/>
<path d="M297.421 119.171C298.597 119.171 299.549 118.219 299.549 117.044C299.549 115.868 298.597 114.916 297.421 114.916C296.246 114.916 295.293 115.868 295.293 117.044C295.293 118.219 296.246 119.171 297.421 119.171Z" fill="#E8AA38"/>
<path d="M316.219 98.6012C317.394 98.6012 318.347 97.6484 318.347 96.4732C318.347 95.2979 317.394 94.3452 316.219 94.3452C315.044 94.3452 314.091 95.2979 314.091 96.4732C314.091 97.6484 315.044 98.6012 316.219 98.6012Z" fill="#E8AA38"/>
<path d="M335.016 90.7989C336.191 90.7989 337.144 89.8462 337.144 88.6709C337.144 87.4957 336.191 86.543 335.016 86.543C333.841 86.543 332.888 87.4957 332.888 88.6709C332.888 89.8462 333.841 90.7989 335.016 90.7989Z" fill="#E8AA38"/>
<path d="M297.467 117.52L278.625 103.408L260.04 117.327L259.615 116.76L278.625 102.521L297.377 116.567L316.011 96.1744L316.087 96.1439L334.884 88.5703L335.149 89.2284L316.427 96.772L297.467 117.52Z" fill="#E8AA38"/>
<path d="M131.871 111.397C131.151 111.396 130.441 111.554 129.789 111.858C129.138 112.163 128.561 112.607 128.1 113.159L106.062 112.47L105.199 108.755L93.7939 114.321L95.2694 124.496L128.856 120.196C129.474 120.676 130.198 121.001 130.967 121.145C131.737 121.289 132.529 121.248 133.279 121.024C134.029 120.8 134.715 120.4 135.279 119.858C135.843 119.316 136.27 118.647 136.523 117.906C136.777 117.166 136.85 116.376 136.737 115.601C136.624 114.827 136.327 114.091 135.872 113.454C135.417 112.818 134.817 112.299 134.121 111.941C133.425 111.583 132.653 111.396 131.871 111.397Z" fill="#FFD7D7"/>
<path d="M91.0479 265.142H97.0776L99.9465 241.884L91.0469 241.885L91.0479 265.142Z" fill="#FFB6B6"/>
<path d="M89.5103 263.173L101.385 263.172H101.385C103.392 263.172 105.317 263.97 106.736 265.389C108.155 266.808 108.953 268.733 108.953 270.74V270.986L89.5106 270.986L89.5103 263.173Z" fill="#1B1A20"/>
<path d="M68.2964 260.347L74.0891 262.021L83.302 240.474L74.7526 238.003L68.2964 260.347Z" fill="#FFB6B6"/>
<path d="M67.3653 258.028L78.7732 261.325C80.7013 261.882 82.3294 263.183 83.2988 264.94C84.2681 266.697 84.4997 268.768 83.9426 270.696L83.8744 270.932L65.1963 265.535L67.3653 258.028Z" fill="#1B1A20"/>
<path d="M83.6439 164.151C83.6439 164.151 81.4992 170.135 84.8826 178.299L87.4933 211.924L88.2659 259.746H99.2584L105.911 210.995L109.906 166.791L83.6439 164.151Z" fill="#E0DEFF"/>
<path d="M77.4602 164.151C77.4602 164.151 75.3155 170.135 78.6988 178.299L81.3096 211.924L68.311 257.469H79.3035L99.7272 210.995L103.722 166.791L77.4602 164.151Z" fill="#E0DEFF"/>
<path d="M109.708 87.0282C116.38 87.0282 121.788 81.6199 121.788 74.9484C121.788 68.2769 116.38 62.8687 109.708 62.8687C103.037 62.8687 97.6284 68.2769 97.6284 74.9484C97.6284 81.6199 103.037 87.0282 109.708 87.0282Z" fill="#FFD7D7"/>
<path d="M111.324 104.332L108.876 92.9582L96.4107 85.8809L93.8831 89.4195C93.8831 89.4195 76.0473 94.1065 78.2043 114.587C80.3614 135.068 79.3777 144.905 79.3777 144.905L74.4595 167.529C74.4595 167.529 75.9734 167.789 110.722 173.859L112.197 124.676L111.324 104.332Z" fill="#AAAAAA"/>
<path opacity="0.1" d="M99.2315 215.017L87.9121 237.882V244.436L99.2315 215.017Z" fill="black"/>
<path d="M96.6831 78.7691C97.8349 81.8536 102.193 82.281 103.73 79.3694C103.85 79.1434 103.947 78.9064 104.021 78.6616C104.442 77.2631 104.177 75.7225 104.955 74.3853C105.144 74.0508 105.416 73.7701 105.744 73.57C108.329 72.0452 110.874 76.8834 113.278 75.5298C114.752 74.6998 114.437 72.2894 115.748 71.2212C117.48 69.8113 119.98 71.9111 122.2 71.6714C124.67 71.4046 125.839 68.2758 125.302 65.8504C124.647 62.8924 122.333 60.4916 119.617 59.1484C116.902 57.8053 113.816 57.3997 110.788 57.3244C107.346 57.2389 103.746 57.6041 100.836 59.4434C97.2977 61.6801 95.3042 65.844 94.8629 70.0068C94.5945 72.539 95.7425 76.2503 96.6831 78.7691Z" fill="#1B1A20"/>
<path d="M155.878 161.684C155.895 161.685 155.913 161.684 155.931 161.683C165.032 161.207 173.61 157.282 179.921 150.707C186.231 144.132 189.801 135.4 189.903 126.287C190.005 117.174 186.632 108.365 180.471 101.65C174.309 94.9347 165.821 90.8188 156.733 90.1387C156.621 90.1299 156.508 90.1444 156.401 90.1813C156.295 90.2182 156.197 90.2768 156.114 90.3533C156.031 90.4285 155.965 90.5199 155.92 90.6219C155.874 90.7239 155.85 90.8342 155.85 90.9458L155.066 160.856C155.064 161.074 155.148 161.283 155.301 161.438C155.453 161.593 155.66 161.682 155.878 161.684Z" fill="#E8AA38"/>
<path d="M127.764 101.699C128.043 101.703 128.309 101.816 128.505 102.016L152.572 126.629C152.669 126.727 152.745 126.844 152.797 126.972C152.848 127.1 152.873 127.237 152.872 127.375L152.496 160.828C152.495 160.971 152.465 161.113 152.406 161.244C152.348 161.375 152.263 161.493 152.157 161.59C152.05 161.687 151.925 161.762 151.788 161.81C151.652 161.857 151.507 161.876 151.362 161.865C144.671 161.365 138.251 159.008 132.825 155.059C127.4 151.111 123.182 145.728 120.647 139.514C118.113 133.301 117.361 126.504 118.476 119.887C119.592 113.27 122.53 107.095 126.962 102.056C127.058 101.948 127.175 101.86 127.306 101.799C127.437 101.737 127.58 101.704 127.725 101.7C127.738 101.699 127.751 101.699 127.764 101.699Z" fill="white"/>
<path d="M152.236 89.8531C152.505 89.8563 152.763 89.9615 152.957 90.1474C153.061 90.2465 153.143 90.366 153.199 90.4985C153.254 90.6311 153.282 90.7737 153.28 90.9174L152.942 121.1C152.939 121.308 152.875 121.511 152.758 121.682C152.64 121.854 152.475 121.986 152.282 122.064C152.089 122.141 151.878 122.16 151.674 122.117C151.471 122.074 151.285 121.972 151.139 121.823L130.138 100.345C130.041 100.246 129.965 100.129 129.913 100.001C129.862 99.8727 129.836 99.7354 129.838 99.5971C129.84 99.4588 129.868 99.3222 129.923 99.195C129.977 99.0679 130.056 98.9527 130.155 98.8561C130.168 98.8437 130.181 98.8317 130.194 98.8199C136.302 93.4436 144.045 90.2847 152.171 89.8544C152.193 89.8533 152.215 89.8529 152.236 89.8531Z" fill="#E8AA38"/>
<path d="M119.575 125.168C118.855 125.168 118.145 125.325 117.493 125.63C116.842 125.934 116.265 126.379 115.804 126.931L93.7658 126.242L92.9032 122.526L81.498 128.092L82.9735 138.267L116.56 133.967C117.178 134.447 117.902 134.773 118.671 134.917C119.441 135.061 120.233 135.019 120.983 134.795C121.733 134.572 122.419 134.172 122.983 133.63C123.547 133.087 123.974 132.418 124.228 131.678C124.481 130.937 124.554 130.147 124.441 129.373C124.328 128.599 124.031 127.862 123.576 127.226C123.121 126.589 122.521 126.07 121.825 125.712C121.129 125.354 120.357 125.168 119.575 125.168Z" fill="#FFD7D7"/>
<path d="M79.6397 132.283L79.027 101.97C79.0056 100.91 79.1946 99.8551 79.5832 98.8678C79.9718 97.8806 80.5523 96.9802 81.2911 96.2186C82.0298 95.4571 82.9122 94.8496 83.8872 94.4312C84.8622 94.0128 85.9105 93.7919 86.9714 93.7812C88.0324 93.7704 89.0849 93.9701 90.0682 94.3687C91.0514 94.7673 91.9459 95.3568 92.7 96.1033C93.454 96.8497 94.0525 97.7382 94.461 98.7174C94.8695 99.6966 95.0798 100.747 95.0798 101.808V123.961L79.6397 132.283Z" fill="#AAAAAA"/>
</svg>
