<svg width="188" height="188" viewBox="0 0 188 188" fill="none" xmlns="http://www.w3.org/2000/svg">
<rect x="0.5" y="0.5" width="187" height="187" rx="7.5" fill="#BDBDBD"/>
<rect x="0.5" y="0.5" width="187" height="187" rx="7.5" stroke="#EEEEEE"/>
<path d="M94 93.9997C107.048 93.9997 117.625 83.4225 117.625 70.3748C117.625 57.3271 107.048 46.7498 94 46.7498C80.9523 46.7498 70.375 57.3271 70.375 70.3748C70.375 83.4225 80.9523 93.9997 94 93.9997ZM65.3125 100.75C58.7885 100.75 53.4998 106.039 53.5 112.563L53.5 114.25C53.5001 122.328 58.6389 129.159 65.9366 133.803C73.2743 138.472 83.2052 141.25 93.9997 141.25C104.794 141.25 114.725 138.472 122.063 133.803C129.361 129.159 134.5 122.328 134.5 114.25V112.562C134.5 106.038 129.211 100.75 122.687 100.75H65.3125Z" fill="white"/>
</svg>
