<svg width="32" height="42" viewBox="0 0 32 42" fill="none" xmlns="http://www.w3.org/2000/svg">
<path d="M1.9375 38.7095H30.0577C30.9206 38.7095 31.6202 39.4091 31.6202 40.272C31.6202 41.0631 31.0323 41.7168 30.2696 41.8202L30.0577 41.8345H1.9375C1.07456 41.8345 0.375 41.135 0.375 40.272C0.375 39.481 0.962813 38.8273 1.72548 38.7237L1.9375 38.7095H30.0577H1.9375ZM15.7571 0.172712L16 0.158691C17.0683 0.158691 17.949 0.962942 18.0694 1.99907L18.0833 2.24202V28.4712L24.946 21.6112C25.6971 20.8604 26.8788 20.8027 27.696 21.4383L27.8923 21.6116C28.6431 22.3627 28.7008 23.5443 28.0652 24.3616L27.8919 24.5579L17.4802 34.9675C16.7296 35.7179 15.5485 35.776 14.7313 35.1414L14.535 34.9683L4.11121 24.5587C3.29706 23.7456 3.29615 22.4266 4.10919 21.6125C4.85969 20.8608 6.04138 20.8023 6.85908 21.4373L7.05546 21.6104L13.9167 28.4608V2.24202C13.9167 1.17363 14.7208 0.293066 15.7571 0.172712L16 0.158691L15.7571 0.172712Z" fill="white"/>
</svg>
