<svg width="54" height="78" viewBox="0 0 54 78" fill="none" xmlns="http://www.w3.org/2000/svg">
<path d="M6.66667 0.666504C3.01915 0.666504 0 3.68565 0 7.33317V70.6665C0 74.314 3.01915 77.3332 6.66667 77.3332H46.6667C50.3142 77.3332 53.3333 74.314 53.3333 70.6665V20.6665L33.3333 0.666504H6.66667ZM6.66667 7.33317H30V23.9998H46.6667V60.6665H6.66667V7.33317Z" fill="#0059FB"/>
<path d="M21.25 30.1821L24.5 36.479L27.75 30.1821H32.4727L27.2168 39.3481L32.6123 48.6665H27.8516L24.5 42.2554L21.1611 48.6665H16.3877L21.7959 39.3481L16.5273 30.1821H21.25Z" fill="#006FF1"/>
<path d="M21.585 70.5591V71.6665H18.1792V70.5591H21.585ZM18.667 65.2681V71.6665H17.2344V65.2681H18.667ZM21.1455 67.8433V68.9155H18.1792V67.8433H21.1455ZM21.5894 65.2681V66.3799H18.1792V65.2681H21.5894ZM23.3516 66.9116L24.0811 68.2871L24.8325 66.9116H26.2739L24.9775 69.2319L26.3354 71.6665H24.8853L24.0854 70.1987L23.29 71.6665H21.8354L23.1934 69.2319L21.9014 66.9116H23.3516ZM28.7305 70.6865C28.877 70.6865 29.0044 70.6587 29.1128 70.603C29.2212 70.5474 29.3047 70.4697 29.3633 70.3701C29.4248 70.2676 29.4556 70.1445 29.4556 70.001H30.7476C30.7476 70.3467 30.6582 70.6514 30.4795 70.915C30.3037 71.1787 30.0664 71.3853 29.7676 71.5347C29.4688 71.6812 29.1318 71.7544 28.7568 71.7544C28.3877 71.7544 28.0654 71.6943 27.79 71.5742C27.5146 71.4512 27.2847 71.2798 27.1001 71.0601C26.9155 70.8403 26.7764 70.5854 26.6826 70.2954C26.5918 70.0024 26.5464 69.686 26.5464 69.3462V69.2319C26.5464 68.895 26.5918 68.5801 26.6826 68.2871C26.7764 67.9941 26.9155 67.7378 27.1001 67.5181C27.2847 67.2983 27.5132 67.1284 27.7856 67.0083C28.061 66.8853 28.3833 66.8237 28.7524 66.8237C29.1421 66.8237 29.4863 66.8984 29.7852 67.0479C30.0869 67.1973 30.3228 67.4126 30.4927 67.6938C30.6626 67.9722 30.7476 68.3076 30.7476 68.7002H29.4556C29.4556 68.5479 29.4277 68.4116 29.3721 68.2915C29.3193 68.1685 29.2373 68.0718 29.126 68.0015C29.0176 67.9282 28.8828 67.8916 28.7217 67.8916C28.5547 67.8916 28.417 67.9282 28.3086 68.0015C28.2031 68.0718 28.1226 68.1699 28.0669 68.2959C28.0112 68.4219 27.9731 68.5654 27.9526 68.7266C27.9321 68.8848 27.9219 69.0532 27.9219 69.2319V69.3462C27.9219 69.5278 27.9321 69.7007 27.9526 69.8647C27.9731 70.0259 28.0112 70.168 28.0669 70.291C28.1255 70.4141 28.2075 70.5107 28.313 70.5811C28.4185 70.6514 28.5576 70.6865 28.7305 70.6865ZM33.6699 71.7544C33.292 71.7544 32.9536 71.6943 32.6548 71.5742C32.356 71.4541 32.1025 71.2886 31.8945 71.0776C31.6895 70.8638 31.5327 70.6177 31.4243 70.3394C31.3159 70.061 31.2617 69.7637 31.2617 69.4473V69.2803C31.2617 68.9258 31.3115 68.5991 31.4111 68.3003C31.5107 68.0015 31.6558 67.7422 31.8462 67.5225C32.0396 67.2998 32.2769 67.1284 32.5581 67.0083C32.8394 66.8853 33.1602 66.8237 33.5205 66.8237C33.8574 66.8237 34.1577 66.8794 34.4214 66.9907C34.6851 67.0991 34.9077 67.2559 35.0894 67.4609C35.271 67.6631 35.4087 67.9077 35.5024 68.1948C35.5991 68.479 35.6475 68.7983 35.6475 69.1528V69.7153H31.8154V68.832H34.3027V68.7266C34.3027 68.5596 34.272 68.4131 34.2104 68.2871C34.1519 68.1611 34.064 68.0645 33.9468 67.9971C33.8325 67.9268 33.6875 67.8916 33.5117 67.8916C33.3447 67.8916 33.2056 67.9268 33.0942 67.9971C32.9829 68.0674 32.8936 68.167 32.8262 68.2959C32.7617 68.4219 32.7148 68.5698 32.6855 68.7397C32.6562 68.9067 32.6416 69.0869 32.6416 69.2803V69.4473C32.6416 69.6318 32.6665 69.8003 32.7163 69.9526C32.7661 70.105 32.8394 70.2354 32.936 70.3438C33.0327 70.4521 33.1499 70.5371 33.2876 70.5986C33.4253 70.6602 33.582 70.6909 33.7578 70.6909C33.9746 70.6909 34.1812 70.6499 34.3774 70.5679C34.5737 70.4829 34.7437 70.3511 34.8872 70.1724L35.5288 70.9062C35.4321 71.0469 35.2959 71.1831 35.1201 71.3149C34.9473 71.4438 34.7393 71.5493 34.4961 71.6313C34.2529 71.7134 33.9775 71.7544 33.6699 71.7544ZM37.7612 64.9165V71.6665H36.3857V64.9165H37.7612Z" fill="white"/>
</svg>
