<svg width="40" height="40" viewBox="0 0 40 40" fill="none" xmlns="http://www.w3.org/2000/svg">
<rect width="40" height="40" rx="8" fill="white"/>
<path d="M29.1667 12.5417C29.1667 12.6458 29.1528 12.7257 29.125 12.7812C29.0972 12.8299 29.0625 12.8854 29.0208 12.9479C28.9792 13.0104 28.9306 13.0903 28.875 13.1875C28.8264 13.2847 28.7813 13.4271 28.7396 13.6146C28.6979 13.809 28.6563 13.9792 28.6146 14.125C28.5799 14.2708 28.5486 14.4097 28.5208 14.5417C28.4931 14.6736 28.4688 14.809 28.4479 14.9479C28.434 15.0799 28.4271 15.2361 28.4271 15.4167C28.4271 15.7292 28.4201 16.0382 28.4063 16.3437C28.3924 16.6493 28.3715 16.9687 28.3438 17.3021C28.316 17.6285 28.2813 17.9722 28.2396 18.3333C28.2049 18.6875 28.1632 19.0729 28.1146 19.4896C28.0451 20.0799 27.9757 20.7049 27.9063 21.3646C27.8368 22.0243 27.8021 22.7049 27.8021 23.4062C27.8021 23.5937 27.8021 23.8125 27.8021 24.0625C27.8021 24.3125 27.8056 24.5799 27.8125 24.8646C27.8264 25.1493 27.8403 25.441 27.8542 25.7396C27.875 26.0312 27.9028 26.316 27.9375 26.5937C27.9722 26.6285 28 26.6528 28.0208 26.6667C28.0486 26.6736 28.0868 26.6944 28.1354 26.7292C28.3854 26.8889 28.566 27.0278 28.6771 27.1458C28.7882 27.2639 28.8438 27.4236 28.8438 27.625C28.8438 27.7708 28.7986 27.9236 28.7083 28.0833C28.6181 28.25 28.4965 28.4028 28.3438 28.5417C28.1979 28.6806 28.0278 28.7951 27.8333 28.8854C27.6458 28.9757 27.4514 29.0208 27.25 29.0208C26.8472 29.0208 26.5139 28.8958 26.25 28.6458C25.9861 28.3958 25.7778 28.0764 25.625 27.6875C25.4792 27.2917 25.375 26.8542 25.3125 26.375C25.2569 25.8889 25.2292 25.4097 25.2292 24.9375V24.5729C25.2292 24.3785 25.2465 24.0833 25.2813 23.6875C25.3229 23.2917 25.3715 22.8403 25.4271 22.3333C25.4896 21.8264 25.5556 21.2882 25.625 20.7187C25.7014 20.1493 25.7778 19.5937 25.8542 19.0521C25.9375 18.5035 26.0139 17.9931 26.0833 17.5208C26.1597 17.0486 26.2257 16.6597 26.2813 16.3542C26.1979 16.4583 26.0799 16.6111 25.9271 16.8125C25.7813 17.0069 25.6146 17.2257 25.4271 17.4687C25.2465 17.7118 25.0521 17.9687 24.8438 18.2396C24.6424 18.5104 24.4444 18.7778 24.25 19.0417C24.0625 19.2986 23.8819 19.5417 23.7083 19.7708C23.5417 20 23.3993 20.1944 23.2813 20.3542C23.0174 20.7153 22.7639 21.0729 22.5208 21.4271C22.2778 21.7812 22.0243 22.1458 21.7604 22.5208C21.7396 22.5417 21.7049 22.5868 21.6563 22.6562C21.6146 22.7257 21.566 22.8056 21.5104 22.8958C21.4549 22.9792 21.3993 23.0625 21.3438 23.1458C21.2882 23.2292 21.2396 23.2917 21.1979 23.3333C20.7118 23.9861 20.1771 24.3958 19.5938 24.5625C19.2188 24.4444 18.9167 24.316 18.6875 24.1771C18.4653 24.0382 18.2813 23.8889 18.1354 23.7292C17.9896 23.5625 17.8646 23.3819 17.7604 23.1875C17.6632 22.9931 17.5486 22.7882 17.4167 22.5729C17.2778 22.3368 17.1528 22.1215 17.0417 21.9271C16.9306 21.7326 16.8333 21.559 16.75 21.4062C16.5694 21.0799 16.3993 20.7361 16.2396 20.375C16.0799 20.0139 15.9306 19.6458 15.7917 19.2708C15.6944 18.9583 15.6076 18.691 15.5313 18.4687C15.4618 18.2465 15.3958 18.0382 15.3333 17.8437C15.2708 17.6493 15.2083 17.4514 15.1458 17.25C15.0833 17.0486 15.0139 16.8125 14.9375 16.5417C14.9236 16.5903 14.8958 16.7083 14.8542 16.8958C14.8125 17.0833 14.7604 17.316 14.6979 17.5937C14.6354 17.8715 14.566 18.1806 14.4896 18.5208C14.4132 18.8611 14.3368 19.2083 14.2604 19.5625C14.184 19.9167 14.1076 20.2639 14.0313 20.6042C13.9618 20.9375 13.8958 21.2396 13.8333 21.5104C13.7778 21.7812 13.7292 22.0069 13.6875 22.1875C13.6458 22.3611 13.6215 22.4653 13.6146 22.5C13.4757 23.0556 13.4063 23.5833 13.4063 24.0833C13.4063 24.1875 13.4028 24.3507 13.3958 24.5729C13.3889 24.7882 13.3819 25.0208 13.375 25.2708C13.375 25.5139 13.3715 25.75 13.3646 25.9792C13.3576 26.2083 13.3542 26.3854 13.3542 26.5104C13.3542 26.6146 13.3229 26.7431 13.2604 26.8958C13.1979 27.0486 13.1111 27.1944 13 27.3333C12.8889 27.4722 12.7604 27.5937 12.6146 27.6979C12.4688 27.7951 12.316 27.8437 12.1563 27.8437C11.9271 27.8437 11.7292 27.8333 11.5625 27.8125C11.3958 27.7917 11.25 27.75 11.125 27.6875C11.0069 27.625 10.9028 27.5347 10.8125 27.4167C10.7222 27.2986 10.6389 27.1458 10.5625 26.9583C10.5347 26.8958 10.5139 26.8299 10.5 26.7604C10.4861 26.684 10.4722 26.5903 10.4583 26.4792C10.4514 26.3681 10.4444 26.2326 10.4375 26.0729C10.4375 25.9062 10.4375 25.6979 10.4375 25.4479C10.4375 25.3715 10.4618 25.2187 10.5104 24.9896C10.566 24.7535 10.6319 24.4722 10.7083 24.1458C10.7917 23.8194 10.8819 23.4687 10.9792 23.0937C11.0764 22.7118 11.1736 22.3403 11.2708 21.9792C11.375 21.6111 11.4688 21.2674 11.5521 20.9479C11.6424 20.6215 11.7153 20.3576 11.7708 20.1562C11.8681 19.809 11.9688 19.4479 12.0729 19.0729C12.1771 18.6979 12.2778 18.3194 12.375 17.9375C12.4792 17.5556 12.5799 17.1771 12.6771 16.8021C12.7813 16.4201 12.875 16.059 12.9583 15.7187C13 15.3715 13.0417 15.1181 13.0833 14.9583C13.125 14.7708 13.1806 14.5729 13.25 14.3646C13.3194 14.1493 13.4028 13.9549 13.5 13.7812C13.6042 13.6007 13.7257 13.4514 13.8646 13.3333C14.0104 13.2153 14.1806 13.1562 14.375 13.1562C14.9375 13.1562 15.3854 13.2187 15.7188 13.3437C16.059 13.4687 16.3299 13.6632 16.5313 13.9271C16.7396 14.184 16.9028 14.5174 17.0208 14.9271C17.1389 15.3368 17.2604 15.8299 17.3854 16.4062C17.4201 16.566 17.4618 16.7083 17.5104 16.8333C17.559 16.9514 17.6111 17.0833 17.6667 17.2292C17.9028 17.9514 18.1875 18.6701 18.5208 19.3854C18.8611 20.0937 19.2535 20.7951 19.6979 21.4896C19.8785 21.3437 20.0417 21.1597 20.1875 20.9375C20.3403 20.7083 20.5069 20.4306 20.6875 20.1042C20.8472 19.8194 21.0069 19.5521 21.1667 19.3021C21.3333 19.0451 21.5208 18.8021 21.7292 18.5729C21.8056 18.4896 21.9271 18.3472 22.0938 18.1458C22.2604 17.9375 22.4514 17.6979 22.6667 17.4271C22.8889 17.1493 23.1215 16.8576 23.3646 16.5521C23.6076 16.2465 23.8368 15.9583 24.0521 15.6875C24.2674 15.4097 24.4583 15.1667 24.625 14.9583C24.7917 14.7431 24.9097 14.5903 24.9792 14.5C25.0556 14.4097 25.1146 14.3403 25.1563 14.2917C25.1979 14.2361 25.25 14.1736 25.3125 14.1042C25.3889 13.9931 25.5139 13.8229 25.6875 13.5937C25.8611 13.3646 26.0417 13.1215 26.2292 12.8646C26.4236 12.6076 26.6076 12.3646 26.7813 12.1354C26.9618 11.8993 27.0938 11.7222 27.1771 11.6042C27.2743 11.4583 27.4583 11.3854 27.7292 11.3854C27.875 11.3854 28.0313 11.4306 28.1979 11.5208C28.3646 11.6042 28.5174 11.7083 28.6563 11.8333C28.8021 11.9583 28.9201 12.0903 29.0104 12.2292C29.1076 12.3681 29.1563 12.4896 29.1563 12.5937L29.1667 12.5417Z" fill="#6020A7"/>
</svg>
