<svg width="136" height="77" viewBox="0 0 136 77" fill="none" xmlns="http://www.w3.org/2000/svg">
<path d="M97.4941 1.86279V5.5886" stroke="#CEBAE4" stroke-width="1.55242" stroke-linecap="round" stroke-linejoin="round"/>
<path d="M97.4941 10.5562V14.282" stroke="#CEBAE4" stroke-width="1.55242" stroke-linecap="round" stroke-linejoin="round"/>
<path d="M91.2852 8.07233H95.011" stroke="#CEBAE4" stroke-width="1.55242" stroke-linecap="round" stroke-linejoin="round"/>
<path d="M99.9805 8.07233H103.706" stroke="#CEBAE4" stroke-width="1.55242" stroke-linecap="round" stroke-linejoin="round"/>
<path d="M45.9511 65.8223V68.3061" stroke="#CEBAE4" stroke-width="1.55242" stroke-linecap="round" stroke-linejoin="round"/>
<path d="M45.9511 73.2739V75.7578" stroke="#CEBAE4" stroke-width="1.55242" stroke-linecap="round" stroke-linejoin="round"/>
<path d="M40.9844 70.7901H43.4682" stroke="#CEBAE4" stroke-width="1.55242" stroke-linecap="round" stroke-linejoin="round"/>
<path d="M48.4375 70.7901H50.9214" stroke="#CEBAE4" stroke-width="1.55242" stroke-linecap="round" stroke-linejoin="round"/>
<path fill-rule="evenodd" clip-rule="evenodd" d="M87.9968 53.5673C88.7755 52.6136 89.4755 51.6163 90.0966 50.584C91.4627 48.3138 92.4474 45.8747 93.0492 43.36C93.6579 40.8167 93.8749 38.1961 93.6987 35.5946C93.5451 33.3245 93.092 31.069 92.3386 28.892C91.5912 26.7323 90.5481 24.6499 89.2085 22.7075C88.4102 21.55 87.5066 20.4422 86.4974 19.3974C85.0158 17.8633 83.3907 16.5518 81.664 15.4637C79.8088 14.2946 77.8362 13.3834 75.7982 12.731C73.246 11.914 70.5913 11.503 67.9361 11.5C65.8703 11.4977 63.8042 11.7424 61.786 12.2349C59.5138 12.7895 57.3023 13.6582 55.22 14.8425C53.3895 15.8836 51.659 17.1684 50.0748 18.698C48.0841 20.6202 46.4715 22.7871 45.2386 25.1061C44.0316 27.3765 43.1885 29.7927 42.7106 32.2679C42.2183 34.8181 42.1137 37.431 42.3984 40.0116C42.7673 43.3564 43.7901 46.647 45.47 49.6768C46.5449 51.6155 47.8888 53.4474 49.5027 55.1184C52.0647 57.7711 55.0558 59.7583 58.2594 61.0758C62.1552 62.6779 66.3653 63.2897 70.5001 62.9037C73.9703 62.5797 77.3874 61.5527 80.5212 59.8185" fill="white"/>
<path d="M87.9968 53.5673C88.7755 52.6136 89.4755 51.6163 90.0966 50.584C91.4627 48.3138 92.4474 45.8747 93.0492 43.36C93.6579 40.8167 93.8749 38.1961 93.6987 35.5946C93.5451 33.3245 93.092 31.069 92.3386 28.892C91.5912 26.7323 90.5481 24.6499 89.2085 22.7075C88.4102 21.55 87.5066 20.4422 86.4974 19.3974C85.0158 17.8633 83.3907 16.5518 81.664 15.4637C79.8088 14.2946 77.8362 13.3834 75.7982 12.731C73.246 11.914 70.5913 11.503 67.9361 11.5C65.8703 11.4977 63.8042 11.7424 61.786 12.2349C59.5138 12.7895 57.3023 13.6582 55.22 14.8425C53.3895 15.8836 51.659 17.1684 50.0748 18.698C48.0841 20.6202 46.4715 22.7871 45.2386 25.1061C44.0316 27.3765 43.1885 29.7927 42.7106 32.2679C42.2183 34.8181 42.1137 37.431 42.3984 40.0116C42.7673 43.3564 43.7901 46.647 45.47 49.6768C46.5449 51.6155 47.8888 53.4474 49.5027 55.1184C52.0647 57.7711 55.0558 59.7583 58.2594 61.0758C62.1552 62.6779 66.3653 63.2897 70.5001 62.9037C73.9703 62.5797 77.3874 61.5527 80.5212 59.8185" stroke="#6020A7" stroke-width="1.39988" stroke-linecap="round" stroke-linejoin="round"/>
<path fill-rule="evenodd" clip-rule="evenodd" d="M82.3891 58.7485C84.0164 57.7013 85.4632 56.3948 86.4044 55.3401L82.3891 58.7485Z" fill="white"/>
<path d="M82.3891 58.7485C84.0164 57.7013 85.4632 56.3948 86.4044 55.3401" stroke="#6020A7" stroke-width="1.39988" stroke-linecap="round"/>
<path d="M91.5166 38.7232C91.3564 38.726 91.1959 38.7275 91.0351 38.7275C76.8942 38.7275 65.3156 27.7029 64.3453 13.7397C53.0899 15.5151 44.4805 25.3042 44.4805 37.1141C44.4805 50.1822 55.0219 60.7759 68.0253 60.7759C80.4907 60.7759 90.6935 51.0408 91.5166 38.7232Z" fill="#F6EFFF"/>
<path fill-rule="evenodd" clip-rule="evenodd" d="M59.0511 36.3467C58.3661 35.7142 57.3036 35.7627 56.6779 36.4552C56.0521 37.1476 56.1002 38.2217 56.7852 38.8543L64.6912 46.1549C65.6501 47.0405 67.1377 46.9725 68.0137 46.003C68.0504 45.9619 68.0503 45.9619 68.0857 45.9196L79.3681 32.2023C79.9613 31.4812 79.8638 30.4105 79.1504 29.8109C78.437 29.2113 77.3779 29.3098 76.7847 30.031L66.1774 42.9274L59.0511 36.3467Z" fill="white" stroke="#6020A7" stroke-width="1.39988" stroke-linecap="round"/>
<path fill-rule="evenodd" clip-rule="evenodd" d="M60.0587 16.2114C58.9667 16.6211 57.9 17.1189 56.8695 17.7051C55.2682 18.6159 53.7542 19.7401 52.3683 21.0784C51.8003 21.627 51.2674 22.1984 50.7697 22.7897M49.2299 24.8486C48.8342 25.4466 48.47 26.0596 48.1375 26.6852C47.8919 27.1473 47.6635 27.6162 47.4523 28.0911" fill="white"/>
<path d="M60.3046 16.8668C60.6665 16.731 60.8499 16.3275 60.7141 15.9656C60.5783 15.6036 60.1748 15.4203 59.8129 15.5561L60.3046 16.8668ZM56.8695 17.7051L57.2156 18.3135L56.8695 17.7051ZM52.3683 21.0784L51.8821 20.5749L52.3683 21.0784ZM50.2342 22.339C49.9853 22.6348 50.0233 23.0764 50.3191 23.3253C50.6148 23.5742 51.0564 23.5362 51.3053 23.2404L50.2342 22.339ZM49.8136 25.2349C50.0269 24.9125 49.9385 24.4783 49.6162 24.2649C49.2938 24.0516 48.8595 24.14 48.6462 24.4624L49.8136 25.2349ZM48.1375 26.6852L48.7555 27.0137L48.1375 26.6852ZM46.8127 27.8068C46.6557 28.16 46.8147 28.5737 47.1679 28.7307C47.5211 28.8878 47.9348 28.7287 48.0919 28.3755L46.8127 27.8068ZM59.8129 15.5561C58.6866 15.9786 57.5864 16.4921 56.5235 17.0967L57.2156 18.3135C58.2137 17.7458 59.2468 17.2636 60.3046 16.8668L59.8129 15.5561ZM56.5235 17.0967C54.8716 18.0363 53.3105 19.1956 51.8821 20.5749L52.8546 21.5819C54.1979 20.2847 55.6647 19.1956 57.2156 18.3135L56.5235 17.0967ZM51.8821 20.5749C51.2967 21.1403 50.7473 21.7293 50.2342 22.339L51.3053 23.2404C51.7874 22.6675 52.3038 22.1138 52.8546 21.5819L51.8821 20.5749ZM48.6462 24.4624C48.2381 25.0791 47.8625 25.7113 47.5194 26.3566L48.7555 27.0137C49.0776 26.4078 49.4303 25.8141 49.8136 25.2349L48.6462 24.4624ZM47.5194 26.3566C47.2661 26.8332 47.0305 27.3169 46.8127 27.8068L48.0919 28.3755C48.2964 27.9155 48.5176 27.4613 48.7555 27.0137L47.5194 26.3566Z" fill="#CEBAE4"/>
</svg>
