<svg width="223" height="60" viewBox="0 0 223 60" fill="none" xmlns="http://www.w3.org/2000/svg">
<path d="M30.1651 59.9627C46.8247 59.9627 60.33 46.5396 60.33 29.9814C60.33 13.4231 46.8247 0 30.1651 0C13.5055 0 0.000183105 13.4231 0.000183105 29.9814C0.000183105 46.5396 13.5055 59.9627 30.1651 59.9627Z" fill="#5F259F"/>
<path d="M152.588 47.1357V36.2469C152.588 33.562 151.575 32.2196 149.061 32.2196C148.048 32.2196 146.885 32.3687 146.21 32.5552V48.4781C146.21 48.9629 145.722 49.4849 145.197 49.4849H141.332C140.845 49.4849 140.319 49.0002 140.319 48.4781V29.8703C140.319 29.199 140.807 28.7143 141.332 28.5278C143.846 27.7074 146.397 27.1854 149.099 27.1854C155.177 27.1854 158.553 30.355 158.553 36.2469V48.6273C158.553 49.112 158.066 49.6341 157.54 49.6341H155.177C153.601 49.6341 152.588 48.4781 152.588 47.1357ZM167.745 40.6099L167.595 42.1015C167.595 44.1151 168.946 45.2711 171.122 45.2711C172.81 45.2711 174.311 44.7864 176 43.9287C176.15 43.9287 176.337 43.7795 176.487 43.7795C176.825 43.7795 176.975 43.9287 177.163 44.1151C177.313 44.2643 177.65 44.7864 177.65 44.7864C177.988 45.2711 178.326 45.9424 178.326 46.4644C178.326 47.2848 177.838 48.1425 177.163 48.4781C175.324 49.4849 173.111 49.9697 170.747 49.9697C168.046 49.9697 165.87 49.2985 164.181 47.956C162.493 46.4644 161.48 44.4508 161.48 41.915V35.3892C161.48 30.2059 164.857 26.9989 170.597 26.9989C176.15 26.9989 179.376 30.0194 179.376 35.3892V39.4166C179.376 39.9013 178.888 40.4234 178.363 40.4234H167.745V40.6099ZM167.595 36.9181H174.011V35.2401C174.011 33.2264 172.848 31.8839 170.822 31.8839C168.796 31.8839 167.633 33.0399 167.633 35.2401C167.595 35.2401 167.595 36.9181 167.595 36.9181ZM210.554 40.6099L210.404 42.1015C210.404 44.1151 211.755 45.2711 213.931 45.2711C215.619 45.2711 217.12 44.7864 218.808 43.9287C218.958 43.9287 219.146 43.7795 219.296 43.7795C219.634 43.7795 219.784 43.9287 219.971 44.1151C220.121 44.2643 220.459 44.7864 220.459 44.7864C220.797 45.2711 221.134 45.9424 221.134 46.4644C221.134 47.2848 220.647 48.1425 219.971 48.4781C218.133 49.4849 215.919 49.9697 213.556 49.9697C210.854 49.9697 208.678 49.2985 206.99 47.956C205.302 46.4644 204.289 44.4508 204.289 41.915V35.3892C204.289 30.2059 207.665 26.9989 213.406 26.9989C218.958 26.9989 222.185 30.0194 222.185 35.3892V39.4166C222.185 39.9013 221.697 40.4234 221.172 40.4234H210.554V40.6099ZM210.404 36.9181H216.82V35.2401C216.82 33.2264 215.657 31.8839 213.631 31.8839C211.605 31.8839 210.442 33.0399 210.442 35.2401V36.9181H210.404ZM111.28 49.6341H113.644C114.132 49.6341 114.657 49.1493 114.657 48.6273V36.2469C114.657 30.5415 111.618 27.1854 106.553 27.1854C105.052 27.1854 103.364 27.521 102.351 27.8566V21.6664C102.351 20.324 101.188 19.168 99.8369 19.168H97.4733C96.9855 19.168 96.4603 19.6527 96.4603 20.1748V48.6646C96.4603 49.1493 96.948 49.6714 97.4733 49.6714H101.338C101.825 49.6714 102.351 49.1866 102.351 48.6646V32.8908C103.176 32.5552 104.377 32.406 105.202 32.406C107.716 32.406 108.729 33.562 108.729 36.4334V47.3221C108.916 48.4781 109.929 49.6341 111.28 49.6341ZM136.718 35.5757V41.7659C136.718 46.9492 133.191 50.1562 127.263 50.1562C121.523 50.1562 117.808 46.9865 117.808 41.7659V35.5757C117.808 30.3923 121.335 27.1854 127.263 27.1854C133.191 27.1854 136.718 30.3923 136.718 35.5757ZM130.827 35.5757C130.827 33.562 129.664 32.2196 127.451 32.2196C125.237 32.2196 124.074 33.3756 124.074 35.5757V41.7659C124.074 43.7795 125.237 44.9355 127.451 44.9355C129.664 44.9355 130.827 43.7795 130.827 41.7659V35.5757ZM93.2337 32.7416C93.2337 38.0741 89.1817 41.7659 83.8165 41.7659C82.4659 41.7659 81.3028 41.6167 80.1022 41.0946V48.6273C80.1022 49.112 79.6145 49.6341 79.0892 49.6341H75.2248C74.7371 49.6341 74.2118 49.1493 74.2118 48.6273V22.002C74.2118 21.3308 74.6995 20.846 75.2248 20.6596C77.7385 19.8392 80.2898 19.3171 82.9911 19.3171C89.0691 19.3171 93.2712 23.0089 93.2712 28.7143C93.2337 28.7143 93.2337 32.7416 93.2337 32.7416ZM87.1932 28.3787C87.1932 25.6938 85.3548 24.3513 82.8035 24.3513C81.3028 24.3513 80.2898 24.8361 80.2898 24.8361V35.9113C81.3028 36.3961 81.7905 36.5825 82.9911 36.5825C85.5049 36.5825 87.3808 35.0909 87.3808 32.5552V28.3787H87.1932ZM202.15 32.7416C202.15 38.1114 198.098 41.8031 192.695 41.8031C191.345 41.8031 190.182 41.654 188.981 41.1319V48.6646C188.981 49.1493 188.493 49.6714 187.968 49.6714H184.104C183.616 49.6714 183.091 49.1866 183.091 48.6646V22.002C183.091 21.3308 183.578 20.846 184.104 20.6596C186.617 19.8392 189.169 19.3171 191.87 19.3171C197.948 19.3171 202.15 23.0089 202.15 28.7143V32.7416ZM196.072 28.3787C196.072 25.6938 194.234 24.3513 191.682 24.3513C190.182 24.3513 189.169 24.8361 189.169 24.8361V35.9113C190.182 36.3961 190.669 36.5825 191.87 36.5825C194.384 36.5825 196.26 35.0909 196.26 32.5552V28.3787H196.072Z" fill="#5F259F"/>
<path d="M43.8593 22.1514C43.8593 20.9954 42.8463 19.9886 41.6832 19.9886H37.6312L28.3641 9.43543C27.5387 8.42859 26.188 8.09298 24.8374 8.42859L21.6483 9.43543C21.1606 9.58459 20.973 10.2558 21.3106 10.5914L31.4406 20.1377H16.0955C15.6078 20.1377 15.2701 20.4733 15.2701 20.9581V22.6362C15.2701 23.7922 16.2831 24.799 17.4462 24.799H19.8099V32.891C19.8099 38.932 22.999 42.4373 28.4016 42.4373C30.09 42.4373 31.4406 42.2881 33.129 41.6169V46.9867C33.129 48.4783 34.292 49.6716 35.8303 49.6716H38.194C38.6817 49.6716 39.207 49.1868 39.207 48.6648V24.7244H43.0714C43.5591 24.7244 43.8968 24.3888 43.8968 23.904C43.8593 23.8295 43.8593 22.1514 43.8593 22.1514ZM33.0539 36.5827C32.0409 37.0675 30.6903 37.254 29.6773 37.254C26.9759 37.254 25.6253 35.9115 25.6253 32.891V24.8363H33.0539V36.5827Z" fill="white"/>
</svg>
