<svg width="20" height="20" viewBox="0 0 20 20" fill="none" xmlns="http://www.w3.org/2000/svg">
<path d="M13.1282 11.8796H12.4699L12.2365 11.6546C13.0532 10.7046 13.5449 9.47122 13.5449 8.12956C13.5449 5.13789 11.1199 2.71289 8.12821 2.71289C5.13655 2.71289 2.71155 5.13789 2.71155 8.12956C2.71155 11.1212 5.13655 13.5462 8.12821 13.5462C9.46988 13.5462 10.7032 13.0546 11.6532 12.2379L11.8782 12.4712V13.1296L16.0449 17.2879L17.2865 16.0462L13.1282 11.8796ZM8.12821 11.8796C6.05321 11.8796 4.37821 10.2046 4.37821 8.12956C4.37821 6.05456 6.05321 4.37956 8.12821 4.37956C10.2032 4.37956 11.8782 6.05456 11.8782 8.12956C11.8782 10.2046 10.2032 11.8796 8.12821 11.8796Z" fill="#969696"/>
</svg>
