<svg width="1200" height="84" viewBox="0 0 1200 84" fill="none" xmlns="http://www.w3.org/2000/svg">
<path d="M29 16C29 16.6904 28.4404 17.25 27.75 17.25H7.2132L14.6453 24.8777C15.1271 25.3721 15.1168 26.1635 14.6223 26.6453C14.1279 27.1271 13.3365 27.1168 12.8547 26.6223L3.35765 16.8753C3.11956 16.6328 3.00002 16.3166 3 16C3.00002 15.6834 3.1196 15.3671 3.35776 15.1245L12.8547 5.37767C13.3365 4.88322 14.1279 4.87294 14.6223 5.35471C15.1168 5.83649 15.1271 6.62788 14.6453 7.12233L7.2132 14.75H27.75C28.4404 14.75 29 15.3096 29 16Z" fill="#6020A7"/>
<path d="M68.095 10.8282L60.4666 18.4565L57.105 15.0949C56.6052 14.595 55.7947 14.595 55.2948 15.0949C54.795 15.5947 54.795 16.4052 55.2948 16.9051L59.5615 21.1718C60.0614 21.6717 60.8719 21.6717 61.3717 21.1718L69.9052 12.6384C70.405 12.1385 70.405 11.328 69.9052 10.8282C69.4053 10.3283 68.5948 10.3283 68.095 10.8282Z" fill="#6020A7"/>
<path d="M97.7002 8C97.286 8 96.9502 8.33579 96.9502 8.75C96.9502 9.16421 97.286 9.5 97.7002 9.5H108.2C108.614 9.5 108.95 9.16421 108.95 8.75C108.95 8.33579 108.614 8 108.2 8H97.7002ZM103.696 23.3493C103.647 23.7154 103.333 23.9976 102.953 23.9976C102.539 23.9976 102.203 23.6618 102.203 23.2476L102.203 13.0586L99.2301 16.026L99.146 16.0986C98.8522 16.3162 98.4356 16.2917 98.1695 16.0253C97.8768 15.7322 97.8771 15.2573 98.1702 14.9646L102.46 10.6799C102.534 10.6151 102.621 10.5648 102.717 10.5338L102.798 10.5107C102.848 10.5002 102.899 10.4947 102.949 10.4947L103.009 10.4966L103.078 10.5045L103.198 10.5346L103.29 10.5725L103.326 10.5937L103.417 10.6523L103.488 10.7148L107.731 14.9655L107.803 15.0496C108.021 15.3435 107.996 15.7601 107.73 16.0261L107.645 16.0987C107.352 16.3162 106.935 16.2917 106.669 16.0251L103.703 13.0546L103.703 23.2476L103.696 23.3493Z" fill="white"/>
<path d="M144.12 10C142.048 10 140.37 11.6783 140.37 13.75C140.37 14.1642 140.706 14.5 141.12 14.5C141.534 14.5 141.87 14.1642 141.87 13.75C141.87 12.5067 142.877 11.5 144.12 11.5C145.363 11.5 146.37 12.5067 146.37 13.75C146.37 14.3624 146.221 14.7209 146.042 14.9714C145.845 15.2454 145.573 15.4503 145.195 15.7101L145.109 15.7692C144.773 15.9983 144.342 16.2933 144.007 16.7044C143.612 17.1901 143.37 17.8046 143.37 18.625V19C143.37 19.4142 143.706 19.75 144.12 19.75C144.534 19.75 144.87 19.4142 144.87 19V18.625C144.87 18.1329 145.003 17.8567 145.171 17.651C145.363 17.4151 145.622 17.2368 146.005 16.9734L146.045 16.9462C146.417 16.6903 146.895 16.3562 147.261 15.845C147.644 15.3104 147.87 14.6376 147.87 13.75C147.87 11.6783 146.192 10 144.12 10ZM144.12 22.9375C144.638 22.9375 145.058 22.5178 145.058 22C145.058 21.4822 144.638 21.0625 144.12 21.0625C143.602 21.0625 143.183 21.4822 143.183 22C143.183 22.5178 143.602 22.9375 144.12 22.9375Z" fill="#6020A7"/>
<path d="M183.04 10C180.968 10 179.29 11.6783 179.29 13.75C179.29 14.1642 179.626 14.5 180.04 14.5C180.454 14.5 180.79 14.1642 180.79 13.75C180.79 12.5067 181.797 11.5 183.04 11.5C184.283 11.5 185.29 12.5067 185.29 13.75C185.29 14.3624 185.141 14.7209 184.962 14.9714C184.765 15.2454 184.493 15.4503 184.115 15.7101L184.029 15.7692C183.693 15.9983 183.262 16.2933 182.927 16.7044C182.532 17.1901 182.29 17.8046 182.29 18.625V19C182.29 19.4142 182.626 19.75 183.04 19.75C183.454 19.75 183.79 19.4142 183.79 19V18.625C183.79 18.1329 183.923 17.8567 184.091 17.651C184.283 17.4151 184.542 17.2368 184.925 16.9734L184.965 16.9462C185.337 16.6903 185.815 16.3562 186.181 15.845C186.564 15.3104 186.79 14.6376 186.79 13.75C186.79 11.6783 185.112 10 183.04 10ZM183.04 22.9375C183.558 22.9375 183.978 22.5178 183.978 22C183.978 21.4822 183.558 21.0625 183.04 21.0625C182.522 21.0625 182.103 21.4822 182.103 22C182.103 22.5178 182.522 22.9375 183.04 22.9375Z" fill="#3A1364"/>
<path d="M221.96 10C219.888 10 218.21 11.6783 218.21 13.75C218.21 14.1642 218.546 14.5 218.96 14.5C219.374 14.5 219.71 14.1642 219.71 13.75C219.71 12.5067 220.717 11.5 221.96 11.5C223.203 11.5 224.21 12.5067 224.21 13.75C224.21 14.3624 224.061 14.7209 223.882 14.9714C223.685 15.2454 223.413 15.4503 223.035 15.7101L222.949 15.7692C222.613 15.9983 222.181 16.2933 221.847 16.7044C221.452 17.1901 221.21 17.8046 221.21 18.625V19C221.21 19.4142 221.546 19.75 221.96 19.75C222.374 19.75 222.71 19.4142 222.71 19V18.625C222.71 18.1329 222.843 17.8567 223.01 17.651C223.202 17.4151 223.462 17.2368 223.845 16.9734L223.885 16.9462C224.257 16.6903 224.735 16.3562 225.101 15.845C225.484 15.3104 225.71 14.6376 225.71 13.75C225.71 11.6783 224.032 10 221.96 10ZM221.96 22.9375C222.478 22.9375 222.897 22.5178 222.897 22C222.897 21.4822 222.478 21.0625 221.96 21.0625C221.442 21.0625 221.022 21.4822 221.022 22C221.022 22.5178 221.442 22.9375 221.96 22.9375Z" fill="#FCFAFF"/>
<path d="M272.88 16C272.88 11.5817 269.298 8 264.88 8C260.462 8 256.88 11.5817 256.88 16C256.88 20.4183 260.462 24 264.88 24C269.298 24 272.88 20.4183 272.88 16ZM264.388 14.9101C264.43 14.6769 264.634 14.5 264.88 14.5C265.125 14.5 265.329 14.6769 265.372 14.9101L265.38 15V19.5021L265.372 19.592C265.329 19.8253 265.125 20.0021 264.88 20.0021C264.634 20.0021 264.43 19.8253 264.388 19.592L264.38 19.5021V15L264.388 14.9101ZM264.13 12.75C264.13 12.3358 264.466 12 264.88 12C265.294 12 265.63 12.3358 265.63 12.75C265.63 13.1642 265.294 13.5 264.88 13.5C264.466 13.5 264.13 13.1642 264.13 12.75Z" fill="#2B2B2B"/>
<path d="M305.8 10C305.8 8.89543 306.695 8 307.8 8H315.8C316.904 8 317.8 8.89543 317.8 10V21C317.8 21.5523 317.352 22 316.8 22H306.8C306.8 22.5523 307.248 23 307.8 23H317.3C317.576 23 317.8 23.2239 317.8 23.5C317.8 23.7761 317.576 24 317.3 24H307.8C306.695 24 305.8 23.1046 305.8 22V10ZM308.55 10C308.136 10 307.8 10.3358 307.8 10.75V11.25C307.8 11.6642 308.136 12 308.55 12H315.05C315.464 12 315.8 11.6642 315.8 11.25V10.75C315.8 10.3358 315.464 10 315.05 10H308.55Z" fill="#2B2B2B"/>
<path d="M358.72 8C363.138 8 366.72 11.5817 366.72 16C366.72 20.4183 363.138 24 358.72 24C354.301 24 350.72 20.4183 350.72 16C350.72 11.5817 354.301 8 358.72 8ZM358.72 19.5C358.306 19.5 357.97 19.8358 357.97 20.25C357.97 20.6642 358.306 21 358.72 21C359.134 21 359.47 20.6642 359.47 20.25C359.47 19.8358 359.134 19.5 358.72 19.5ZM358.72 11.5C357.339 11.5 356.22 12.6193 356.22 14C356.22 14.2761 356.444 14.5 356.72 14.5C356.996 14.5 357.22 14.2761 357.22 14C357.22 13.1716 357.891 12.5 358.72 12.5C359.548 12.5 360.22 13.1716 360.22 14C360.22 14.3693 360.086 14.7158 359.852 14.9845L359.745 15.0947L359.627 15.1944L359.381 15.3787C359.252 15.4799 359.136 15.5832 359.025 15.7016C358.513 16.2475 358.22 16.988 358.22 18C358.22 18.2761 358.444 18.5 358.72 18.5C358.996 18.5 359.22 18.2761 359.22 18C359.22 17.2422 359.416 16.7464 359.754 16.3859L359.83 16.3099L359.91 16.2372L359.998 16.1655L360.216 16.0024L360.371 15.8771C360.905 15.4077 361.22 14.7296 361.22 14C361.22 12.6193 360.1 11.5 358.72 11.5Z" fill="#2B2B2B"/>
<path d="M408.378 8.53039C407.694 7.84697 406.586 7.84697 405.903 8.53039L398.171 16.2626C397.487 16.946 397.487 18.0541 398.171 18.7375L398.946 19.5127C399.352 19.9192 399.932 19.8495 400.292 19.6524C400.469 19.5554 400.673 19.5 400.891 19.5C401.581 19.5 402.141 20.0596 402.141 20.75C402.141 20.9679 402.085 21.1715 401.988 21.3488C401.791 21.7091 401.721 22.2882 402.128 22.6947L402.903 23.4697C403.586 24.1531 404.694 24.1531 405.378 23.4697L413.11 15.7375C413.794 15.0541 413.794 13.946 413.11 13.2626L412.335 12.4875C411.929 12.0811 411.35 12.1507 410.989 12.3477C410.812 12.4447 410.609 12.5 410.391 12.5C409.7 12.5 409.141 11.9404 409.141 11.25C409.141 11.0321 409.196 10.8286 409.293 10.6514C409.49 10.2911 409.56 9.71208 409.153 9.30561L408.378 8.53039Z" fill="#2B2B2B"/>
<path d="M444.561 11C443.456 11 442.561 11.8954 442.561 13V13.2013L448.561 16.4321L454.561 13.2014V13C454.561 11.8954 453.665 11 452.561 11H444.561ZM454.561 14.3372L448.798 17.4402C448.65 17.5199 448.472 17.5199 448.324 17.4402L442.561 14.3371V19C442.561 20.1046 443.456 21 444.561 21H452.561C453.665 21 454.561 20.1046 454.561 19V14.3372Z" fill="#2B2B2B"/>
<path d="M493.48 19.5V14H481.48V19.5C481.48 20.8807 482.6 22 483.98 22H490.98C492.361 22 493.48 20.8807 493.48 19.5ZM485.477 16.2485C485.477 16.6619 485.142 16.997 484.729 16.997C484.316 16.997 483.98 16.6619 483.98 16.2485C483.98 15.8351 484.316 15.5 484.729 15.5C485.142 15.5 485.477 15.8351 485.477 16.2485ZM485.477 18.7485C485.477 19.1619 485.142 19.497 484.729 19.497C484.316 19.497 483.98 19.1619 483.98 18.7485C483.98 18.3351 484.316 18 484.729 18C485.142 18 485.477 18.3351 485.477 18.7485ZM488.229 16.2485C488.229 16.6619 487.894 16.997 487.481 16.997C487.068 16.997 486.732 16.6619 486.732 16.2485C486.732 15.8351 487.068 15.5 487.481 15.5C487.894 15.5 488.229 15.8351 488.229 16.2485ZM488.229 18.7485C488.229 19.1619 487.894 19.497 487.481 19.497C487.068 19.497 486.732 19.1619 486.732 18.7485C486.732 18.3351 487.068 18 487.481 18C487.894 18 488.229 18.3351 488.229 18.7485ZM490.977 16.2485C490.977 16.6619 490.642 16.997 490.229 16.997C489.816 16.997 489.48 16.6619 489.48 16.2485C489.48 15.8351 489.816 15.5 490.229 15.5C490.642 15.5 490.977 15.8351 490.977 16.2485ZM493.48 12.5C493.48 11.1193 492.361 10 490.98 10H483.98C482.6 10 481.48 11.1193 481.48 12.5V13H493.48V12.5Z" fill="#2B2B2B"/>
<path d="M531.575 10.8282L523.947 18.4565L520.586 15.0949C520.086 14.595 519.275 14.595 518.775 15.0949C518.275 15.5947 518.275 16.4052 518.775 16.9051L523.042 21.1718C523.542 21.6717 524.352 21.6717 524.852 21.1718L533.386 12.6384C533.886 12.1385 533.886 11.328 533.386 10.8282C532.886 10.3283 532.075 10.3283 531.575 10.8282Z" fill="white"/>
<path d="M559.94 17.6021C560.623 14.3269 563.475 12 566.681 12C569.886 12 572.738 14.3269 573.422 17.6021C573.478 17.8725 573.743 18.0459 574.013 17.9895C574.284 17.933 574.457 17.6682 574.401 17.3979C573.623 13.6731 570.374 11 566.681 11C562.987 11 559.738 13.6731 558.961 17.3979C558.904 17.6682 559.078 17.933 559.348 17.9895C559.618 18.0459 559.883 17.8725 559.94 17.6021ZM566.67 14C568.603 14 570.17 15.567 570.17 17.5C570.17 19.433 568.603 21 566.67 21C564.737 21 563.17 19.433 563.17 17.5C563.17 15.567 564.737 14 566.67 14Z" fill="#FCFAFF"/>
<path d="M602.454 8.14645C602.259 7.95118 601.942 7.95118 601.747 8.14645C601.552 8.34171 601.552 8.65829 601.747 8.85355L605.246 12.3524C603.571 13.4918 602.324 15.2738 601.881 17.3979C601.824 17.6682 601.998 17.9331 602.268 17.9895C602.538 18.0459 602.803 17.8725 602.86 17.6021C603.263 15.667 604.424 14.0629 605.968 13.0742L607.55 14.656C606.666 15.2913 606.09 16.3284 606.09 17.5C606.09 19.433 607.657 21 609.59 21C610.762 21 611.799 20.4244 612.434 19.5405L616.747 23.8536C616.942 24.0488 617.259 24.0488 617.454 23.8536C617.649 23.6583 617.649 23.3417 617.454 23.1464L602.454 8.14645ZM609.724 14.0025L613.088 17.3657C613.019 15.5395 611.551 14.0714 609.724 14.0025ZM607.132 11.4098L607.935 12.2129C608.472 12.0735 609.031 12 609.601 12C612.806 12 615.658 14.3269 616.341 17.6021C616.398 17.8725 616.663 18.0459 616.933 17.9895C617.203 17.933 617.377 17.6682 617.32 17.3979C616.543 13.6731 613.294 11 609.601 11C608.745 11 607.914 11.1433 607.132 11.4098Z" fill="#FCFAFF"/>
<path d="M647.769 16.997C648.182 16.997 648.517 16.6619 648.517 16.2485C648.517 15.8351 648.182 15.5 647.769 15.5C647.356 15.5 647.021 15.8351 647.021 16.2485C647.021 16.6619 647.356 16.997 647.769 16.997ZM648.517 18.7485C648.517 19.1619 648.182 19.497 647.769 19.497C647.356 19.497 647.021 19.1619 647.021 18.7485C647.021 18.3351 647.356 18 647.769 18C648.182 18 648.517 18.3351 648.517 18.7485ZM650.521 16.997C650.934 16.997 651.269 16.6619 651.269 16.2485C651.269 15.8351 650.934 15.5 650.521 15.5C650.108 15.5 649.772 15.8351 649.772 16.2485C649.772 16.6619 650.108 16.997 650.521 16.997ZM651.269 18.7485C651.269 19.1619 650.934 19.497 650.521 19.497C650.108 19.497 649.772 19.1619 649.772 18.7485C649.772 18.3351 650.108 18 650.521 18C650.934 18 651.269 18.3351 651.269 18.7485ZM653.269 16.997C653.682 16.997 654.017 16.6619 654.017 16.2485C654.017 15.8351 653.682 15.5 653.269 15.5C652.856 15.5 652.521 15.8351 652.521 16.2485C652.521 16.6619 652.856 16.997 653.269 16.997ZM656.521 12.5C656.521 11.1193 655.401 10 654.021 10H647.021C645.64 10 644.521 11.1193 644.521 12.5V19.5C644.521 20.8807 645.64 22 647.021 22H654.021C655.401 22 656.521 20.8807 656.521 19.5V12.5ZM645.521 14H655.521V19.5C655.521 20.3284 654.849 21 654.021 21H647.021C646.192 21 645.521 20.3284 645.521 19.5V14ZM647.021 11H654.021C654.849 11 655.521 11.6716 655.521 12.5V13H645.521V12.5C645.521 11.6716 646.192 11 647.021 11Z" fill="#2B2B2B"/>
<path d="M701.44 16C701.44 11.5817 697.859 8 693.44 8C689.022 8 685.44 11.5817 685.44 16C685.44 20.4183 689.022 24 693.44 24C697.859 24 701.44 20.4183 701.44 16ZM692.948 14.9101C692.991 14.6769 693.195 14.5 693.44 14.5C693.686 14.5 693.89 14.6769 693.932 14.9101L693.94 15V19.5021L693.932 19.592C693.89 19.8253 693.686 20.0021 693.44 20.0021C693.195 20.0021 692.991 19.8253 692.948 19.592L692.94 19.5021V15L692.948 14.9101ZM692.69 12.75C692.69 12.3358 693.026 12 693.44 12C693.855 12 694.19 12.3358 694.19 12.75C694.19 13.1642 693.855 13.5 693.44 13.5C693.026 13.5 692.69 13.1642 692.69 12.75Z" fill="#6020A7"/>
<path d="M734.36 10C734.36 8.89543 735.256 8 736.36 8H744.36C745.465 8 746.36 8.89543 746.36 10V21C746.36 21.5523 745.913 22 745.36 22H735.36C735.36 22.5523 735.808 23 736.36 23H745.86C746.136 23 746.36 23.2239 746.36 23.5C746.36 23.7761 746.136 24 745.86 24H736.36C735.256 24 734.36 23.1046 734.36 22V10ZM737.11 10C736.696 10 736.36 10.3358 736.36 10.75V11.25C736.36 11.6642 736.696 12 737.11 12H743.61C744.025 12 744.36 11.6642 744.36 11.25V10.75C744.36 10.3358 744.025 10 743.61 10H737.11Z" fill="#6020A7"/>
<path d="M787.28 9C785.076 9 783.28 10.7958 783.28 13C783.28 13.4142 783.616 13.75 784.03 13.75C784.444 13.75 784.78 13.4142 784.78 13C784.78 11.6242 785.904 10.5 787.28 10.5C788.656 10.5 789.78 11.6242 789.78 13C789.78 13.5966 789.624 13.9747 789.413 14.2706C789.18 14.5949 788.865 14.8493 788.444 15.19L788.434 15.1978C788.034 15.5209 787.541 15.9216 787.164 16.4863C786.772 17.0742 786.53 17.7989 786.53 18.75V19.25C786.53 19.6642 786.866 20 787.28 20C787.694 20 788.03 19.6642 788.03 19.25V18.75C788.03 18.0761 788.195 17.6446 788.412 17.3184C788.645 16.969 788.964 16.6979 789.377 16.3647L789.444 16.3104C789.819 16.0085 790.278 15.6381 790.632 15.1435C791.03 14.5878 791.28 13.9034 791.28 13C791.28 10.7958 789.484 9 787.28 9ZM787.28 23C787.833 23 788.28 22.5523 788.28 22C788.28 21.4477 787.833 21 787.28 21C786.728 21 786.28 21.4477 786.28 22C786.28 22.5523 786.728 23 787.28 23Z" fill="#6020A7"/>
<path d="M836.937 8.53039C836.254 7.84697 835.146 7.84697 834.463 8.53039L826.73 16.2626C826.047 16.946 826.047 18.0541 826.73 18.7375L827.505 19.5127C827.912 19.9192 828.491 19.8495 828.851 19.6524C829.029 19.5554 829.232 19.5 829.45 19.5C830.141 19.5 830.7 20.0596 830.7 20.75C830.7 20.9679 830.645 21.1715 830.548 21.3488C830.351 21.7091 830.281 22.2882 830.688 22.6947L831.463 23.4697C832.146 24.1531 833.254 24.1531 833.937 23.4697L841.67 15.7375C842.353 15.0541 842.353 13.946 841.67 13.2626L840.895 12.4875C840.488 12.0811 839.909 12.1507 839.549 12.3477C839.372 12.4447 839.168 12.5 838.95 12.5C838.26 12.5 837.7 11.9404 837.7 11.25C837.7 11.0321 837.756 10.8286 837.852 10.6514C838.05 10.2911 838.119 9.71208 837.713 9.30561L836.937 8.53039Z" fill="#6020A7"/>
<path d="M877.62 10.75C877.62 10.3358 877.284 10 876.87 10C876.456 10 876.12 10.3358 876.12 10.75V15H871.87C871.456 15 871.12 15.3358 871.12 15.75C871.12 16.1642 871.456 16.5 871.87 16.5H876.12V20.75C876.12 21.1642 876.456 21.5 876.87 21.5C877.284 21.5 877.62 21.1642 877.62 20.75V16.5H881.87C882.284 16.5 882.62 16.1642 882.62 15.75C882.62 15.3358 882.284 15 881.87 15H877.62V10.75Z" fill="#2B2B2B"/>
<path d="M911.54 16C911.54 13.5147 913.555 11.5 916.04 11.5C917.372 11.5 918.57 12.0785 919.394 13H917.79C917.376 13 917.04 13.3358 917.04 13.75C917.04 14.1642 917.376 14.5 917.79 14.5H920.79C921.204 14.5 921.54 14.1642 921.54 13.75V10.75C921.54 10.3358 921.204 10 920.79 10C920.376 10 920.04 10.3358 920.04 10.75V11.5279C918.979 10.5783 917.577 10 916.04 10C912.726 10 910.04 12.6863 910.04 16C910.04 19.3137 912.726 22 916.04 22C919.065 22 921.566 19.7624 921.98 16.8519C922.038 16.4418 921.753 16.0621 921.343 16.0037C920.933 15.9454 920.553 16.2305 920.495 16.6406C920.184 18.8222 918.308 20.5 916.04 20.5C913.555 20.5 911.54 18.4853 911.54 16Z" fill="#2B2B2B"/>
<g clip-path="url(#clip0_1364_303)">
<path d="M956.96 6C962.483 6 966.96 10.4772 966.96 16C966.96 21.5228 962.483 26 956.96 26C951.437 26 946.96 21.5228 946.96 16C946.96 10.4772 951.437 6 956.96 6ZM956.96 7.5C952.266 7.5 948.46 11.3056 948.46 16C948.46 20.6944 952.266 24.5 956.96 24.5C961.654 24.5 965.46 20.6944 965.46 16C965.46 11.3056 961.654 7.5 956.96 7.5ZM960.406 12.3971L960.49 12.4697C960.757 12.7359 960.781 13.1526 960.563 13.4462L960.49 13.5303L958.021 16L960.49 18.4697C960.757 18.7359 960.781 19.1526 960.563 19.4462L960.49 19.5303C960.224 19.7966 959.807 19.8208 959.514 19.6029L959.43 19.5303L956.96 17.061L954.49 19.5303C954.224 19.7966 953.807 19.8208 953.514 19.6029L953.43 19.5303C953.163 19.2641 953.139 18.8474 953.357 18.5538L953.43 18.4697L955.899 16L953.43 13.5303C953.163 13.2641 953.139 12.8474 953.357 12.5538L953.43 12.4697C953.696 12.2034 954.113 12.1792 954.406 12.3971L954.49 12.4697L956.96 14.939L959.43 12.4697C959.696 12.2034 960.113 12.1792 960.406 12.3971Z" fill="#FF3B30"/>
</g>
<path d="M999.88 8C1004.3 8 1007.88 11.5817 1007.88 16C1007.88 20.4183 1004.3 24 999.88 24C995.462 24 991.88 20.4183 991.88 16C991.88 11.5817 995.462 8 999.88 8ZM999.88 9C996.014 9 992.88 12.134 992.88 16C992.88 19.866 996.014 23 999.88 23C1003.75 23 1006.88 19.866 1006.88 16C1006.88 12.134 1003.75 9 999.88 9ZM997.689 13.1137L997.759 13.1716L999.88 15.2929L1002 13.1716C1002.17 12.998 1002.44 12.9787 1002.64 13.1137L1002.71 13.1716C1002.88 13.3451 1002.9 13.6146 1002.77 13.8094L1002.71 13.8787L1000.59 16L1002.71 18.1213C1002.88 18.2949 1002.9 18.5643 1002.77 18.7592L1002.71 18.8284C1002.53 19.002 1002.27 19.0213 1002.07 18.8863L1002 18.8284L999.88 16.7071L997.759 18.8284C997.585 19.002 997.316 19.0213 997.121 18.8863L997.051 18.8284C996.878 18.6549 996.859 18.3854 996.994 18.1906L997.051 18.1213L999.173 16L997.051 13.8787C996.878 13.7051 996.859 13.4357 996.994 13.2408L997.051 13.1716C997.225 12.998 997.494 12.9787 997.689 13.1137Z" fill="white"/>
<path d="M1038.8 16C1038.8 15.7239 1039.02 15.5 1039.3 15.5H1042.3V12.5C1042.3 12.2239 1042.52 12 1042.8 12C1043.08 12 1043.3 12.2239 1043.3 12.5V15.5H1046.3C1046.58 15.5 1046.8 15.7239 1046.8 16C1046.8 16.2761 1046.58 16.5 1046.3 16.5H1043.3V19.5C1043.3 19.7761 1043.08 20 1042.8 20C1042.52 20 1042.3 19.7761 1042.3 19.5V16.5H1039.3C1039.02 16.5 1038.8 16.2761 1038.8 16ZM1042.8 24C1047.22 24 1050.8 20.4183 1050.8 16C1050.8 11.5817 1047.22 8 1042.8 8C1038.38 8 1034.8 11.5817 1034.8 16C1034.8 20.4183 1038.38 24 1042.8 24ZM1042.8 23C1038.93 23 1035.8 19.866 1035.8 16C1035.8 12.134 1038.93 9 1042.8 9C1046.67 9 1049.8 12.134 1049.8 16C1049.8 19.866 1046.67 23 1042.8 23Z" fill="white"/>
<path d="M1083.72 13C1084 13 1084.22 13.2239 1084.22 13.5V15.5H1086.22C1086.5 15.5 1086.72 15.7239 1086.72 16C1086.72 16.2761 1086.5 16.5 1086.22 16.5H1084.22V18.5C1084.22 18.7761 1084 19 1083.72 19C1083.44 19 1083.22 18.7761 1083.22 18.5V16.5H1081.22C1080.94 16.5 1080.72 16.2761 1080.72 16C1080.72 15.7239 1080.94 15.5 1081.22 15.5H1083.22V13.5C1083.22 13.2239 1083.44 13 1083.72 13ZM1077.72 16C1077.72 12.6863 1080.41 10 1083.72 10C1087.03 10 1089.72 12.6863 1089.72 16C1089.72 19.3137 1087.03 22 1083.72 22C1080.41 22 1077.72 19.3137 1077.72 16ZM1083.72 11C1080.96 11 1078.72 13.2386 1078.72 16C1078.72 18.7614 1080.96 21 1083.72 21C1086.48 21 1088.72 18.7614 1088.72 16C1088.72 13.2386 1086.48 11 1083.72 11Z" fill="#6020A7"/>
<path d="M1120.64 16C1120.64 15.7239 1120.86 15.5 1121.14 15.5H1124.14V12.5C1124.14 12.2239 1124.36 12 1124.64 12C1124.92 12 1125.14 12.2239 1125.14 12.5V15.5H1128.14C1128.42 15.5 1128.64 15.7239 1128.64 16C1128.64 16.2761 1128.42 16.5 1128.14 16.5H1125.14V19.5C1125.14 19.7761 1124.92 20 1124.64 20C1124.36 20 1124.14 19.7761 1124.14 19.5V16.5H1121.14C1120.86 16.5 1120.64 16.2761 1120.64 16ZM1124.64 24C1129.06 24 1132.64 20.4183 1132.64 16C1132.64 11.5817 1129.06 8 1124.64 8C1120.22 8 1116.64 11.5817 1116.64 16C1116.64 20.4183 1120.22 24 1124.64 24ZM1124.64 23C1120.77 23 1117.64 19.866 1117.64 16C1117.64 12.134 1120.77 9 1124.64 9C1128.51 9 1131.64 12.134 1131.64 16C1131.64 19.866 1128.51 23 1124.64 23Z" fill="#6020A7"/>
<path d="M1161.31 10C1160.9 10 1160.56 10.3358 1160.56 10.75C1160.56 11.1642 1160.9 11.5 1161.31 11.5H1169.81C1170.22 11.5 1170.56 11.1642 1170.56 10.75C1170.56 10.3358 1170.22 10 1169.81 10H1161.31ZM1166.09 12.7197C1165.8 12.4268 1165.32 12.4268 1165.03 12.7197L1161.78 15.9697C1161.49 16.2626 1161.49 16.7374 1161.78 17.0303C1162.07 17.3232 1162.55 17.3232 1162.84 17.0303L1164.81 15.0607V21.25C1164.81 21.6642 1165.15 22 1165.56 22C1165.97 22 1166.31 21.6642 1166.31 21.25V15.0607L1168.28 17.0303C1168.57 17.3232 1169.05 17.3232 1169.34 17.0303C1169.63 16.7374 1169.63 16.2626 1169.34 15.9697L1166.09 12.7197Z" fill="white"/>
<path d="M3.5 79H12.5C12.9142 79 13.25 79.3358 13.25 79.75C13.25 80.1297 12.9678 80.4435 12.6018 80.4932L12.5 80.5H3.5C3.08579 80.5 2.75 80.1642 2.75 79.75C2.75 79.3703 3.03215 79.0565 3.39823 79.0068L3.5 79H12.5H3.5ZM7.89823 67.0068L8 67C8.3797 67 8.69349 67.2822 8.74315 67.6482L8.75 67.75V75.438L11.0052 73.1841C11.2715 72.9179 11.6881 72.8937 11.9817 73.1115L12.0659 73.1841C12.3321 73.4504 12.3563 73.8671 12.1385 74.1607L12.0659 74.2448L8.53033 77.7803C8.26406 78.0466 7.8474 78.0708 7.55379 77.8529L7.46967 77.7803L3.93414 74.2448C3.64124 73.9519 3.64124 73.477 3.93414 73.1841C4.2004 72.9179 4.61707 72.8937 4.91068 73.1115L4.9948 73.1841L7.25 75.44V67.75C7.25 67.3703 7.53215 67.0565 7.89823 67.0068L8 67L7.89823 67.0068Z" fill="#6020A7"/>
<path d="M44.1203 69.4328L44.1199 76.9167C44.1199 78.4631 45.3578 79.7284 46.9227 79.8271L47.1199 79.8333L52.4172 79.8342C52.1699 80.5134 51.5033 81 50.7199 81H46.5199C44.5317 81 42.9199 79.433 42.9199 77.5V71.0833C42.9199 70.3212 43.421 69.6729 44.1203 69.4328ZM53.1199 67C54.114 67 54.9199 67.7835 54.9199 68.75V76.9167C54.9199 77.8832 54.114 78.6667 53.1199 78.6667H47.1199C46.1258 78.6667 45.3199 77.8832 45.3199 76.9167V68.75C45.3199 67.7835 46.1258 67 47.1199 67H53.1199Z" fill="#2B2B2B"/>
<path d="M85.3398 79H94.3398C94.7541 79 95.0898 79.3358 95.0898 79.75C95.0898 80.1297 94.8077 80.4435 94.4416 80.4932L94.3398 80.5H85.3398C84.9256 80.5 84.5898 80.1642 84.5898 79.75C84.5898 79.3703 84.872 79.0565 85.2381 79.0068L85.3398 79H94.3398H85.3398ZM89.7381 67.0068L89.8398 67C90.2195 67 90.5333 67.2822 90.583 67.6482L90.5898 67.75V75.438L92.845 73.1841C93.1113 72.9179 93.528 72.8937 93.8216 73.1115L93.9057 73.1841C94.172 73.4504 94.1962 73.8671 93.9783 74.1607L93.9057 74.2448L90.3702 77.7803C90.1039 78.0466 89.6872 78.0708 89.3936 77.8529L89.3095 77.7803L85.774 74.2448C85.4811 73.9519 85.4811 73.477 85.774 73.1841C86.0402 72.9179 86.4569 72.8937 86.7505 73.1115L86.8346 73.1841L89.0898 75.44V67.75C89.0898 67.3703 89.372 67.0565 89.7381 67.0068L89.8398 67L89.7381 67.0068Z" fill="#FCFAFF"/>
<path d="M137.941 66.9269C136.789 65.715 134.864 65.6908 133.682 66.8732L124.307 76.2475C123.979 76.5754 123.752 76.9899 123.651 77.4424L122.774 81.3923C122.737 81.5592 122.787 81.7335 122.908 81.8544C123.029 81.9753 123.203 82.026 123.37 81.9889L127.297 81.1157C127.764 81.0118 128.192 80.7767 128.531 80.4381L137.889 71.08C139.03 69.939 139.053 68.0963 137.941 66.9269ZM134.389 67.5803C135.174 66.7954 136.452 66.8115 137.216 67.616C137.955 68.3923 137.939 69.6155 137.182 70.3729L136.51 71.0442L133.718 68.2516L134.389 67.5803ZM133.011 68.9586L135.803 71.7513L127.824 79.731C127.62 79.9352 127.361 80.0769 127.08 80.1396L123.92 80.8421L124.627 77.6593C124.687 77.3924 124.821 77.148 125.014 76.9547L133.011 68.9586Z" fill="#6020A7"/>
<path d="M171.68 70.5C170.714 70.5001 169.93 69.7167 169.93 68.7502C169.93 67.7837 170.713 67.0001 171.68 67C172.646 66.9999 173.43 67.7833 173.43 68.7498C173.43 69.7163 172.647 70.4999 171.68 70.5ZM171.682 81C170.715 81.0001 169.932 80.2167 169.931 79.2502C169.931 78.2837 170.715 77.5001 171.681 77.5C172.648 77.4999 173.431 78.2833 173.431 79.2498C173.432 80.2163 172.648 80.9999 171.682 81ZM169.931 74.0002C169.931 74.9667 170.714 75.7501 171.681 75.75C172.647 75.7499 173.431 74.9663 173.431 73.9998C173.431 73.0333 172.647 72.2499 171.68 72.25C170.714 72.2501 169.931 73.0337 169.931 74.0002Z" fill="#2B2B2B"/>
<path d="M216.293 73.499L213.331 76.4624C213.038 76.7553 213.038 77.2302 213.331 77.5231C213.597 77.7893 214.014 77.8134 214.307 77.5955L214.392 77.5229L218.634 73.2797C218.9 73.0134 218.924 72.5967 218.706 72.3031L218.633 72.219L214.39 67.977C214.097 67.6841 213.622 67.6842 213.33 67.9771C213.063 68.2434 213.039 68.6601 213.257 68.9537L213.33 69.0378L216.293 71.999L210.603 72.0005C206.405 72.0011 202.987 75.3392 202.858 79.5055L202.854 79.7516C202.854 80.1658 203.19 80.5015 203.604 80.5014C204.019 80.5014 204.354 80.1656 204.354 79.7513C204.354 76.3763 207.029 73.6257 210.374 73.5046L210.603 73.5005L216.293 73.499Z" fill="#2B2B2B"/>
<path d="M257.214 73.4998L254.251 76.4628C253.959 76.7557 253.959 77.2305 254.251 77.5234C254.518 77.7897 254.934 77.8139 255.228 77.596L255.312 77.5234L259.555 73.2808C259.821 73.0145 259.845 72.5979 259.627 72.3042L259.555 72.2201L255.312 67.9775C255.019 67.6846 254.544 67.6846 254.251 67.9775C253.985 68.2437 253.961 68.6604 254.179 68.954L254.251 69.0381L257.214 71.9998L251.524 72.0005C247.327 72.0005 243.908 75.3381 243.778 79.5044L243.774 79.7505C243.774 80.1647 244.11 80.5005 244.524 80.5005C244.939 80.5005 245.274 80.1647 245.274 79.7505C245.274 76.3754 247.95 73.6251 251.295 73.5046L251.524 73.5005L257.214 73.4998Z" fill="white"/>
<defs>
<clipPath id="clip0_1364_303">
<rect width="20" height="20" fill="white" transform="translate(946.96 6)"/>
</clipPath>
</defs>
</svg>
